<?xml version="1.0" encoding="UTF-8"?>
<svg xmlns="http://www.w3.org/2000/svg" xmlns:xlink="http://www.w3.org/1999/xlink" width="119pt" height="119pt" viewBox="0 0 119 119" version="1.1">
<g id="surface395">
<path style=" stroke:none;fill-rule:nonzero;fill:rgb(100%,100%,100%);fill-opacity:1;" d="M 59.5 110 L 41 110 C 23.328125 110 9 95.671875 9 78 L 9 41 C 9 23.328125 23.328125 9 41 9 L 78 9 C 95.671875 9 110 23.328125 110 41 L 110 78 C 110 95.671875 95.671875 110 78 110 Z M 59.5 110 "/>
<path style=" stroke:none;fill-rule:nonzero;fill:rgb(69.803923%,87.450981%,54.11765%);fill-opacity:1;" d="M 42.421875 37.023438 L 44.75 34.695312 L 58.96875 48.914062 L 56.640625 51.242188 Z M 36.890625 31.492188 L 39.21875 29.164062 L 42.171875 32.117188 L 39.84375 34.445312 Z M 36.890625 31.492188 "/>
<path style=" stroke:none;fill-rule:nonzero;fill:rgb(69.803923%,87.450981%,54.11765%);fill-opacity:1;" d="M 58.980469 21.3125 L 61.183594 23.515625 C 60.195312 23.839844 59.257812 24.273438 58.371094 24.8125 C 57.488281 25.355469 56.664062 26.007812 55.902344 26.765625 C 54.746094 27.921875 54.054688 28.96875 53.824219 29.90625 C 53.597656 30.84375 53.839844 31.671875 54.558594 32.390625 C 55.089844 32.921875 55.722656 33.136719 56.449219 33.03125 C 57.179688 32.929688 58.308594 32.390625 59.839844 31.421875 L 60.824219 30.78125 C 62.84375 29.492188 64.519531 28.820312 65.855469 28.765625 C 67.199219 28.703125 68.453125 29.257812 69.621094 30.421875 C 70.941406 31.746094 71.464844 33.3125 71.183594 35.125 C 70.902344 36.9375 69.84375 38.761719 68.011719 40.59375 C 67.261719 41.34375 66.394531 42.0625 65.417969 42.75 C 64.449219 43.429688 63.363281 44.074219 62.167969 44.6875 L 59.746094 42.265625 C 61.050781 41.859375 62.230469 41.351562 63.292969 40.734375 C 64.355469 40.121094 65.296875 39.402344 66.121094 38.578125 C 67.214844 37.484375 67.871094 36.453125 68.089844 35.484375 C 68.308594 34.515625 68.074219 33.6875 67.386719 33 C 66.75 32.367188 66.046875 32.09375 65.277344 32.1875 C 64.515625 32.273438 63.261719 32.875 61.511719 34 L 60.496094 34.640625 C 58.746094 35.789062 57.238281 36.367188 55.964844 36.375 C 54.683594 36.375 53.496094 35.828125 52.402344 34.734375 C 51.058594 33.390625 50.503906 31.886719 50.730469 30.21875 C 50.949219 28.542969 51.929688 26.835938 53.667969 25.09375 C 54.535156 24.230469 55.410156 23.480469 56.292969 22.84375 C 57.179688 22.210938 58.074219 21.699219 58.980469 21.3125 Z M 58.980469 21.3125 "/>
<path style=" stroke:none;fill-rule:nonzero;fill:rgb(12.156863%,47.058824%,70.588237%);fill-opacity:1;" d="M 96.054688 17.703125 L 96.054688 18.90625 L 92.398438 18.90625 L 92.398438 23.3125 L 96.054688 23.3125 L 96.054688 24.515625 L 87.117188 24.515625 L 87.117188 23.3125 L 91.382812 23.3125 L 91.382812 18.90625 L 87.117188 18.90625 L 87.117188 17.703125 Z M 96.054688 17.703125 "/>
<path style=" stroke:none;fill-rule:nonzero;fill:rgb(12.156863%,47.058824%,70.588237%);fill-opacity:1;" d="M 90.742188 32.390625 L 90.210938 32.390625 L 90.210938 27.328125 C 89.449219 27.378906 88.871094 27.609375 88.476562 28.015625 C 88.078125 28.421875 87.882812 28.988281 87.882812 29.71875 C 87.882812 30.144531 87.933594 30.554688 88.039062 30.953125 C 88.140625 31.347656 88.296875 31.742188 88.507812 32.140625 L 87.460938 32.140625 C 87.292969 31.742188 87.167969 31.335938 87.085938 30.921875 C 86.992188 30.503906 86.945312 30.082031 86.945312 29.65625 C 86.945312 28.582031 87.25 27.734375 87.867188 27.109375 C 88.492188 26.484375 89.335938 26.171875 90.398438 26.171875 C 91.5 26.171875 92.375 26.46875 93.023438 27.0625 C 93.667969 27.65625 93.992188 28.457031 93.992188 29.46875 C 93.992188 30.363281 93.699219 31.070312 93.117188 31.59375 C 92.53125 32.125 91.742188 32.390625 90.742188 32.390625 Z M 91.070312 31.296875 C 91.671875 31.285156 92.152344 31.113281 92.507812 30.78125 C 92.871094 30.457031 93.054688 30.023438 93.054688 29.484375 C 93.054688 28.859375 92.875 28.363281 92.523438 28 C 92.179688 27.632812 91.695312 27.421875 91.070312 27.359375 Z M 91.070312 31.296875 "/>
<path style=" stroke:none;fill-rule:nonzero;fill:rgb(12.156863%,47.058824%,70.588237%);fill-opacity:1;" d="M 96.429688 34.65625 L 96.429688 35.765625 L 87.117188 35.765625 L 87.117188 34.65625 Z M 96.429688 34.65625 "/>
<path style=" stroke:none;fill-rule:nonzero;fill:rgb(12.156863%,47.058824%,70.588237%);fill-opacity:1;" d="M 96.429688 37.65625 L 96.429688 38.765625 L 87.117188 38.765625 L 87.117188 37.65625 Z M 96.429688 37.65625 "/>
<path style=" stroke:none;fill-rule:nonzero;fill:rgb(12.156863%,47.058824%,70.588237%);fill-opacity:1;" d="M 93.054688 43.25 C 93.054688 42.664062 92.820312 42.203125 92.351562 41.859375 C 91.890625 41.515625 91.261719 41.34375 90.460938 41.34375 C 89.65625 41.34375 89.027344 41.507812 88.570312 41.84375 C 88.109375 42.1875 87.882812 42.65625 87.882812 43.25 C 87.882812 43.84375 88.109375 44.3125 88.570312 44.65625 C 89.039062 45 89.667969 45.171875 90.460938 45.171875 C 91.261719 45.171875 91.890625 45 92.351562 44.65625 C 92.820312 44.3125 93.054688 43.84375 93.054688 43.25 Z M 93.992188 43.25 C 93.992188 44.207031 93.679688 44.957031 93.054688 45.5 C 92.429688 46.050781 91.5625 46.328125 90.460938 46.328125 C 89.367188 46.328125 88.507812 46.050781 87.882812 45.5 C 87.257812 44.957031 86.945312 44.207031 86.945312 43.25 C 86.945312 42.289062 87.257812 41.535156 87.882812 40.984375 C 88.507812 40.441406 89.367188 40.171875 90.460938 40.171875 C 91.5625 40.171875 92.429688 40.441406 93.054688 40.984375 C 93.679688 41.535156 93.992188 42.289062 93.992188 43.25 Z M 93.992188 43.25 "/>
<path style=" stroke:none;fill-rule:nonzero;fill:rgb(12.156863%,47.058824%,70.588237%);fill-opacity:1;" d="M 88.632812 48.9375 L 88.632812 50.203125 L 87.601562 50.203125 L 85.695312 49.21875 L 85.695312 48.453125 L 87.601562 48.9375 Z M 88.632812 48.9375 "/>
<path style=" stroke:none;fill-rule:nonzero;fill:rgb(69.803923%,87.450981%,54.11765%);fill-opacity:1;" d="M 28.363281 74.203125 C 28.925781 74.054688 29.417969 74.03125 29.847656 74.125 C 30.285156 74.226562 30.691406 74.46875 31.066406 74.84375 C 31.554688 75.332031 31.761719 75.882812 31.691406 76.5 C 31.617188 77.113281 31.257812 77.742188 30.613281 78.390625 L 27.753906 81.25 L 26.957031 80.453125 L 29.800781 77.609375 C 30.257812 77.148438 30.511719 76.734375 30.566406 76.359375 C 30.617188 75.984375 30.480469 75.632812 30.160156 75.3125 C 29.753906 74.90625 29.300781 74.71875 28.800781 74.75 C 28.300781 74.78125 27.820312 75.023438 27.363281 75.484375 L 24.675781 78.171875 L 23.894531 77.390625 L 26.738281 74.546875 C 27.195312 74.085938 27.449219 73.671875 27.503906 73.296875 C 27.554688 72.921875 27.414062 72.570312 27.082031 72.234375 C 26.683594 71.839844 26.230469 71.65625 25.722656 71.6875 C 25.222656 71.710938 24.742188 71.949219 24.285156 72.40625 L 21.597656 75.09375 L 20.816406 74.3125 L 25.550781 69.578125 L 26.332031 70.359375 L 25.613281 71.078125 C 26.070312 70.976562 26.492188 70.980469 26.878906 71.09375 C 27.273438 71.199219 27.644531 71.421875 27.988281 71.765625 C 28.332031 72.109375 28.535156 72.496094 28.597656 72.921875 C 28.667969 73.339844 28.589844 73.765625 28.363281 74.203125 Z M 28.363281 74.203125 "/>
<path style=" stroke:none;fill-rule:nonzero;fill:rgb(69.803923%,87.450981%,54.11765%);fill-opacity:1;" d="M 30.882812 85.25 C 30.089844 85.601562 29.5 85.753906 29.117188 85.703125 C 28.742188 85.660156 28.378906 85.460938 28.023438 85.109375 L 27.414062 84.5 L 28.054688 83.859375 L 28.507812 84.3125 C 28.726562 84.53125 28.945312 84.644531 29.164062 84.65625 C 29.390625 84.675781 29.761719 84.566406 30.273438 84.328125 L 30.773438 84.109375 L 33.507812 77.53125 L 34.335938 78.359375 L 32.117188 83.546875 L 37.304688 81.328125 L 38.132812 82.15625 Z M 30.882812 85.25 "/>
<path style=" stroke:none;fill-rule:nonzero;fill:rgb(69.803923%,87.450981%,54.11765%);fill-opacity:1;" d="M 24.148438 52.925781 L 21.289062 55.785156 L 20.507812 55.003906 L 23.351562 52.160156 C 23.796875 51.710938 24.042969 51.289062 24.085938 50.894531 C 24.125 50.5 23.96875 50.125 23.617188 49.769531 C 23.199219 49.355469 22.734375 49.15625 22.226562 49.175781 C 21.714844 49.199219 21.230469 49.4375 20.773438 49.894531 L 18.085938 52.582031 L 17.304688 51.800781 L 22.039062 47.066406 L 22.820312 47.847656 L 22.101562 48.566406 C 22.578125 48.484375 23.011719 48.5 23.398438 48.613281 C 23.792969 48.71875 24.15625 48.9375 24.492188 49.269531 C 25.03125 49.8125 25.273438 50.394531 25.210938 51.019531 C 25.15625 51.632812 24.804688 52.269531 24.148438 52.925781 Z M 24.148438 52.925781 "/>
<path style=" stroke:none;fill-rule:nonzero;fill:rgb(69.803923%,87.450981%,54.11765%);fill-opacity:1;" d="M 27.542969 57.253906 C 26.917969 56.628906 26.40625 56.269531 26.011719 56.175781 C 25.625 56.074219 25.261719 56.191406 24.917969 56.535156 C 24.636719 56.816406 24.503906 57.128906 24.527344 57.472656 C 24.546875 57.816406 24.714844 58.144531 25.027344 58.457031 C 25.464844 58.894531 25.964844 59.085938 26.527344 59.035156 C 27.097656 58.992188 27.636719 58.722656 28.136719 58.222656 L 28.324219 58.035156 Z M 29.417969 58.503906 L 26.714844 61.207031 L 25.933594 60.425781 L 26.652344 59.707031 C 26.183594 59.820312 25.746094 59.808594 25.339844 59.675781 C 24.941406 59.550781 24.550781 59.292969 24.167969 58.910156 C 23.675781 58.417969 23.425781 57.894531 23.417969 57.332031 C 23.40625 56.769531 23.625 56.265625 24.074219 55.816406 C 24.605469 55.285156 25.1875 55.0625 25.824219 55.144531 C 26.457031 55.230469 27.128906 55.625 27.839844 56.332031 L 28.933594 57.425781 L 29.011719 57.347656 C 29.363281 56.992188 29.519531 56.597656 29.480469 56.160156 C 29.4375 55.722656 29.203125 55.292969 28.777344 54.863281 C 28.515625 54.605469 28.21875 54.378906 27.886719 54.191406 C 27.5625 53.996094 27.222656 53.84375 26.871094 53.738281 L 27.589844 53.019531 C 27.984375 53.1875 28.339844 53.378906 28.652344 53.597656 C 28.972656 53.808594 29.265625 54.042969 29.527344 54.300781 C 30.214844 54.988281 30.546875 55.683594 30.527344 56.378906 C 30.515625 57.066406 30.144531 57.773438 29.417969 58.503906 Z M 29.417969 58.503906 "/>
<path style=" stroke:none;fill-rule:nonzero;fill:rgb(69.803923%,87.450981%,54.11765%);fill-opacity:1;" d="M 36.167969 63.003906 C 36.730469 62.855469 37.222656 62.832031 37.652344 62.925781 C 38.089844 63.027344 38.496094 63.269531 38.871094 63.644531 C 39.359375 64.132812 39.566406 64.683594 39.496094 65.300781 C 39.421875 65.914062 39.0625 66.542969 38.417969 67.191406 L 35.558594 70.050781 L 34.761719 69.253906 L 37.605469 66.410156 C 38.0625 65.949219 38.316406 65.535156 38.371094 65.160156 C 38.421875 64.785156 38.285156 64.433594 37.964844 64.113281 C 37.558594 63.707031 37.105469 63.519531 36.605469 63.550781 C 36.105469 63.582031 35.625 63.824219 35.167969 64.285156 L 32.480469 66.972656 L 31.699219 66.191406 L 34.542969 63.347656 C 35 62.886719 35.253906 62.472656 35.308594 62.097656 C 35.359375 61.722656 35.21875 61.371094 34.886719 61.035156 C 34.488281 60.640625 34.035156 60.457031 33.527344 60.488281 C 33.027344 60.511719 32.546875 60.75 32.089844 61.207031 L 29.402344 63.894531 L 28.621094 63.113281 L 33.355469 58.378906 L 34.136719 59.160156 L 33.417969 59.878906 C 33.875 59.777344 34.296875 59.78125 34.683594 59.894531 C 35.078125 60 35.449219 60.222656 35.792969 60.566406 C 36.136719 60.910156 36.339844 61.296875 36.402344 61.722656 C 36.472656 62.140625 36.394531 62.566406 36.167969 63.003906 Z M 36.167969 63.003906 "/>
<path style=" stroke:none;fill-rule:nonzero;fill:rgb(69.803923%,87.450981%,54.11765%);fill-opacity:1;" d="M 43.761719 73.128906 L 43.386719 73.503906 L 39.808594 69.925781 C 39.296875 70.5 39.046875 71.066406 39.058594 71.628906 C 39.066406 72.191406 39.332031 72.730469 39.855469 73.253906 C 40.15625 73.554688 40.484375 73.808594 40.839844 74.019531 C 41.191406 74.226562 41.582031 74.398438 42.011719 74.535156 L 41.277344 75.269531 C 40.871094 75.113281 40.484375 74.914062 40.121094 74.675781 C 39.765625 74.445312 39.4375 74.179688 39.136719 73.878906 C 38.375 73.117188 37.988281 72.292969 37.980469 71.410156 C 37.980469 70.535156 38.355469 69.722656 39.105469 68.972656 C 39.886719 68.191406 40.714844 67.785156 41.589844 67.753906 C 42.472656 67.714844 43.277344 68.050781 43.996094 68.769531 C 44.621094 69.394531 44.910156 70.097656 44.871094 70.878906 C 44.839844 71.667969 44.46875 72.417969 43.761719 73.128906 Z M 43.214844 72.113281 C 43.640625 71.683594 43.863281 71.226562 43.886719 70.738281 C 43.90625 70.25 43.722656 69.8125 43.339844 69.425781 C 42.902344 68.988281 42.425781 68.765625 41.917969 68.753906 C 41.40625 68.746094 40.910156 68.9375 40.433594 69.332031 Z M 43.214844 72.113281 "/>
<path style=" stroke:none;fill-rule:nonzero;fill:rgb(69.803923%,87.450981%,54.11765%);fill-opacity:1;" d="M 70.453125 51.980469 L 66.125 53.964844 L 68.453125 56.292969 Z M 70.796875 50.667969 L 71.765625 51.636719 L 67.859375 60.355469 L 66.96875 59.464844 L 68.015625 57.261719 L 65.171875 54.417969 L 62.96875 55.464844 L 62.0625 54.558594 Z M 70.796875 50.667969 "/>
<path style=" stroke:none;fill-rule:nonzero;fill:rgb(69.803923%,87.450981%,54.11765%);fill-opacity:1;" d="M 75.050781 54.386719 L 75.847656 55.183594 L 69.269531 61.761719 L 68.472656 60.964844 Z M 75.050781 54.386719 "/>
<path style=" stroke:none;fill-rule:nonzero;fill:rgb(69.803923%,87.450981%,54.11765%);fill-opacity:1;" d="M 77.21875 64.585938 L 76.84375 64.960938 L 73.265625 61.382812 C 72.753906 61.957031 72.503906 62.523438 72.515625 63.085938 C 72.523438 63.648438 72.789062 64.1875 73.3125 64.710938 C 73.613281 65.011719 73.941406 65.265625 74.296875 65.476562 C 74.648438 65.683594 75.039062 65.855469 75.46875 65.992188 L 74.734375 66.726562 C 74.328125 66.570312 73.941406 66.371094 73.578125 66.132812 C 73.222656 65.902344 72.894531 65.636719 72.59375 65.335938 C 71.832031 64.574219 71.445312 63.75 71.4375 62.867188 C 71.4375 61.992188 71.8125 61.179688 72.5625 60.429688 C 73.34375 59.648438 74.171875 59.242188 75.046875 59.210938 C 75.929688 59.171875 76.734375 59.507812 77.453125 60.226562 C 78.078125 60.851562 78.367188 61.554688 78.328125 62.335938 C 78.296875 63.125 77.925781 63.875 77.21875 64.585938 Z M 76.671875 63.570312 C 77.097656 63.140625 77.320312 62.683594 77.34375 62.195312 C 77.363281 61.707031 77.179688 61.269531 76.796875 60.882812 C 76.359375 60.445312 75.882812 60.222656 75.375 60.210938 C 74.863281 60.203125 74.367188 60.394531 73.890625 60.789062 Z M 76.671875 63.570312 "/>
<path style=" stroke:none;fill-rule:nonzero;fill:rgb(69.803923%,87.450981%,54.11765%);fill-opacity:1;" d="M 84.230469 67.253906 L 80.214844 67.832031 L 79.574219 72.066406 L 78.667969 71.160156 L 79.136719 67.910156 L 75.902344 68.394531 L 74.980469 67.472656 L 79.308594 66.832031 L 79.871094 62.894531 L 80.792969 63.816406 L 80.355469 66.753906 L 83.308594 66.332031 Z M 84.230469 67.253906 "/>
<path style=" stroke:none;fill-rule:nonzero;fill:rgb(69.803923%,87.450981%,54.11765%);fill-opacity:1;" d="M 81.773438 72.109375 L 82.664062 73 L 81.929688 73.734375 L 79.898438 74.390625 L 79.351562 73.84375 L 81.039062 72.84375 Z M 81.773438 72.109375 "/>
<path style=" stroke:none;fill-rule:nonzero;fill:rgb(12.156863%,47.058824%,70.588237%);fill-opacity:1;" d="M 30.386719 38.414062 L 31.167969 39.195312 L 28.449219 43.882812 L 33.105469 41.132812 L 34.042969 42.070312 L 31.308594 46.742188 L 35.980469 44.007812 L 36.761719 44.789062 L 30.777344 48.273438 L 29.871094 47.367188 L 32.730469 42.445312 L 27.808594 45.304688 L 26.902344 44.398438 Z M 30.386719 38.414062 "/>
<path style=" stroke:none;fill-rule:nonzero;fill:rgb(12.156863%,47.058824%,70.588237%);fill-opacity:1;" d="M 39.992188 51.765625 L 37.132812 54.625 L 36.351562 53.84375 L 39.195312 51 C 39.640625 50.550781 39.886719 50.128906 39.929688 49.734375 C 39.96875 49.339844 39.8125 48.964844 39.460938 48.609375 C 39.042969 48.195312 38.578125 47.996094 38.070312 48.015625 C 37.558594 48.039062 37.074219 48.277344 36.617188 48.734375 L 33.929688 51.421875 L 33.148438 50.640625 L 39.726562 44.0625 L 40.507812 44.84375 L 37.945312 47.40625 C 38.421875 47.324219 38.855469 47.339844 39.242188 47.453125 C 39.636719 47.558594 40 47.777344 40.335938 48.109375 C 40.875 48.652344 41.117188 49.234375 41.054688 49.859375 C 41 50.472656 40.648438 51.109375 39.992188 51.765625 Z M 39.992188 51.765625 "/>
<path style=" stroke:none;fill-rule:nonzero;fill:rgb(12.156863%,47.058824%,70.588237%);fill-opacity:1;" d="M 43.382812 56.09375 C 42.757812 55.46875 42.246094 55.109375 41.851562 55.015625 C 41.464844 54.914062 41.101562 55.03125 40.757812 55.375 C 40.476562 55.65625 40.34375 55.96875 40.367188 56.3125 C 40.386719 56.65625 40.554688 56.984375 40.867188 57.296875 C 41.304688 57.734375 41.804688 57.925781 42.367188 57.875 C 42.9375 57.832031 43.476562 57.5625 43.976562 57.0625 L 44.164062 56.875 Z M 45.257812 57.34375 L 42.554688 60.046875 L 41.773438 59.265625 L 42.492188 58.546875 C 42.023438 58.660156 41.585938 58.648438 41.179688 58.515625 C 40.78125 58.390625 40.390625 58.132812 40.007812 57.75 C 39.515625 57.257812 39.265625 56.734375 39.257812 56.171875 C 39.246094 55.609375 39.464844 55.105469 39.914062 54.65625 C 40.445312 54.125 41.027344 53.902344 41.664062 53.984375 C 42.296875 54.070312 42.96875 54.464844 43.679688 55.171875 L 44.773438 56.265625 L 44.851562 56.1875 C 45.203125 55.832031 45.359375 55.4375 45.320312 55 C 45.277344 54.5625 45.042969 54.132812 44.617188 53.703125 C 44.355469 53.445312 44.058594 53.21875 43.726562 53.03125 C 43.402344 52.835938 43.0625 52.683594 42.710938 52.578125 L 43.429688 51.859375 C 43.824219 52.027344 44.179688 52.21875 44.492188 52.4375 C 44.8125 52.648438 45.105469 52.882812 45.367188 53.140625 C 46.054688 53.828125 46.386719 54.523438 46.367188 55.21875 C 46.355469 55.90625 45.984375 56.613281 45.257812 57.34375 Z M 45.257812 57.34375 "/>
<path style=" stroke:none;fill-rule:nonzero;fill:rgb(12.156863%,47.058824%,70.588237%);fill-opacity:1;" d="M 51.367188 56.671875 L 50.007812 58.03125 L 51.601562 59.625 L 50.992188 60.234375 L 49.398438 58.640625 L 46.835938 61.203125 C 46.449219 61.585938 46.25 61.882812 46.242188 62.09375 C 46.242188 62.3125 46.402344 62.582031 46.726562 62.90625 L 47.523438 63.703125 L 46.867188 64.359375 L 46.070312 63.5625 C 45.464844 62.957031 45.164062 62.429688 45.164062 61.984375 C 45.164062 61.535156 45.460938 61.015625 46.054688 60.421875 L 48.617188 57.859375 L 48.039062 57.28125 L 48.648438 56.671875 L 49.226562 57.25 L 50.585938 55.890625 Z M 51.367188 56.671875 "/>
<path style=" stroke:none;fill-rule:nonzero;fill:rgb(12.156863%,47.058824%,70.588237%);fill-opacity:1;" d="M 75.492188 16.953125 C 74.691406 16.640625 74.171875 16.332031 73.929688 16.03125 C 73.691406 15.738281 73.570312 15.34375 73.570312 14.84375 L 73.570312 13.96875 L 74.492188 13.96875 L 74.492188 14.609375 C 74.492188 14.921875 74.566406 15.160156 74.710938 15.328125 C 74.847656 15.492188 75.1875 15.675781 75.726562 15.875 L 76.226562 16.078125 L 82.820312 13.359375 L 82.820312 14.53125 L 77.585938 16.625 L 82.820312 18.71875 L 82.820312 19.890625 Z M 75.492188 16.953125 "/>
<path style=" stroke:none;fill-rule:nonzero;fill:rgb(12.156863%,47.058824%,70.588237%);fill-opacity:1;" d="M 82.054688 23.75 C 82.054688 23.164062 81.820312 22.703125 81.351562 22.359375 C 80.890625 22.015625 80.261719 21.84375 79.460938 21.84375 C 78.65625 21.84375 78.027344 22.007812 77.570312 22.34375 C 77.109375 22.6875 76.882812 23.15625 76.882812 23.75 C 76.882812 24.34375 77.109375 24.8125 77.570312 25.15625 C 78.039062 25.5 78.667969 25.671875 79.460938 25.671875 C 80.261719 25.671875 80.890625 25.5 81.351562 25.15625 C 81.820312 24.8125 82.054688 24.34375 82.054688 23.75 Z M 82.992188 23.75 C 82.992188 24.707031 82.679688 25.457031 82.054688 26 C 81.429688 26.550781 80.5625 26.828125 79.460938 26.828125 C 78.367188 26.828125 77.507812 26.550781 76.882812 26 C 76.257812 25.457031 75.945312 24.707031 75.945312 23.75 C 75.945312 22.789062 76.257812 22.035156 76.882812 21.484375 C 77.507812 20.941406 78.367188 20.671875 79.460938 20.671875 C 80.5625 20.671875 81.429688 20.941406 82.054688 21.484375 C 82.679688 22.035156 82.992188 22.789062 82.992188 23.75 Z M 82.992188 23.75 "/>
<path style=" stroke:none;fill-rule:nonzero;fill:rgb(12.156863%,47.058824%,70.588237%);fill-opacity:1;" d="M 78.757812 29.046875 L 82.820312 29.046875 L 82.820312 30.140625 L 78.804688 30.140625 C 78.167969 30.140625 77.6875 30.265625 77.367188 30.515625 C 77.054688 30.765625 76.898438 31.132812 76.898438 31.625 C 76.898438 32.21875 77.085938 32.6875 77.460938 33.03125 C 77.84375 33.382812 78.367188 33.5625 79.023438 33.5625 L 82.820312 33.5625 L 82.820312 34.65625 L 76.117188 34.65625 L 76.117188 33.5625 L 77.148438 33.5625 C 76.742188 33.289062 76.4375 32.976562 76.242188 32.625 C 76.046875 32.269531 75.945312 31.859375 75.945312 31.390625 C 75.945312 30.617188 76.183594 30.035156 76.664062 29.640625 C 77.140625 29.242188 77.839844 29.046875 78.757812 29.046875 Z M 82.992188 31.8125 Z M 82.992188 31.8125 "/>
<path style=" stroke:none;fill-rule:nonzero;fill:rgb(12.156863%,47.058824%,70.588237%);fill-opacity:1;" d="M 81.789062 41.046875 C 81.859375 40.921875 81.914062 40.785156 81.945312 40.640625 C 81.984375 40.492188 82.007812 40.332031 82.007812 40.15625 C 82.007812 39.53125 81.804688 39.050781 81.398438 38.71875 C 80.992188 38.382812 80.40625 38.21875 79.648438 38.21875 L 76.117188 38.21875 L 76.117188 37.109375 L 82.820312 37.109375 L 82.820312 38.21875 L 81.789062 38.21875 C 82.195312 38.445312 82.496094 38.75 82.695312 39.125 C 82.890625 39.5 82.992188 39.953125 82.992188 40.484375 C 82.992188 40.554688 82.984375 40.640625 82.976562 40.734375 C 82.964844 40.828125 82.949219 40.925781 82.929688 41.03125 Z M 81.789062 41.046875 "/>
<path style=" stroke:none;fill-rule:nonzero;fill:rgb(69.803923%,87.450981%,54.11765%);fill-opacity:1;" d="M 33.449219 99.324219 L 36.308594 102.183594 L 35.527344 102.964844 L 32.683594 100.121094 C 32.234375 99.675781 31.8125 99.429688 31.417969 99.386719 C 31.023438 99.347656 30.648438 99.503906 30.292969 99.855469 C 29.878906 100.273438 29.679688 100.738281 29.699219 101.246094 C 29.722656 101.757812 29.960938 102.242188 30.417969 102.699219 L 33.105469 105.386719 L 32.324219 106.167969 L 27.589844 101.433594 L 28.371094 100.652344 L 29.089844 101.371094 C 29.007812 100.894531 29.023438 100.460938 29.136719 100.074219 C 29.242188 99.679688 29.460938 99.316406 29.792969 98.980469 C 30.335938 98.441406 30.917969 98.199219 31.542969 98.261719 C 32.15625 98.316406 32.792969 98.667969 33.449219 99.324219 Z M 33.449219 99.324219 "/>
<path style=" stroke:none;fill-rule:nonzero;fill:rgb(69.803923%,87.450981%,54.11765%);fill-opacity:1;" d="M 37.777344 95.929688 C 37.152344 96.554688 36.792969 97.066406 36.699219 97.460938 C 36.597656 97.847656 36.714844 98.210938 37.058594 98.554688 C 37.339844 98.835938 37.652344 98.96875 37.996094 98.945312 C 38.339844 98.925781 38.667969 98.757812 38.980469 98.445312 C 39.417969 98.007812 39.609375 97.507812 39.558594 96.945312 C 39.515625 96.375 39.246094 95.835938 38.746094 95.335938 L 38.558594 95.148438 Z M 39.027344 94.054688 L 41.730469 96.757812 L 40.949219 97.539062 L 40.230469 96.820312 C 40.34375 97.289062 40.332031 97.726562 40.199219 98.132812 C 40.074219 98.53125 39.816406 98.921875 39.433594 99.304688 C 38.941406 99.796875 38.417969 100.046875 37.855469 100.054688 C 37.292969 100.066406 36.789062 99.847656 36.339844 99.398438 C 35.808594 98.867188 35.585938 98.285156 35.667969 97.648438 C 35.753906 97.015625 36.148438 96.34375 36.855469 95.632812 L 37.949219 94.539062 L 37.871094 94.460938 C 37.515625 94.109375 37.121094 93.953125 36.683594 93.992188 C 36.246094 94.035156 35.816406 94.269531 35.386719 94.695312 C 35.128906 94.957031 34.902344 95.253906 34.714844 95.585938 C 34.519531 95.910156 34.367188 96.25 34.261719 96.601562 L 33.542969 95.882812 C 33.710938 95.488281 33.902344 95.132812 34.121094 94.820312 C 34.332031 94.5 34.566406 94.207031 34.824219 93.945312 C 35.511719 93.257812 36.207031 92.925781 36.902344 92.945312 C 37.589844 92.957031 38.296875 93.328125 39.027344 94.054688 Z M 39.027344 94.054688 "/>
<path style=" stroke:none;fill-rule:nonzero;fill:rgb(69.803923%,87.450981%,54.11765%);fill-opacity:1;" d="M 43.527344 87.304688 C 43.378906 86.742188 43.355469 86.25 43.449219 85.820312 C 43.550781 85.382812 43.792969 84.976562 44.167969 84.601562 C 44.65625 84.113281 45.207031 83.90625 45.824219 83.976562 C 46.4375 84.050781 47.066406 84.410156 47.714844 85.054688 L 50.574219 87.914062 L 49.777344 88.710938 L 46.933594 85.867188 C 46.472656 85.410156 46.058594 85.15625 45.683594 85.101562 C 45.308594 85.050781 44.957031 85.1875 44.636719 85.507812 C 44.230469 85.914062 44.042969 86.367188 44.074219 86.867188 C 44.105469 87.367188 44.347656 87.847656 44.808594 88.304688 L 47.496094 90.992188 L 46.714844 91.773438 L 43.871094 88.929688 C 43.410156 88.472656 42.996094 88.21875 42.621094 88.164062 C 42.246094 88.113281 41.894531 88.253906 41.558594 88.585938 C 41.164062 88.984375 40.980469 89.4375 41.011719 89.945312 C 41.035156 90.445312 41.273438 90.925781 41.730469 91.382812 L 44.417969 94.070312 L 43.636719 94.851562 L 38.902344 90.117188 L 39.683594 89.335938 L 40.402344 90.054688 C 40.300781 89.597656 40.304688 89.175781 40.417969 88.789062 C 40.523438 88.394531 40.746094 88.023438 41.089844 87.679688 C 41.433594 87.335938 41.820312 87.132812 42.246094 87.070312 C 42.664062 87 43.089844 87.078125 43.527344 87.304688 Z M 43.527344 87.304688 "/>
<path style=" stroke:none;fill-rule:nonzero;fill:rgb(69.803923%,87.450981%,54.11765%);fill-opacity:1;" d="M 53.652344 79.710938 L 54.027344 80.085938 L 50.449219 83.664062 C 51.023438 84.175781 51.589844 84.425781 52.152344 84.414062 C 52.714844 84.40625 53.253906 84.140625 53.777344 83.617188 C 54.078125 83.316406 54.332031 82.988281 54.542969 82.632812 C 54.75 82.28125 54.921875 81.890625 55.058594 81.460938 L 55.792969 82.195312 C 55.636719 82.601562 55.4375 82.988281 55.199219 83.351562 C 54.96875 83.707031 54.703125 84.035156 54.402344 84.335938 C 53.640625 85.097656 52.816406 85.484375 51.933594 85.492188 C 51.058594 85.492188 50.246094 85.117188 49.496094 84.367188 C 48.714844 83.585938 48.308594 82.757812 48.277344 81.882812 C 48.238281 81 48.574219 80.195312 49.292969 79.476562 C 49.917969 78.851562 50.621094 78.5625 51.402344 78.601562 C 52.191406 78.632812 52.941406 79.003906 53.652344 79.710938 Z M 52.636719 80.257812 C 52.207031 79.832031 51.75 79.609375 51.261719 79.585938 C 50.773438 79.566406 50.335938 79.75 49.949219 80.132812 C 49.511719 80.570312 49.289062 81.046875 49.277344 81.554688 C 49.269531 82.066406 49.460938 82.5625 49.855469 83.039062 Z M 52.636719 80.257812 "/>
<path style=" stroke:none;fill-rule:nonzero;fill:rgb(69.803923%,87.450981%,54.11765%);fill-opacity:1;" d="M 57.574219 78.757812 L 58.433594 77.898438 L 59.511719 78.976562 L 58.652344 79.835938 Z M 57.777344 77.304688 L 56.964844 78.117188 L 56.308594 77.460938 C 56.039062 77.191406 55.851562 76.921875 55.746094 76.648438 C 55.644531 76.378906 55.597656 76 55.605469 75.507812 L 55.621094 74.742188 C 55.621094 74.429688 55.589844 74.171875 55.527344 73.960938 C 55.464844 73.753906 55.371094 73.585938 55.246094 73.460938 C 54.988281 73.203125 54.683594 73.085938 54.339844 73.117188 C 53.996094 73.148438 53.675781 73.316406 53.371094 73.617188 C 53.152344 73.835938 52.964844 74.125 52.808594 74.476562 C 52.652344 74.832031 52.539062 75.242188 52.464844 75.710938 L 51.667969 74.914062 C 51.761719 74.488281 51.910156 74.101562 52.105469 73.757812 C 52.292969 73.40625 52.539062 73.078125 52.839844 72.773438 C 53.351562 72.265625 53.902344 71.988281 54.496094 71.945312 C 55.089844 71.90625 55.613281 72.109375 56.058594 72.554688 C 56.269531 72.765625 56.417969 73.019531 56.511719 73.320312 C 56.597656 73.613281 56.636719 74.007812 56.636719 74.507812 L 56.621094 75.242188 C 56.621094 75.515625 56.632812 75.710938 56.652344 75.835938 C 56.675781 75.960938 56.710938 76.070312 56.761719 76.164062 C 56.792969 76.238281 56.851562 76.328125 56.933594 76.429688 C 57.003906 76.523438 57.113281 76.644531 57.261719 76.789062 Z M 57.777344 77.304688 "/>
<path style=" stroke:none;fill-rule:nonzero;fill:rgb(12.156863%,47.058824%,70.588237%);fill-opacity:1;" d="M 61.863281 60.734375 L 62.722656 61.59375 L 60.144531 64.171875 L 63.253906 67.28125 L 65.832031 64.703125 L 66.691406 65.5625 L 60.378906 71.875 L 59.519531 71.015625 L 62.535156 68 L 59.425781 64.890625 L 56.410156 67.90625 L 55.550781 67.046875 Z M 61.863281 60.734375 "/>
<path style=" stroke:none;fill-rule:nonzero;fill:rgb(12.156863%,47.058824%,70.588237%);fill-opacity:1;" d="M 67.933594 71.019531 C 67.515625 70.605469 67.019531 70.4375 66.449219 70.519531 C 65.875 70.605469 65.300781 70.933594 64.730469 71.503906 C 64.167969 72.066406 63.84375 72.628906 63.761719 73.191406 C 63.675781 73.753906 63.847656 74.246094 64.277344 74.675781 C 64.691406 75.089844 65.1875 75.257812 65.761719 75.175781 C 66.332031 75.089844 66.894531 74.773438 67.449219 74.222656 C 68.019531 73.648438 68.347656 73.074219 68.433594 72.503906 C 68.515625 71.933594 68.347656 71.4375 67.933594 71.019531 Z M 68.589844 70.363281 C 69.265625 71.042969 69.574219 71.792969 69.511719 72.613281 C 69.457031 73.445312 69.042969 74.253906 68.261719 75.035156 C 67.488281 75.804688 66.6875 76.214844 65.855469 76.269531 C 65.03125 76.332031 64.28125 76.023438 63.605469 75.347656 C 62.925781 74.667969 62.613281 73.914062 62.667969 73.082031 C 62.71875 72.25 63.128906 71.449219 63.902344 70.675781 C 64.683594 69.894531 65.488281 69.480469 66.324219 69.425781 C 67.15625 69.375 67.910156 69.6875 68.589844 70.363281 Z M 68.589844 70.363281 "/>
<path style=" stroke:none;fill-rule:nonzero;fill:rgb(12.156863%,47.058824%,70.588237%);fill-opacity:1;" d="M 71.824219 73.847656 L 72.605469 74.628906 L 69.886719 79.316406 L 74.542969 76.566406 L 75.480469 77.503906 L 72.746094 82.175781 L 77.417969 79.441406 L 78.199219 80.222656 L 72.214844 83.707031 L 71.308594 82.800781 L 74.167969 77.878906 L 69.246094 80.738281 L 68.339844 79.832031 Z M 71.824219 73.847656 "/>
<path style=" stroke:none;fill-rule:nonzero;fill:rgb(69.803923%,87.450981%,54.11765%);fill-opacity:1;" d="M 14.492188 62.703125 C 14.492188 61.816406 14.386719 61.203125 14.179688 60.859375 C 13.980469 60.515625 13.636719 60.34375 13.148438 60.34375 C 12.75 60.34375 12.4375 60.46875 12.210938 60.71875 C 11.980469 60.976562 11.867188 61.332031 11.867188 61.78125 C 11.867188 62.382812 12.078125 62.867188 12.507812 63.234375 C 12.945312 63.609375 13.523438 63.796875 14.242188 63.796875 L 14.492188 63.796875 Z M 14.945312 64.90625 L 11.117188 64.90625 L 11.117188 63.796875 L 12.132812 63.796875 C 11.726562 63.546875 11.421875 63.234375 11.226562 62.859375 C 11.039062 62.484375 10.945312 62.023438 10.945312 61.484375 C 10.945312 60.796875 11.136719 60.25 11.523438 59.84375 C 11.90625 59.4375 12.421875 59.234375 13.070312 59.234375 C 13.820312 59.234375 14.386719 59.484375 14.773438 59.984375 C 15.15625 60.492188 15.351562 61.25 15.351562 62.25 L 15.351562 63.796875 L 15.460938 63.796875 C 15.96875 63.796875 16.359375 63.628906 16.632812 63.296875 C 16.914062 62.960938 17.054688 62.492188 17.054688 61.890625 C 17.054688 61.515625 17.007812 61.144531 16.914062 60.78125 C 16.820312 60.414062 16.683594 60.066406 16.507812 59.734375 L 17.523438 59.734375 C 17.679688 60.128906 17.792969 60.515625 17.867188 60.890625 C 17.949219 61.273438 17.992188 61.648438 17.992188 62.015625 C 17.992188 62.984375 17.734375 63.707031 17.226562 64.1875 C 16.726562 64.664062 15.964844 64.90625 14.945312 64.90625 Z M 14.945312 64.90625 "/>
<path style=" stroke:none;fill-rule:nonzero;fill:rgb(69.803923%,87.450981%,54.11765%);fill-opacity:1;" d="M 16.789062 71.546875 C 16.859375 71.421875 16.914062 71.285156 16.945312 71.140625 C 16.984375 70.992188 17.007812 70.832031 17.007812 70.65625 C 17.007812 70.03125 16.804688 69.550781 16.398438 69.21875 C 15.992188 68.882812 15.40625 68.71875 14.648438 68.71875 L 11.117188 68.71875 L 11.117188 67.609375 L 17.820312 67.609375 L 17.820312 68.71875 L 16.789062 68.71875 C 17.195312 68.945312 17.496094 69.25 17.695312 69.625 C 17.890625 70 17.992188 70.453125 17.992188 70.984375 C 17.992188 71.054688 17.984375 71.140625 17.976562 71.234375 C 17.964844 71.328125 17.949219 71.425781 17.929688 71.53125 Z M 16.789062 71.546875 "/>
<path style=" stroke:none;fill-rule:nonzero;fill:rgb(69.803923%,87.450981%,54.11765%);fill-opacity:1;" d="M 14.742188 78.390625 L 14.210938 78.390625 L 14.210938 73.328125 C 13.449219 73.378906 12.871094 73.609375 12.476562 74.015625 C 12.078125 74.421875 11.882812 74.988281 11.882812 75.71875 C 11.882812 76.144531 11.933594 76.554688 12.039062 76.953125 C 12.140625 77.347656 12.296875 77.742188 12.507812 78.140625 L 11.460938 78.140625 C 11.292969 77.742188 11.167969 77.335938 11.085938 76.921875 C 10.992188 76.503906 10.945312 76.082031 10.945312 75.65625 C 10.945312 74.582031 11.25 73.734375 11.867188 73.109375 C 12.492188 72.484375 13.335938 72.171875 14.398438 72.171875 C 15.5 72.171875 16.375 72.46875 17.023438 73.0625 C 17.667969 73.65625 17.992188 74.457031 17.992188 75.46875 C 17.992188 76.363281 17.699219 77.070312 17.117188 77.59375 C 16.53125 78.125 15.742188 78.390625 14.742188 78.390625 Z M 15.070312 77.296875 C 15.671875 77.285156 16.152344 77.113281 16.507812 76.78125 C 16.871094 76.457031 17.054688 76.023438 17.054688 75.484375 C 17.054688 74.859375 16.875 74.363281 16.523438 74 C 16.179688 73.632812 15.695312 73.421875 15.070312 73.359375 Z M 15.070312 77.296875 "/>
<path style=" stroke:none;fill-rule:nonzero;fill:rgb(12.156863%,47.058824%,70.588237%);fill-opacity:1;" d="M 73.492188 89.453125 C 72.691406 89.140625 72.171875 88.832031 71.929688 88.53125 C 71.691406 88.238281 71.570312 87.84375 71.570312 87.34375 L 71.570312 86.46875 L 72.492188 86.46875 L 72.492188 87.109375 C 72.492188 87.421875 72.566406 87.660156 72.710938 87.828125 C 72.847656 87.992188 73.1875 88.175781 73.726562 88.375 L 74.226562 88.578125 L 80.820312 85.859375 L 80.820312 87.03125 L 75.585938 89.125 L 80.820312 91.21875 L 80.820312 92.390625 Z M 73.492188 89.453125 "/>
<path style=" stroke:none;fill-rule:nonzero;fill:rgb(12.156863%,47.058824%,70.588237%);fill-opacity:1;" d="M 80.054688 96.25 C 80.054688 95.664062 79.820312 95.203125 79.351562 94.859375 C 78.890625 94.515625 78.261719 94.34375 77.460938 94.34375 C 76.65625 94.34375 76.027344 94.507812 75.570312 94.84375 C 75.109375 95.1875 74.882812 95.65625 74.882812 96.25 C 74.882812 96.84375 75.109375 97.3125 75.570312 97.65625 C 76.039062 98 76.667969 98.171875 77.460938 98.171875 C 78.261719 98.171875 78.890625 98 79.351562 97.65625 C 79.820312 97.3125 80.054688 96.84375 80.054688 96.25 Z M 80.992188 96.25 C 80.992188 97.207031 80.679688 97.957031 80.054688 98.5 C 79.429688 99.050781 78.5625 99.328125 77.460938 99.328125 C 76.367188 99.328125 75.507812 99.050781 74.882812 98.5 C 74.257812 97.957031 73.945312 97.207031 73.945312 96.25 C 73.945312 95.289062 74.257812 94.535156 74.882812 93.984375 C 75.507812 93.441406 76.367188 93.171875 77.460938 93.171875 C 78.5625 93.171875 79.429688 93.441406 80.054688 93.984375 C 80.679688 94.535156 80.992188 95.289062 80.992188 96.25 Z M 80.992188 96.25 "/>
<path style=" stroke:none;fill-rule:nonzero;fill:rgb(12.156863%,47.058824%,70.588237%);fill-opacity:1;" d="M 76.757812 101.546875 L 80.820312 101.546875 L 80.820312 102.640625 L 76.804688 102.640625 C 76.167969 102.640625 75.6875 102.765625 75.367188 103.015625 C 75.054688 103.265625 74.898438 103.632812 74.898438 104.125 C 74.898438 104.71875 75.085938 105.1875 75.460938 105.53125 C 75.84375 105.882812 76.367188 106.0625 77.023438 106.0625 L 80.820312 106.0625 L 80.820312 107.15625 L 74.117188 107.15625 L 74.117188 106.0625 L 75.148438 106.0625 C 74.742188 105.789062 74.4375 105.476562 74.242188 105.125 C 74.046875 104.769531 73.945312 104.359375 73.945312 103.890625 C 73.945312 103.117188 74.183594 102.535156 74.664062 102.140625 C 75.140625 101.742188 75.839844 101.546875 76.757812 101.546875 Z M 80.992188 104.3125 Z M 80.992188 104.3125 "/>
<path style=" stroke:none;fill-rule:nonzero;fill:rgb(69.803923%,87.450981%,54.11765%);fill-opacity:1;" d="M 95.726562 56.75 L 93.820312 56.75 L 93.820312 59.015625 L 92.960938 59.015625 L 92.960938 56.75 L 89.320312 56.75 C 88.777344 56.75 88.429688 56.820312 88.273438 56.96875 C 88.117188 57.113281 88.039062 57.421875 88.039062 57.890625 L 88.039062 59.015625 L 87.117188 59.015625 L 87.117188 57.890625 C 87.117188 57.035156 87.273438 56.445312 87.585938 56.125 C 87.90625 55.800781 88.484375 55.640625 89.320312 55.640625 L 92.960938 55.640625 L 92.960938 54.828125 L 93.820312 54.828125 L 93.820312 55.640625 L 95.726562 55.640625 Z M 95.726562 56.75 "/>
<path style=" stroke:none;fill-rule:nonzero;fill:rgb(69.803923%,87.450981%,54.11765%);fill-opacity:1;" d="M 93.054688 63.25 C 93.054688 62.664062 92.820312 62.203125 92.351562 61.859375 C 91.890625 61.515625 91.261719 61.34375 90.460938 61.34375 C 89.65625 61.34375 89.027344 61.507812 88.570312 61.84375 C 88.109375 62.1875 87.882812 62.65625 87.882812 63.25 C 87.882812 63.84375 88.109375 64.3125 88.570312 64.65625 C 89.039062 65 89.667969 65.171875 90.460938 65.171875 C 91.261719 65.171875 91.890625 65 92.351562 64.65625 C 92.820312 64.3125 93.054688 63.84375 93.054688 63.25 Z M 93.992188 63.25 C 93.992188 64.207031 93.679688 64.957031 93.054688 65.5 C 92.429688 66.050781 91.5625 66.328125 90.460938 66.328125 C 89.367188 66.328125 88.507812 66.050781 87.882812 65.5 C 87.257812 64.957031 86.945312 64.207031 86.945312 63.25 C 86.945312 62.289062 87.257812 61.535156 87.882812 60.984375 C 88.507812 60.441406 89.367188 60.171875 90.460938 60.171875 C 91.5625 60.171875 92.429688 60.441406 93.054688 60.984375 C 93.679688 61.535156 93.992188 62.289062 93.992188 63.25 Z M 93.992188 63.25 "/>
<path style=" stroke:none;fill-rule:nonzero;fill:rgb(69.803923%,87.450981%,54.11765%);fill-opacity:1;" d="M 92.804688 73.0625 L 96.429688 73.0625 L 96.429688 74.171875 L 87.117188 74.171875 L 87.117188 73.0625 L 88.117188 73.0625 C 87.71875 72.832031 87.421875 72.539062 87.226562 72.1875 C 87.039062 71.832031 86.945312 71.410156 86.945312 70.921875 C 86.945312 70.109375 87.265625 69.445312 87.914062 68.9375 C 88.558594 68.425781 89.40625 68.171875 90.460938 68.171875 C 91.511719 68.171875 92.359375 68.425781 93.007812 68.9375 C 93.664062 69.445312 93.992188 70.109375 93.992188 70.921875 C 93.992188 71.410156 93.890625 71.832031 93.695312 72.1875 C 93.496094 72.539062 93.199219 72.832031 92.804688 73.0625 Z M 90.460938 69.3125 C 89.648438 69.3125 89.011719 69.476562 88.554688 69.8125 C 88.09375 70.144531 87.867188 70.601562 87.867188 71.1875 C 87.867188 71.769531 88.09375 72.226562 88.554688 72.5625 C 89.011719 72.894531 89.648438 73.0625 90.460938 73.0625 C 91.273438 73.0625 91.90625 72.894531 92.367188 72.5625 C 92.835938 72.226562 93.070312 71.769531 93.070312 71.1875 C 93.070312 70.601562 92.835938 70.144531 92.367188 69.8125 C 91.90625 69.476562 91.273438 69.3125 90.460938 69.3125 Z M 90.460938 69.3125 "/>
<path style=" stroke:none;fill-rule:nonzero;fill:rgb(69.803923%,87.450981%,54.11765%);fill-opacity:1;" d="M 90.492188 79.703125 C 90.492188 78.816406 90.386719 78.203125 90.179688 77.859375 C 89.980469 77.515625 89.636719 77.34375 89.148438 77.34375 C 88.75 77.34375 88.4375 77.46875 88.210938 77.71875 C 87.980469 77.976562 87.867188 78.332031 87.867188 78.78125 C 87.867188 79.382812 88.078125 79.867188 88.507812 80.234375 C 88.945312 80.609375 89.523438 80.796875 90.242188 80.796875 L 90.492188 80.796875 Z M 90.945312 81.90625 L 87.117188 81.90625 L 87.117188 80.796875 L 88.132812 80.796875 C 87.726562 80.546875 87.421875 80.234375 87.226562 79.859375 C 87.039062 79.484375 86.945312 79.023438 86.945312 78.484375 C 86.945312 77.796875 87.136719 77.25 87.523438 76.84375 C 87.90625 76.4375 88.421875 76.234375 89.070312 76.234375 C 89.820312 76.234375 90.386719 76.484375 90.773438 76.984375 C 91.15625 77.492188 91.351562 78.25 91.351562 79.25 L 91.351562 80.796875 L 91.460938 80.796875 C 91.96875 80.796875 92.359375 80.628906 92.632812 80.296875 C 92.914062 79.960938 93.054688 79.492188 93.054688 78.890625 C 93.054688 78.515625 93.007812 78.144531 92.914062 77.78125 C 92.820312 77.414062 92.683594 77.066406 92.507812 76.734375 L 93.523438 76.734375 C 93.679688 77.128906 93.792969 77.515625 93.867188 77.890625 C 93.949219 78.273438 93.992188 78.648438 93.992188 79.015625 C 93.992188 79.984375 93.734375 80.707031 93.226562 81.1875 C 92.726562 81.664062 91.964844 81.90625 90.945312 81.90625 Z M 90.945312 81.90625 "/>
<path style=" stroke:none;fill-rule:nonzero;fill:rgb(69.803923%,87.450981%,54.11765%);fill-opacity:1;" d="M 86.492188 87.453125 C 85.691406 87.140625 85.171875 86.832031 84.929688 86.53125 C 84.691406 86.238281 84.570312 85.84375 84.570312 85.34375 L 84.570312 84.46875 L 85.492188 84.46875 L 85.492188 85.109375 C 85.492188 85.421875 85.566406 85.660156 85.710938 85.828125 C 85.847656 85.992188 86.1875 86.175781 86.726562 86.375 L 87.226562 86.578125 L 93.820312 83.859375 L 93.820312 85.03125 L 88.585938 87.125 L 93.820312 89.21875 L 93.820312 90.390625 Z M 86.492188 87.453125 "/>
<path style=" stroke:none;fill-rule:nonzero;fill:rgb(69.803923%,87.450981%,54.11765%);fill-opacity:1;" d="M 88.632812 92.84375 L 88.632812 94.0625 L 87.117188 94.0625 L 87.117188 92.84375 Z M 89.523438 94.015625 L 89.523438 92.875 L 90.445312 92.875 C 90.839844 92.875 91.167969 92.929688 91.429688 93.046875 C 91.6875 93.160156 91.992188 93.394531 92.335938 93.75 L 92.867188 94.296875 C 93.085938 94.515625 93.289062 94.675781 93.476562 94.78125 C 93.664062 94.882812 93.851562 94.9375 94.039062 94.9375 C 94.402344 94.9375 94.695312 94.804688 94.914062 94.546875 C 95.132812 94.285156 95.242188 93.9375 95.242188 93.5 C 95.242188 93.1875 95.167969 92.851562 95.023438 92.5 C 94.886719 92.144531 94.683594 91.769531 94.414062 91.375 L 95.539062 91.375 C 95.765625 91.75 95.9375 92.128906 96.054688 92.515625 C 96.167969 92.898438 96.226562 93.300781 96.226562 93.71875 C 96.226562 94.445312 96.027344 95.035156 95.632812 95.484375 C 95.246094 95.929688 94.734375 96.15625 94.101562 96.15625 C 93.796875 96.15625 93.511719 96.082031 93.242188 95.9375 C 92.96875 95.789062 92.664062 95.539062 92.320312 95.1875 L 91.804688 94.65625 C 91.617188 94.46875 91.464844 94.332031 91.351562 94.25 C 91.246094 94.175781 91.148438 94.125 91.054688 94.09375 C 90.96875 94.070312 90.867188 94.050781 90.742188 94.03125 C 90.625 94.019531 90.464844 94.015625 90.257812 94.015625 Z M 89.523438 94.015625 "/>
<path style=" stroke:none;fill-rule:nonzero;fill:rgb(12.156863%,47.058824%,70.588237%);fill-opacity:1;" d="M 58.597656 14.273438 L 59.457031 13.414062 L 65.769531 19.726562 L 64.910156 20.585938 Z M 58.597656 14.273438 "/>
<path style=" stroke:none;fill-rule:nonzero;fill:rgb(12.156863%,47.058824%,70.588237%);fill-opacity:1;" d="M 62.394531 10.910156 L 63.753906 12.269531 L 65.347656 10.675781 L 65.957031 11.285156 L 64.363281 12.878906 L 66.925781 15.441406 C 67.308594 15.828125 67.605469 16.027344 67.816406 16.035156 C 68.035156 16.035156 68.304688 15.875 68.628906 15.550781 L 69.425781 14.753906 L 70.082031 15.410156 L 69.285156 16.207031 C 68.679688 16.8125 68.152344 17.113281 67.707031 17.113281 C 67.257812 17.113281 66.738281 16.816406 66.144531 16.222656 L 63.582031 13.660156 L 63.003906 14.238281 L 62.394531 13.628906 L 62.972656 13.050781 L 61.613281 11.691406 Z M 62.394531 10.910156 "/>
<path style=" stroke:none;fill-rule:nonzero;fill:rgb(12.156863%,47.058824%,70.588237%);fill-opacity:1;" d="M 46.355469 106.421875 C 46.929688 106.996094 47.488281 107.328125 48.042969 107.421875 C 48.605469 107.507812 49.09375 107.339844 49.511719 106.921875 C 49.917969 106.515625 50.078125 106.03125 49.996094 105.46875 C 49.910156 104.90625 49.582031 104.339844 49.011719 103.765625 C 48.4375 103.195312 47.871094 102.867188 47.308594 102.78125 C 46.738281 102.6875 46.246094 102.84375 45.839844 103.25 C 45.425781 103.667969 45.261719 104.15625 45.355469 104.71875 C 45.449219 105.28125 45.785156 105.851562 46.355469 106.421875 Z M 50.667969 105.421875 C 50.78125 105.871094 50.78125 106.289062 50.667969 106.671875 C 50.550781 107.058594 50.324219 107.421875 49.980469 107.765625 C 49.40625 108.339844 48.707031 108.578125 47.886719 108.484375 C 47.066406 108.390625 46.285156 107.976562 45.542969 107.234375 C 44.792969 106.484375 44.371094 105.699219 44.277344 104.875 C 44.183594 104.054688 44.425781 103.355469 44.996094 102.78125 C 45.339844 102.4375 45.710938 102.214844 46.105469 102.109375 C 46.492188 101.996094 46.910156 101.996094 47.355469 102.109375 L 46.636719 101.390625 L 47.417969 100.609375 L 53.949219 107.140625 L 53.167969 107.921875 Z M 50.667969 105.421875 "/>
<path style=" stroke:none;fill-rule:nonzero;fill:rgb(12.156863%,47.058824%,70.588237%);fill-opacity:1;" d="M 51.964844 101.808594 L 49.089844 98.933594 L 49.871094 98.152344 L 52.699219 100.980469 C 53.15625 101.441406 53.582031 101.695312 53.980469 101.746094 C 54.386719 101.789062 54.761719 101.636719 55.105469 101.292969 C 55.519531 100.878906 55.71875 100.410156 55.699219 99.886719 C 55.675781 99.367188 55.433594 98.871094 54.964844 98.402344 L 52.292969 95.730469 L 53.058594 94.964844 L 57.792969 99.699219 L 57.027344 100.464844 L 56.292969 99.730469 C 56.386719 100.222656 56.375 100.664062 56.261719 101.058594 C 56.15625 101.445312 55.9375 101.804688 55.605469 102.136719 C 55.0625 102.679688 54.480469 102.925781 53.855469 102.871094 C 53.238281 102.808594 52.613281 102.457031 51.964844 101.808594 Z M 50.933594 96.839844 Z M 50.933594 96.839844 "/>
<path style=" stroke:none;fill-rule:nonzero;fill:rgb(12.156863%,47.058824%,70.588237%);fill-opacity:1;" d="M 54.824219 93.199219 L 55.621094 92.402344 L 60.355469 97.136719 L 59.558594 97.933594 Z M 52.980469 91.355469 L 53.777344 90.558594 L 54.761719 91.542969 L 53.964844 92.339844 Z M 52.980469 91.355469 "/>
<path style=" stroke:none;fill-rule:nonzero;fill:rgb(12.156863%,47.058824%,70.588237%);fill-opacity:1;" d="M 56.367188 88.9375 L 57.726562 90.296875 L 59.320312 88.703125 L 59.929688 89.3125 L 58.335938 90.90625 L 60.898438 93.46875 C 61.28125 93.855469 61.578125 94.054688 61.789062 94.0625 C 62.007812 94.0625 62.277344 93.902344 62.601562 93.578125 L 63.398438 92.78125 L 64.054688 93.4375 L 63.257812 94.234375 C 62.652344 94.839844 62.125 95.140625 61.679688 95.140625 C 61.230469 95.140625 60.710938 94.84375 60.117188 94.25 L 57.554688 91.6875 L 56.976562 92.265625 L 56.367188 91.65625 L 56.945312 91.078125 L 55.585938 89.71875 Z M 56.367188 88.9375 "/>
<path style=" stroke:none;fill-rule:nonzero;fill:rgb(12.156863%,47.058824%,70.588237%);fill-opacity:1;" d="M 66.714844 85.652344 L 67.089844 86.027344 L 63.511719 89.605469 C 64.085938 90.117188 64.652344 90.367188 65.214844 90.355469 C 65.777344 90.347656 66.316406 90.082031 66.839844 89.558594 C 67.140625 89.257812 67.394531 88.929688 67.605469 88.574219 C 67.8125 88.222656 67.984375 87.832031 68.121094 87.402344 L 68.855469 88.136719 C 68.699219 88.542969 68.5 88.929688 68.261719 89.292969 C 68.03125 89.648438 67.765625 89.976562 67.464844 90.277344 C 66.703125 91.039062 65.878906 91.425781 64.996094 91.433594 C 64.121094 91.433594 63.308594 91.058594 62.558594 90.308594 C 61.777344 89.527344 61.371094 88.699219 61.339844 87.824219 C 61.300781 86.941406 61.636719 86.136719 62.355469 85.417969 C 62.980469 84.792969 63.683594 84.503906 64.464844 84.542969 C 65.253906 84.574219 66.003906 84.945312 66.714844 85.652344 Z M 65.699219 86.199219 C 65.269531 85.773438 64.8125 85.550781 64.324219 85.527344 C 63.835938 85.507812 63.398438 85.691406 63.011719 86.074219 C 62.574219 86.511719 62.351562 86.988281 62.339844 87.496094 C 62.332031 88.007812 62.523438 88.503906 62.917969 88.980469 Z M 65.699219 86.199219 "/>
<path style=" stroke:none;fill-rule:nonzero;fill:rgb(12.156863%,47.058824%,70.588237%);fill-opacity:1;" d="M 103.164062 72.234375 L 99.117188 72.234375 L 99.117188 71.125 L 103.132812 71.125 C 103.765625 71.125 104.242188 71 104.554688 70.75 C 104.867188 70.507812 105.023438 70.140625 105.023438 69.640625 C 105.023438 69.046875 104.828125 68.578125 104.445312 68.234375 C 104.070312 67.890625 103.558594 67.71875 102.914062 67.71875 L 99.117188 67.71875 L 99.117188 66.609375 L 108.429688 66.609375 L 108.429688 67.71875 L 104.789062 67.71875 C 105.183594 67.988281 105.480469 68.300781 105.679688 68.65625 C 105.886719 69.007812 105.992188 69.421875 105.992188 69.890625 C 105.992188 70.660156 105.75 71.242188 105.273438 71.640625 C 104.792969 72.035156 104.089844 72.234375 103.164062 72.234375 Z M 103.164062 72.234375 "/>
<path style=" stroke:none;fill-rule:nonzero;fill:rgb(12.156863%,47.058824%,70.588237%);fill-opacity:1;" d="M 105.054688 77.25 C 105.054688 76.664062 104.820312 76.203125 104.351562 75.859375 C 103.890625 75.515625 103.261719 75.34375 102.460938 75.34375 C 101.65625 75.34375 101.027344 75.507812 100.570312 75.84375 C 100.109375 76.1875 99.882812 76.65625 99.882812 77.25 C 99.882812 77.84375 100.109375 78.3125 100.570312 78.65625 C 101.039062 79 101.667969 79.171875 102.460938 79.171875 C 103.261719 79.171875 103.890625 79 104.351562 78.65625 C 104.820312 78.3125 105.054688 77.84375 105.054688 77.25 Z M 105.992188 77.25 C 105.992188 78.207031 105.679688 78.957031 105.054688 79.5 C 104.429688 80.050781 103.5625 80.328125 102.460938 80.328125 C 101.367188 80.328125 100.507812 80.050781 99.882812 79.5 C 99.257812 78.957031 98.945312 78.207031 98.945312 77.25 C 98.945312 76.289062 99.257812 75.535156 99.882812 74.984375 C 100.507812 74.441406 101.367188 74.171875 102.460938 74.171875 C 103.5625 74.171875 104.429688 74.441406 105.054688 74.984375 C 105.679688 75.535156 105.992188 76.289062 105.992188 77.25 Z M 105.992188 77.25 "/>
<path style=" stroke:none;fill-rule:nonzero;fill:rgb(12.156863%,47.058824%,70.588237%);fill-opacity:1;" d="M 107.726562 83.75 L 105.820312 83.75 L 105.820312 86.015625 L 104.960938 86.015625 L 104.960938 83.75 L 101.320312 83.75 C 100.777344 83.75 100.429688 83.820312 100.273438 83.96875 C 100.117188 84.113281 100.039062 84.421875 100.039062 84.890625 L 100.039062 86.015625 L 99.117188 86.015625 L 99.117188 84.890625 C 99.117188 84.035156 99.273438 83.445312 99.585938 83.125 C 99.90625 82.800781 100.484375 82.640625 101.320312 82.640625 L 104.960938 82.640625 L 104.960938 81.828125 L 105.820312 81.828125 L 105.820312 82.640625 L 107.726562 82.640625 Z M 107.726562 83.75 "/>
<path style=" stroke:none;fill-rule:nonzero;fill:rgb(69.803923%,87.450981%,54.11765%);fill-opacity:1;" d="M 13.023438 40.066406 C 12.609375 40.484375 12.441406 40.980469 12.523438 41.550781 C 12.609375 42.125 12.9375 42.699219 13.507812 43.269531 C 14.070312 43.832031 14.632812 44.15625 15.195312 44.238281 C 15.757812 44.324219 16.25 44.152344 16.679688 43.722656 C 17.09375 43.308594 17.261719 42.8125 17.179688 42.238281 C 17.09375 41.667969 16.777344 41.105469 16.226562 40.550781 C 15.652344 39.980469 15.078125 39.652344 14.507812 39.566406 C 13.9375 39.484375 13.441406 39.652344 13.023438 40.066406 Z M 12.367188 39.410156 C 13.046875 38.734375 13.796875 38.425781 14.617188 38.488281 C 15.449219 38.542969 16.257812 38.957031 17.039062 39.738281 C 17.808594 40.511719 18.21875 41.3125 18.273438 42.144531 C 18.335938 42.96875 18.027344 43.71875 17.351562 44.394531 C 16.671875 45.074219 15.917969 45.386719 15.085938 45.332031 C 14.253906 45.28125 13.453125 44.871094 12.679688 44.097656 C 11.898438 43.316406 11.484375 42.511719 11.429688 41.675781 C 11.378906 40.84375 11.691406 40.089844 12.367188 39.410156 Z M 12.367188 39.410156 "/>
<path style=" stroke:none;fill-rule:nonzero;fill:rgb(69.803923%,87.450981%,54.11765%);fill-opacity:1;" d="M 19.101562 38.671875 L 16.226562 35.796875 L 17.007812 35.015625 L 19.835938 37.84375 C 20.292969 38.304688 20.71875 38.558594 21.117188 38.609375 C 21.523438 38.652344 21.898438 38.5 22.242188 38.15625 C 22.65625 37.742188 22.855469 37.273438 22.835938 36.75 C 22.8125 36.230469 22.570312 35.734375 22.101562 35.265625 L 19.429688 32.59375 L 20.195312 31.828125 L 24.929688 36.5625 L 24.164062 37.328125 L 23.429688 36.59375 C 23.523438 37.085938 23.511719 37.527344 23.398438 37.921875 C 23.292969 38.308594 23.074219 38.667969 22.742188 39 C 22.199219 39.542969 21.617188 39.789062 20.992188 39.734375 C 20.375 39.671875 19.75 39.320312 19.101562 38.671875 Z M 18.070312 33.703125 Z M 18.070312 33.703125 "/>
<path style=" stroke:none;fill-rule:nonzero;fill:rgb(69.803923%,87.450981%,54.11765%);fill-opacity:1;" d="M 21.382812 27.921875 L 22.742188 29.28125 L 24.335938 27.6875 L 24.945312 28.296875 L 23.351562 29.890625 L 25.914062 32.453125 C 26.296875 32.839844 26.59375 33.039062 26.804688 33.046875 C 27.023438 33.046875 27.292969 32.886719 27.617188 32.5625 L 28.414062 31.765625 L 29.070312 32.421875 L 28.273438 33.21875 C 27.667969 33.824219 27.140625 34.125 26.695312 34.125 C 26.246094 34.125 25.726562 33.828125 25.132812 33.234375 L 22.570312 30.671875 L 21.992188 31.25 L 21.382812 30.640625 L 21.960938 30.0625 L 20.601562 28.703125 Z M 21.382812 27.921875 "/>
<path style=" stroke:none;fill-rule:nonzero;fill:rgb(69.803923%,87.450981%,54.11765%);fill-opacity:1;" d="M 28.652344 23.621094 L 29.402344 24.371094 C 29.070312 24.476562 28.757812 24.621094 28.464844 24.808594 C 28.164062 24.988281 27.886719 25.199219 27.636719 25.449219 C 27.242188 25.847656 27.011719 26.199219 26.949219 26.511719 C 26.878906 26.816406 26.960938 27.085938 27.199219 27.324219 C 27.378906 27.503906 27.585938 27.574219 27.824219 27.542969 C 28.054688 27.503906 28.429688 27.324219 28.949219 27.011719 L 29.261719 26.792969 C 29.925781 26.355469 30.484375 26.132812 30.933594 26.121094 C 31.390625 26.101562 31.816406 26.289062 32.214844 26.683594 C 32.640625 27.113281 32.808594 27.632812 32.714844 28.246094 C 32.628906 28.851562 32.28125 29.460938 31.667969 30.074219 C 31.417969 30.324219 31.128906 30.566406 30.808594 30.792969 C 30.484375 31.023438 30.121094 31.238281 29.714844 31.433594 L 28.902344 30.621094 C 29.351562 30.488281 29.75 30.316406 30.105469 30.105469 C 30.457031 29.898438 30.769531 29.660156 31.042969 29.386719 C 31.40625 29.023438 31.625 28.679688 31.699219 28.355469 C 31.769531 28.035156 31.691406 27.757812 31.464844 27.527344 C 31.253906 27.320312 31.019531 27.230469 30.761719 27.261719 C 30.5 27.292969 30.078125 27.496094 29.496094 27.871094 L 29.152344 28.089844 C 28.582031 28.457031 28.085938 28.644531 27.667969 28.652344 C 27.242188 28.652344 26.847656 28.472656 26.480469 28.105469 C 26.035156 27.660156 25.847656 27.160156 25.917969 26.605469 C 25.980469 26.042969 26.300781 25.476562 26.871094 24.902344 C 27.175781 24.601562 27.476562 24.347656 27.777344 24.136719 C 28.070312 23.917969 28.363281 23.746094 28.652344 23.621094 Z M 28.652344 23.621094 "/>
<path style=" stroke:none;fill-rule:nonzero;fill:rgb(69.803923%,87.450981%,54.11765%);fill-opacity:1;" d="M 29.738281 22.285156 L 30.535156 21.488281 L 35.269531 26.222656 L 34.472656 27.019531 Z M 27.894531 20.441406 L 28.691406 19.644531 L 29.675781 20.628906 L 28.878906 21.425781 Z M 27.894531 20.441406 "/>
<path style=" stroke:none;fill-rule:nonzero;fill:rgb(69.803923%,87.450981%,54.11765%);fill-opacity:1;" d="M 35.703125 17.757812 L 33.140625 15.195312 L 33.921875 14.414062 L 40.5 20.992188 L 39.71875 21.773438 L 39.015625 21.070312 C 39.128906 21.519531 39.128906 21.9375 39.015625 22.320312 C 38.898438 22.707031 38.671875 23.070312 38.328125 23.414062 C 37.753906 23.988281 37.054688 24.226562 36.234375 24.132812 C 35.414062 24.039062 34.632812 23.625 33.890625 22.882812 C 33.140625 22.132812 32.71875 21.347656 32.625 20.523438 C 32.53125 19.703125 32.773438 19.003906 33.34375 18.429688 C 33.6875 18.085938 34.058594 17.863281 34.453125 17.757812 C 34.839844 17.644531 35.257812 17.644531 35.703125 17.757812 Z M 34.703125 22.070312 C 35.277344 22.644531 35.835938 22.976562 36.390625 23.070312 C 36.953125 23.15625 37.441406 22.988281 37.859375 22.570312 C 38.265625 22.164062 38.425781 21.679688 38.34375 21.117188 C 38.257812 20.554688 37.929688 19.988281 37.359375 19.414062 C 36.785156 18.84375 36.21875 18.515625 35.65625 18.429688 C 35.085938 18.335938 34.59375 18.492188 34.1875 18.898438 C 33.773438 19.316406 33.609375 19.804688 33.703125 20.367188 C 33.796875 20.929688 34.132812 21.5 34.703125 22.070312 Z M 34.703125 22.070312 "/>
<path style=" stroke:none;fill-rule:nonzero;fill:rgb(69.803923%,87.450981%,54.11765%);fill-opacity:1;" d="M 43.75 12.617188 L 44.125 12.992188 L 40.546875 16.570312 C 41.121094 17.082031 41.6875 17.332031 42.25 17.320312 C 42.8125 17.3125 43.351562 17.046875 43.875 16.523438 C 44.175781 16.222656 44.429688 15.894531 44.640625 15.539062 C 44.847656 15.1875 45.019531 14.796875 45.15625 14.367188 L 45.890625 15.101562 C 45.734375 15.507812 45.535156 15.894531 45.296875 16.257812 C 45.066406 16.613281 44.800781 16.941406 44.5 17.242188 C 43.738281 18.003906 42.914062 18.390625 42.03125 18.398438 C 41.15625 18.398438 40.34375 18.023438 39.59375 17.273438 C 38.8125 16.492188 38.40625 15.664062 38.375 14.789062 C 38.335938 13.90625 38.671875 13.101562 39.390625 12.382812 C 40.015625 11.757812 40.71875 11.46875 41.5 11.507812 C 42.289062 11.539062 43.039062 11.910156 43.75 12.617188 Z M 42.734375 13.164062 C 42.304688 12.738281 41.847656 12.515625 41.359375 12.492188 C 40.871094 12.472656 40.433594 12.65625 40.046875 13.039062 C 39.609375 13.476562 39.386719 13.953125 39.375 14.460938 C 39.367188 14.972656 39.558594 15.46875 39.953125 15.945312 Z M 42.734375 13.164062 "/>
<path style=" stroke:none;fill-rule:nonzero;fill:rgb(69.803923%,87.450981%,54.11765%);fill-opacity:1;" d="M 46.9375 12.398438 L 47.84375 11.492188 L 48.921875 12.570312 L 48.015625 13.476562 Z M 46.9375 12.398438 "/>
</g>
</svg>
