<?xml version="1.0" encoding="UTF-8"?>
<svg xmlns="http://www.w3.org/2000/svg" xmlns:xlink="http://www.w3.org/1999/xlink" width="134pt" height="121pt" viewBox="0 0 134 121" version="1.1">
<g id="surface484">
<rect x="0" y="0" width="134" height="121" style="fill:rgb(12.156863%,16.078431%,14.901961%);fill-opacity:1;stroke:none;"/>
<path style="fill:none;stroke-width:3;stroke-linecap:butt;stroke-linejoin:miter;stroke:rgb(100%,100%,70.19608%);stroke-opacity:1;stroke-miterlimit:10;" d="M 122 60.5 L 121.871094 67.4375 L 121.480469 72.253906 L 120.835938 76.460938 L 119.929688 80.273438 L 118.773438 83.78125 L 117.359375 87.027344 L 115.691406 90.035156 L 113.777344 92.816406 L 111.613281 95.375 L 109.207031 97.71875 L 106.550781 99.84375 L 103.648438 101.75 L 100.496094 103.4375 L 97.085938 104.90625 L 93.402344 106.152344 L 89.421875 107.175781 L 85.097656 107.972656 L 80.328125 108.542969 L 74.867188 108.886719 L 67 109 L 59.132812 108.886719 L 53.671875 108.542969 L 48.902344 107.972656 L 44.578125 107.175781 L 40.597656 106.152344 L 36.914062 104.90625 L 33.503906 103.4375 L 30.351562 101.75 L 27.449219 99.84375 L 24.792969 97.71875 L 22.386719 95.375 L 20.222656 92.816406 L 18.308594 90.035156 L 16.640625 87.027344 L 15.226562 83.78125 L 14.070312 80.273438 L 13.164062 76.460938 L 12.519531 72.253906 L 12.128906 67.4375 L 12 60.5 L 12.128906 53.5625 L 12.519531 48.746094 L 13.164062 44.539062 L 14.070312 40.726562 L 15.226562 37.21875 L 16.640625 33.972656 L 18.308594 30.964844 L 20.222656 28.183594 L 22.386719 25.625 L 24.792969 23.28125 L 27.449219 21.15625 L 30.351562 19.25 L 33.503906 17.5625 L 36.914062 16.09375 L 40.597656 14.847656 L 44.578125 13.824219 L 48.902344 13.027344 L 53.671875 12.457031 L 59.132812 12.113281 L 67 12 L 74.867188 12.113281 L 80.328125 12.457031 L 85.097656 13.027344 L 89.421875 13.824219 L 93.402344 14.847656 L 97.085938 16.09375 L 100.496094 17.5625 L 103.648438 19.25 L 106.550781 21.15625 L 109.207031 23.28125 L 111.613281 25.625 L 113.777344 28.183594 L 115.691406 30.964844 L 117.359375 33.972656 L 118.773438 37.21875 L 119.929688 40.726562 L 120.835938 44.539062 L 121.480469 48.746094 L 121.871094 53.5625 Z M 122 60.5 "/>
<path style=" stroke:none;fill-rule:nonzero;fill:rgb(12.156863%,16.078432%,14.901961%);fill-opacity:1;" d="M 122 60.5 L 121.871094 67.4375 L 121.480469 72.253906 L 120.835938 76.460938 L 119.929688 80.273438 L 118.773438 83.78125 L 117.359375 87.027344 L 115.691406 90.035156 L 113.777344 92.816406 L 111.613281 95.375 L 109.207031 97.71875 L 106.550781 99.84375 L 103.648438 101.75 L 100.496094 103.4375 L 97.085938 104.90625 L 93.402344 106.152344 L 89.421875 107.175781 L 85.097656 107.972656 L 80.328125 108.542969 L 74.867188 108.886719 L 67 109 L 59.132812 108.886719 L 53.671875 108.542969 L 48.902344 107.972656 L 44.578125 107.175781 L 40.597656 106.152344 L 36.914062 104.90625 L 33.503906 103.4375 L 30.351562 101.75 L 27.449219 99.84375 L 24.792969 97.71875 L 22.386719 95.375 L 20.222656 92.816406 L 18.308594 90.035156 L 16.640625 87.027344 L 15.226562 83.78125 L 14.070312 80.273438 L 13.164062 76.460938 L 12.519531 72.253906 L 12.128906 67.4375 L 12 60.5 L 12.128906 53.5625 L 12.519531 48.746094 L 13.164062 44.539062 L 14.070312 40.726562 L 15.226562 37.21875 L 16.640625 33.972656 L 18.308594 30.964844 L 20.222656 28.183594 L 22.386719 25.625 L 24.792969 23.28125 L 27.449219 21.15625 L 30.351562 19.25 L 33.503906 17.5625 L 36.914062 16.09375 L 40.597656 14.847656 L 44.578125 13.824219 L 48.902344 13.027344 L 53.671875 12.457031 L 59.132812 12.113281 L 67 12 L 74.867188 12.113281 L 80.328125 12.457031 L 85.097656 13.027344 L 89.421875 13.824219 L 93.402344 14.847656 L 97.085938 16.09375 L 100.496094 17.5625 L 103.648438 19.25 L 106.550781 21.15625 L 109.207031 23.28125 L 111.613281 25.625 L 113.777344 28.183594 L 115.691406 30.964844 L 117.359375 33.972656 L 118.773438 37.21875 L 119.929688 40.726562 L 120.835938 44.539062 L 121.480469 48.746094 L 121.871094 53.5625 Z M 122 60.5 "/>
<path style=" stroke:none;fill-rule:nonzero;fill:rgb(100%,100%,70.19608%);fill-opacity:1;" d="M 67.9375 22.289062 L 62 22.289062 C 61.328125 22.289062 61 22.539062 61 23.023438 C 61 23.554688 61.328125 23.804688 62 23.804688 L 66.40625 23.804688 L 66.40625 36.304688 L 60.4375 36.304688 C 59.765625 36.304688 59.4375 36.570312 59.4375 37.054688 C 59.4375 37.570312 59.765625 37.835938 60.4375 37.835938 L 73.90625 37.835938 C 74.578125 37.835938 74.953125 37.570312 74.953125 37.054688 C 74.953125 36.570312 74.609375 36.304688 73.90625 36.304688 L 67.9375 36.304688 Z M 67.859375 14.570312 L 65.65625 14.570312 L 65.65625 18.445312 L 67.859375 18.445312 Z M 67.859375 14.570312 "/>
<path style=" stroke:none;fill-rule:nonzero;fill:rgb(100%,100%,70.19608%);fill-opacity:1;" d="M 94.859375 33.476562 C 94.859375 35.445312 92.390625 36.898438 89.109375 36.898438 C 85.9375 36.898438 83.375 35.523438 83.375 33.804688 L 83.375 33.539062 C 83.375 33.054688 83.078125 32.726562 82.625 32.726562 C 82.109375 32.726562 81.84375 33.054688 81.84375 33.726562 L 81.84375 36.835938 C 81.84375 37.507812 82.109375 37.835938 82.625 37.835938 C 83.109375 37.835938 83.375 37.507812 83.375 36.835938 L 83.375 36.414062 C 84.9375 37.804688 86.796875 38.429688 89.21875 38.429688 C 93.4375 38.429688 96.53125 36.351562 96.53125 33.507812 C 96.53125 26.976562 84.296875 30.226562 84.296875 26.085938 C 84.296875 24.476562 86.390625 23.289062 89.15625 23.289062 C 91.984375 23.289062 93.921875 24.367188 94.109375 26.054688 C 94.1875 26.648438 94.453125 26.914062 94.890625 26.914062 C 95.375 26.914062 95.640625 26.570312 95.640625 25.898438 L 95.640625 23.320312 C 95.640625 22.617188 95.375 22.289062 94.890625 22.289062 C 94.40625 22.289062 94.109375 22.695312 94.109375 23.320312 L 94.109375 23.476562 C 92.8125 22.320312 91.125 21.757812 89 21.757812 C 85.34375 21.757812 82.625 23.554688 82.625 25.976562 C 82.625 31.976562 94.859375 28.398438 94.859375 33.476562 Z M 94.859375 33.476562 "/>
<path style=" stroke:none;fill-rule:nonzero;fill:rgb(100%,100%,70.19608%);fill-opacity:1;" d="M 79.054688 96.5625 L 81.929688 96.5625 L 81.929688 97.234375 C 81.929688 97.453125 82.023438 97.578125 82.179688 97.578125 C 82.351562 97.578125 82.445312 97.453125 82.445312 97.234375 L 82.445312 95.484375 C 82.445312 95.265625 82.351562 95.140625 82.179688 95.140625 C 82.023438 95.140625 81.929688 95.265625 81.929688 95.484375 L 81.929688 96.0625 L 75.945312 96.0625 L 75.945312 95.75 C 75.945312 95.515625 75.867188 95.40625 75.695312 95.40625 C 75.523438 95.40625 75.445312 95.515625 75.445312 95.75 L 75.445312 97.234375 C 75.445312 97.453125 75.523438 97.578125 75.695312 97.578125 C 75.867188 97.578125 75.945312 97.453125 75.945312 97.234375 L 75.945312 96.5625 L 78.554688 96.5625 L 78.554688 99.921875 L 75.945312 99.921875 L 75.945312 99.25 C 75.945312 99.03125 75.867188 98.921875 75.695312 98.921875 C 75.523438 98.921875 75.445312 99.03125 75.445312 99.25 L 75.445312 100.75 C 75.445312 100.96875 75.523438 101.078125 75.695312 101.078125 C 75.867188 101.078125 75.945312 100.96875 75.945312 100.75 L 75.945312 100.4375 L 81.929688 100.4375 L 81.929688 101 C 81.929688 101.234375 82.023438 101.34375 82.179688 101.34375 C 82.351562 101.34375 82.445312 101.21875 82.445312 101 L 82.445312 99.25 C 82.445312 99.03125 82.351562 98.921875 82.179688 98.921875 C 82.023438 98.921875 81.929688 99.03125 81.929688 99.25 L 81.929688 99.921875 L 79.054688 99.921875 Z M 79.054688 96.5625 "/>
<path style=" stroke:none;fill-rule:nonzero;fill:rgb(100%,100%,70.19608%);fill-opacity:1;" d="M 79.976562 88.53125 C 78.210938 88.53125 77.085938 89.71875 77.085938 91.375 C 77.085938 92.96875 78.242188 94.21875 79.742188 94.21875 C 81.367188 94.21875 82.648438 92.890625 82.648438 91.203125 C 82.648438 90.078125 82.054688 88.578125 81.617188 88.578125 C 81.492188 88.578125 81.382812 88.6875 81.382812 88.8125 C 81.382812 88.875 81.398438 88.9375 81.460938 89.015625 C 81.867188 89.515625 82.132812 90.421875 82.132812 91.1875 C 82.132812 92.53125 81.273438 93.53125 79.976562 93.703125 Z M 79.460938 93.703125 C 78.320312 93.484375 77.601562 92.59375 77.601562 91.375 C 77.601562 90.171875 78.335938 89.25 79.460938 89.0625 Z M 79.460938 93.703125 "/>
<path style=" stroke:none;fill-rule:nonzero;fill:rgb(100%,100%,70.19608%);fill-opacity:1;" d="M 74.929688 84.015625 L 74.929688 85.984375 C 74.929688 86.203125 75.023438 86.328125 75.179688 86.328125 C 75.351562 86.328125 75.445312 86.203125 75.445312 85.984375 L 75.445312 84.53125 L 81.929688 84.53125 L 81.929688 86.515625 C 81.929688 86.75 82.023438 86.859375 82.179688 86.859375 C 82.351562 86.859375 82.445312 86.75 82.445312 86.515625 L 82.445312 82.03125 C 82.445312 81.8125 82.351562 81.6875 82.179688 81.6875 C 82.023438 81.6875 81.929688 81.796875 81.929688 82.03125 L 81.929688 84.015625 Z M 74.929688 84.015625 "/>
<path style=" stroke:none;fill-rule:nonzero;fill:rgb(100%,100%,70.19608%);fill-opacity:1;" d="M 74.929688 77.015625 L 74.929688 78.984375 C 74.929688 79.203125 75.023438 79.328125 75.179688 79.328125 C 75.351562 79.328125 75.445312 79.203125 75.445312 78.984375 L 75.445312 77.53125 L 81.929688 77.53125 L 81.929688 79.515625 C 81.929688 79.75 82.023438 79.859375 82.179688 79.859375 C 82.351562 79.859375 82.445312 79.75 82.445312 79.515625 L 82.445312 75.03125 C 82.445312 74.8125 82.351562 74.6875 82.179688 74.6875 C 82.023438 74.6875 81.929688 74.796875 81.929688 75.03125 L 81.929688 77.015625 Z M 74.929688 77.015625 "/>
<path style=" stroke:none;fill-rule:nonzero;fill:rgb(100%,100%,70.19608%);fill-opacity:1;" d="M 77.085938 70.265625 C 77.085938 71.84375 78.335938 73.109375 79.851562 73.109375 C 81.414062 73.109375 82.648438 71.84375 82.648438 70.265625 C 82.648438 68.703125 81.414062 67.4375 79.898438 67.4375 C 78.320312 67.4375 77.085938 68.671875 77.085938 70.265625 Z M 77.601562 70.265625 C 77.601562 68.96875 78.585938 67.9375 79.898438 67.9375 C 81.132812 67.9375 82.132812 68.984375 82.132812 70.265625 C 82.132812 71.5625 81.132812 72.59375 79.851562 72.59375 C 78.601562 72.59375 77.601562 71.5625 77.601562 70.265625 Z M 77.601562 70.265625 "/>
<path style=" stroke:none;fill-rule:nonzero;fill:rgb(100%,100%,70.19608%);fill-opacity:1;" d="M 80.648438 64.421875 L 83.757812 65.296875 C 83.804688 65.3125 83.835938 65.328125 83.882812 65.328125 C 84.085938 65.328125 84.242188 65.15625 84.242188 64.953125 C 84.242188 64.796875 84.179688 64.703125 83.945312 64.578125 L 80.648438 62.765625 Z M 80.648438 64.421875 "/>
<path style=" stroke:none;fill-rule:nonzero;fill:rgb(100%,100%,70.19608%);fill-opacity:1;" d="M 21.257812 42.609375 L 21.257812 43.53125 C 21.257812 43.75 21.351562 43.859375 21.507812 43.859375 C 21.679688 43.859375 21.773438 43.75 21.773438 43.53125 L 21.773438 43.109375 L 25.929688 43.109375 L 25.929688 43.53125 C 25.929688 43.75 26.023438 43.859375 26.179688 43.859375 C 26.351562 43.859375 26.445312 43.75 26.445312 43.546875 L 26.445312 42.1875 C 26.445312 41.96875 26.351562 41.84375 26.179688 41.84375 C 26.023438 41.84375 25.929688 41.953125 25.929688 42.1875 L 25.929688 42.609375 L 22.617188 42.609375 C 21.898438 42.140625 21.601562 41.734375 21.601562 41.296875 C 21.601562 40.875 22.023438 40.5 22.507812 40.5 L 26.445312 40.5 L 26.445312 39.578125 C 26.445312 39.34375 26.351562 39.234375 26.179688 39.234375 C 26.023438 39.234375 25.929688 39.34375 25.929688 39.578125 L 25.929688 40 L 22.617188 40 C 21.898438 39.515625 21.601562 39.15625 21.601562 38.703125 C 21.601562 38.265625 22.007812 37.875 22.476562 37.875 L 26.445312 37.875 L 26.445312 36.953125 C 26.445312 36.734375 26.351562 36.625 26.179688 36.625 C 26.023438 36.625 25.929688 36.734375 25.929688 36.953125 L 25.929688 37.390625 L 22.429688 37.390625 C 21.695312 37.390625 21.085938 37.96875 21.085938 38.6875 C 21.085938 39.203125 21.351562 39.609375 21.960938 40.09375 C 21.367188 40.375 21.085938 40.765625 21.085938 41.296875 C 21.085938 41.828125 21.304688 42.1875 21.898438 42.609375 Z M 21.257812 42.609375 "/>
<path style=" stroke:none;fill-rule:nonzero;fill:rgb(100%,100%,70.19608%);fill-opacity:1;" d="M 26.445312 33.5 L 28.242188 34.375 L 28.242188 35.953125 C 28.242188 36.171875 28.335938 36.296875 28.492188 36.296875 C 28.664062 36.296875 28.757812 36.171875 28.757812 35.953125 L 28.757812 33.0625 C 28.757812 32.828125 28.664062 32.71875 28.492188 32.71875 C 28.335938 32.71875 28.242188 32.828125 28.242188 33.0625 L 28.242188 33.859375 L 21.773438 30.6875 L 21.773438 30.5 C 21.773438 30.28125 21.679688 30.171875 21.507812 30.171875 C 21.351562 30.171875 21.257812 30.28125 21.257812 30.5 L 21.257812 31.875 C 21.257812 32.09375 21.351562 32.21875 21.507812 32.21875 C 21.679688 32.21875 21.773438 32.09375 21.773438 31.875 L 21.773438 31.203125 L 25.882812 33.203125 L 21.773438 35.25 L 21.773438 34.59375 C 21.773438 34.375 21.679688 34.265625 21.507812 34.265625 C 21.351562 34.265625 21.257812 34.375 21.257812 34.59375 L 21.257812 36.03125 C 21.257812 36.25 21.351562 36.359375 21.507812 36.359375 C 21.679688 36.359375 21.773438 36.25 21.773438 36.03125 L 21.773438 35.828125 Z M 26.445312 33.5 "/>
<path style=" stroke:none;fill-rule:nonzero;fill:rgb(100%,100%,70.19608%);fill-opacity:1;" d="M 32.46875 57.101562 C 33.40625 57.101562 33.953125 57.664062 33.953125 58.367188 L 33.953125 61.429688 L 33.53125 61.429688 C 33.3125 61.429688 33.203125 61.523438 33.203125 61.679688 C 33.203125 61.851562 33.3125 61.945312 33.53125 61.945312 L 34.890625 61.945312 C 35.109375 61.945312 35.234375 61.851562 35.234375 61.679688 C 35.234375 61.523438 35.109375 61.429688 34.890625 61.429688 L 34.46875 61.429688 L 34.46875 58.273438 C 34.46875 57.320312 33.625 56.585938 32.515625 56.585938 C 31.75 56.585938 31.296875 56.820312 30.578125 57.617188 L 30.578125 56.757812 L 29.640625 56.757812 C 29.421875 56.757812 29.3125 56.851562 29.3125 57.007812 C 29.3125 57.179688 29.421875 57.273438 29.640625 57.273438 L 30.0625 57.273438 L 30.0625 61.429688 L 29.5 61.429688 C 29.265625 61.429688 29.15625 61.523438 29.15625 61.679688 C 29.15625 61.851562 29.265625 61.945312 29.5 61.945312 L 31.140625 61.945312 C 31.359375 61.945312 31.46875 61.851562 31.46875 61.679688 C 31.46875 61.523438 31.359375 61.429688 31.140625 61.429688 L 30.578125 61.429688 L 30.578125 58.289062 C 30.84375 57.945312 31.359375 57.101562 32.46875 57.101562 Z M 32.46875 57.101562 "/>
<path style=" stroke:none;fill-rule:nonzero;fill:rgb(100%,100%,70.19608%);fill-opacity:1;" d="M 37.0625 57.242188 C 37.0625 57.382812 37.171875 57.492188 37.296875 57.492188 C 37.65625 57.492188 38.1875 57.101562 39.1875 57.101562 C 40.09375 57.101562 40.71875 57.507812 40.71875 58.117188 L 40.71875 58.992188 C 39.984375 58.804688 39.59375 58.742188 39.015625 58.742188 C 37.46875 58.742188 36.390625 59.476562 36.390625 60.554688 C 36.390625 61.492188 37.171875 62.148438 38.328125 62.148438 C 39.203125 62.148438 39.953125 61.820312 40.71875 61.117188 L 40.71875 61.945312 L 41.890625 61.945312 C 42.109375 61.945312 42.234375 61.851562 42.234375 61.679688 C 42.234375 61.523438 42.109375 61.429688 41.890625 61.429688 L 41.21875 61.429688 L 41.21875 58.117188 C 41.21875 57.226562 40.375 56.585938 39.21875 56.585938 C 38.8125 56.585938 37.0625 56.835938 37.0625 57.242188 Z M 40.71875 60.554688 C 39.875 61.335938 39.203125 61.632812 38.328125 61.632812 C 37.46875 61.632812 36.90625 61.210938 36.90625 60.570312 C 36.90625 59.773438 37.796875 59.242188 39.125 59.242188 C 39.671875 59.242188 40.265625 59.320312 40.71875 59.429688 Z M 40.71875 60.554688 "/>
<path style=" stroke:none;fill-rule:nonzero;fill:rgb(100%,100%,70.19608%);fill-opacity:1;" d="M 43.890625 56.757812 L 42.96875 56.757812 C 42.75 56.757812 42.640625 56.851562 42.640625 57.007812 C 42.640625 57.179688 42.75 57.273438 42.96875 57.273438 L 43.390625 57.273438 L 43.390625 61.429688 L 42.96875 61.429688 C 42.75 61.429688 42.640625 61.523438 42.640625 61.679688 C 42.640625 61.851562 42.75 61.945312 42.953125 61.945312 L 44.3125 61.945312 C 44.53125 61.945312 44.65625 61.851562 44.65625 61.679688 C 44.65625 61.523438 44.546875 61.429688 44.3125 61.429688 L 43.890625 61.429688 L 43.890625 58.117188 C 44.359375 57.398438 44.765625 57.101562 45.203125 57.101562 C 45.625 57.101562 46 57.523438 46 58.007812 L 46 61.945312 L 46.921875 61.945312 C 47.15625 61.945312 47.265625 61.851562 47.265625 61.679688 C 47.265625 61.523438 47.15625 61.429688 46.921875 61.429688 L 46.5 61.429688 L 46.5 58.117188 C 46.984375 57.398438 47.34375 57.101562 47.796875 57.101562 C 48.234375 57.101562 48.625 57.507812 48.625 57.976562 L 48.625 61.945312 L 49.546875 61.945312 C 49.765625 61.945312 49.875 61.851562 49.875 61.679688 C 49.875 61.523438 49.765625 61.429688 49.546875 61.429688 L 49.109375 61.429688 L 49.109375 57.929688 C 49.109375 57.195312 48.53125 56.585938 47.8125 56.585938 C 47.296875 56.585938 46.890625 56.851562 46.40625 57.460938 C 46.125 56.867188 45.734375 56.585938 45.203125 56.585938 C 44.671875 56.585938 44.3125 56.804688 43.890625 57.398438 Z M 43.890625 56.757812 "/>
<path style=" stroke:none;fill-rule:nonzero;fill:rgb(100%,100%,70.19608%);fill-opacity:1;" d="M 55.96875 59.476562 C 55.96875 57.710938 54.78125 56.585938 53.125 56.585938 C 51.53125 56.585938 50.28125 57.742188 50.28125 59.242188 C 50.28125 60.867188 51.609375 62.148438 53.296875 62.148438 C 54.421875 62.148438 55.921875 61.554688 55.921875 61.117188 C 55.921875 60.992188 55.8125 60.882812 55.6875 60.882812 C 55.625 60.882812 55.5625 60.898438 55.484375 60.960938 C 54.984375 61.367188 54.078125 61.632812 53.3125 61.632812 C 51.96875 61.632812 50.96875 60.773438 50.796875 59.476562 Z M 50.796875 58.960938 C 51.015625 57.820312 51.90625 57.101562 53.125 57.101562 C 54.328125 57.101562 55.25 57.835938 55.4375 58.960938 Z M 50.796875 58.960938 "/>
<path style=" stroke:none;fill-rule:nonzero;fill:rgb(100%,100%,70.19608%);fill-opacity:1;" d="M 67.601562 83.671875 L 69.429688 82.984375 L 69.429688 83.921875 C 69.429688 84.15625 69.523438 84.265625 69.679688 84.265625 C 69.851562 84.265625 69.945312 84.15625 69.945312 83.921875 L 69.945312 81.984375 C 69.945312 81.765625 69.851562 81.65625 69.679688 81.65625 C 69.523438 81.65625 69.429688 81.765625 69.429688 81.984375 L 69.429688 82.453125 L 62.945312 84.890625 L 62.945312 87.4375 C 62.945312 87.65625 63.023438 87.765625 63.195312 87.765625 C 63.367188 87.765625 63.445312 87.65625 63.445312 87.4375 L 63.445312 85.9375 L 69.429688 88.171875 L 69.429688 88.546875 C 69.429688 88.78125 69.523438 88.890625 69.679688 88.890625 C 69.851562 88.890625 69.945312 88.78125 69.945312 88.546875 L 69.945312 86.671875 C 69.945312 86.453125 69.851562 86.34375 69.679688 86.34375 C 69.523438 86.34375 69.429688 86.453125 69.429688 86.671875 L 69.429688 87.65625 L 67.601562 86.984375 Z M 67.101562 83.859375 L 67.101562 86.78125 L 63.445312 85.4375 L 63.445312 85.25 Z M 67.101562 83.859375 "/>
<path style=" stroke:none;fill-rule:nonzero;fill:rgb(100%,100%,70.19608%);fill-opacity:1;" d="M 62.429688 78.015625 L 62.429688 79.984375 C 62.429688 80.203125 62.523438 80.328125 62.679688 80.328125 C 62.851562 80.328125 62.945312 80.203125 62.945312 79.984375 L 62.945312 78.53125 L 69.429688 78.53125 L 69.429688 80.515625 C 69.429688 80.75 69.523438 80.859375 69.679688 80.859375 C 69.851562 80.859375 69.945312 80.75 69.945312 80.515625 L 69.945312 76.03125 C 69.945312 75.8125 69.851562 75.6875 69.679688 75.6875 C 69.523438 75.6875 69.429688 75.796875 69.429688 76.03125 L 69.429688 78.015625 Z M 62.429688 78.015625 "/>
<path style=" stroke:none;fill-rule:nonzero;fill:rgb(100%,100%,70.19608%);fill-opacity:1;" d="M 67.476562 68.53125 C 65.710938 68.53125 64.585938 69.71875 64.585938 71.375 C 64.585938 72.96875 65.742188 74.21875 67.242188 74.21875 C 68.867188 74.21875 70.148438 72.890625 70.148438 71.203125 C 70.148438 70.078125 69.554688 68.578125 69.117188 68.578125 C 68.992188 68.578125 68.882812 68.6875 68.882812 68.8125 C 68.882812 68.875 68.898438 68.9375 68.960938 69.015625 C 69.367188 69.515625 69.632812 70.421875 69.632812 71.1875 C 69.632812 72.53125 68.773438 73.53125 67.476562 73.703125 Z M 66.960938 73.703125 C 65.820312 73.484375 65.101562 72.59375 65.101562 71.375 C 65.101562 70.171875 65.835938 69.25 66.960938 69.0625 Z M 66.960938 73.703125 "/>
<path style=" stroke:none;fill-rule:nonzero;fill:rgb(100%,100%,70.19608%);fill-opacity:1;" d="M 67.226562 63.90625 L 65.273438 61.875 L 65.273438 61.796875 C 65.273438 61.5625 65.179688 61.453125 65.007812 61.453125 C 64.851562 61.453125 64.757812 61.5625 64.757812 61.796875 L 64.757812 63.15625 C 64.757812 63.390625 64.851562 63.5 65.007812 63.5 C 65.179688 63.5 65.273438 63.390625 65.273438 63.15625 L 65.273438 62.5625 L 66.882812 64.265625 L 65.273438 65.9375 L 65.273438 65.359375 C 65.273438 65.140625 65.179688 65.03125 65.007812 65.03125 C 64.835938 65.03125 64.757812 65.140625 64.757812 65.359375 L 64.757812 66.75 C 64.757812 66.96875 64.851562 67.078125 65.007812 67.078125 C 65.179688 67.078125 65.273438 66.96875 65.273438 66.75 L 65.273438 66.65625 L 67.226562 64.625 L 69.429688 66.921875 L 69.429688 67.03125 C 69.429688 67.25 69.523438 67.359375 69.679688 67.359375 C 69.851562 67.359375 69.945312 67.25 69.945312 67.03125 L 69.945312 65.375 C 69.945312 65.15625 69.851562 65.046875 69.679688 65.046875 C 69.523438 65.046875 69.429688 65.15625 69.429688 65.375 L 69.429688 66.21875 L 67.585938 64.265625 L 69.429688 62.34375 L 69.429688 63.15625 C 69.429688 63.375 69.523438 63.484375 69.679688 63.484375 C 69.851562 63.484375 69.945312 63.375 69.945312 63.15625 L 69.945312 61.5 C 69.945312 61.28125 69.851562 61.171875 69.679688 61.171875 C 69.523438 61.171875 69.429688 61.28125 69.429688 61.5 L 69.429688 61.625 Z M 67.226562 63.90625 "/>
<path style=" stroke:none;fill-rule:nonzero;fill:rgb(100%,100%,70.19608%);fill-opacity:1;" d="M 68.148438 58.421875 L 71.257812 59.296875 C 71.304688 59.3125 71.335938 59.328125 71.382812 59.328125 C 71.585938 59.328125 71.742188 59.15625 71.742188 58.953125 C 71.742188 58.796875 71.679688 58.703125 71.445312 58.578125 L 68.148438 56.765625 Z M 68.148438 58.421875 "/>
<path style=" stroke:none;fill-rule:nonzero;fill:rgb(100%,100%,70.19608%);fill-opacity:1;" d="M 36.984375 72.945312 L 38.015625 68.273438 L 38.25 68.273438 C 38.484375 68.273438 38.59375 68.179688 38.59375 68.007812 C 38.59375 67.851562 38.484375 67.757812 38.25 67.757812 L 36.875 67.757812 C 36.65625 67.757812 36.53125 67.851562 36.53125 68.007812 C 36.53125 68.179688 36.65625 68.273438 36.875 68.273438 L 37.5 68.273438 L 36.640625 72.242188 L 35.53125 69.070312 L 34.890625 69.070312 L 33.828125 72.242188 L 32.9375 68.273438 L 33.59375 68.273438 C 33.8125 68.273438 33.921875 68.179688 33.921875 68.007812 C 33.921875 67.851562 33.8125 67.757812 33.59375 67.757812 L 32.203125 67.757812 C 31.984375 67.757812 31.875 67.851562 31.875 68.007812 C 31.875 68.179688 31.984375 68.273438 32.203125 68.273438 L 32.4375 68.273438 L 33.484375 72.945312 L 34.125 72.945312 L 35.234375 69.726562 L 36.359375 72.945312 Z M 36.984375 72.945312 "/>
<path style=" stroke:none;fill-rule:nonzero;fill:rgb(100%,100%,70.19608%);fill-opacity:1;" d="M 43.9375 69.367188 L 43.9375 72.429688 L 43.375 72.429688 C 43.15625 72.429688 43.046875 72.523438 43.046875 72.679688 C 43.046875 72.851562 43.15625 72.945312 43.375 72.945312 L 45 72.945312 C 45.234375 72.945312 45.359375 72.851562 45.359375 72.679688 C 45.359375 72.523438 45.234375 72.429688 45 72.429688 L 44.4375 72.429688 L 44.4375 69.320312 C 44.4375 68.320312 43.625 67.585938 42.46875 67.585938 C 41.703125 67.585938 41.1875 67.867188 40.546875 68.632812 L 40.546875 65.429688 L 39.375 65.429688 C 39.140625 65.429688 39.03125 65.523438 39.03125 65.679688 C 39.03125 65.851562 39.140625 65.945312 39.375 65.945312 L 40.046875 65.945312 L 40.046875 72.429688 L 39.46875 72.429688 C 39.25 72.429688 39.140625 72.523438 39.140625 72.679688 C 39.140625 72.851562 39.265625 72.945312 39.46875 72.945312 L 41.109375 72.945312 C 41.328125 72.945312 41.453125 72.851562 41.453125 72.679688 C 41.453125 72.523438 41.34375 72.429688 41.109375 72.429688 L 40.546875 72.429688 L 40.546875 69.257812 L 40.6875 69.101562 C 41.359375 68.304688 41.703125 68.101562 42.40625 68.101562 C 43.328125 68.101562 43.9375 68.617188 43.9375 69.367188 Z M 43.9375 69.367188 "/>
<path style=" stroke:none;fill-rule:nonzero;fill:rgb(100%,100%,70.19608%);fill-opacity:1;" d="M 47.0625 68.242188 C 47.0625 68.382812 47.171875 68.492188 47.296875 68.492188 C 47.65625 68.492188 48.1875 68.101562 49.1875 68.101562 C 50.09375 68.101562 50.71875 68.507812 50.71875 69.117188 L 50.71875 69.992188 C 49.984375 69.804688 49.59375 69.742188 49.015625 69.742188 C 47.46875 69.742188 46.390625 70.476562 46.390625 71.554688 C 46.390625 72.492188 47.171875 73.148438 48.328125 73.148438 C 49.203125 73.148438 49.953125 72.820312 50.71875 72.117188 L 50.71875 72.945312 L 51.890625 72.945312 C 52.109375 72.945312 52.234375 72.851562 52.234375 72.679688 C 52.234375 72.523438 52.109375 72.429688 51.890625 72.429688 L 51.21875 72.429688 L 51.21875 69.117188 C 51.21875 68.226562 50.375 67.585938 49.21875 67.585938 C 48.8125 67.585938 47.0625 67.835938 47.0625 68.242188 Z M 50.71875 71.554688 C 49.875 72.335938 49.203125 72.632812 48.328125 72.632812 C 47.46875 72.632812 46.90625 72.210938 46.90625 71.570312 C 46.90625 70.773438 47.796875 70.242188 49.125 70.242188 C 49.671875 70.242188 50.265625 70.320312 50.71875 70.429688 Z M 50.71875 71.554688 "/>
<path style=" stroke:none;fill-rule:nonzero;fill:rgb(100%,100%,70.19608%);fill-opacity:1;" d="M 54.8125 67.757812 L 54.8125 66.273438 C 54.8125 66.039062 54.734375 65.945312 54.5625 65.945312 C 54.390625 65.945312 54.296875 66.054688 54.296875 66.273438 L 54.296875 67.757812 L 53.390625 67.757812 C 53.140625 67.757812 53.03125 67.851562 53.03125 68.007812 C 53.03125 68.179688 53.140625 68.273438 53.390625 68.273438 L 54.296875 68.273438 L 54.296875 71.617188 C 54.296875 72.554688 55.0625 73.148438 56.234375 73.148438 C 57.28125 73.148438 58.703125 72.664062 58.703125 72.304688 C 58.703125 72.179688 58.59375 72.054688 58.46875 72.054688 C 58.40625 72.054688 58.375 72.070312 58.265625 72.132812 C 57.78125 72.429688 56.90625 72.632812 56.203125 72.632812 C 55.34375 72.632812 54.8125 72.226562 54.8125 71.585938 L 54.8125 68.273438 L 57.546875 68.273438 C 57.78125 68.273438 57.890625 68.179688 57.890625 68.007812 C 57.890625 67.851562 57.78125 67.757812 57.546875 67.757812 Z M 54.8125 67.757812 "/>
<path style=" stroke:none;fill-rule:nonzero;fill:rgb(100%,100%,70.19608%);fill-opacity:1;" d="M 23.945312 72 L 25.742188 72.875 L 25.742188 74.453125 C 25.742188 74.671875 25.835938 74.796875 25.992188 74.796875 C 26.164062 74.796875 26.257812 74.671875 26.257812 74.453125 L 26.257812 71.5625 C 26.257812 71.328125 26.164062 71.21875 25.992188 71.21875 C 25.835938 71.21875 25.742188 71.328125 25.742188 71.5625 L 25.742188 72.359375 L 19.273438 69.1875 L 19.273438 69 C 19.273438 68.78125 19.179688 68.671875 19.007812 68.671875 C 18.851562 68.671875 18.757812 68.78125 18.757812 69 L 18.757812 70.375 C 18.757812 70.59375 18.851562 70.71875 19.007812 70.71875 C 19.179688 70.71875 19.273438 70.59375 19.273438 70.375 L 19.273438 69.703125 L 23.382812 71.703125 L 19.273438 73.75 L 19.273438 73.09375 C 19.273438 72.875 19.179688 72.765625 19.007812 72.765625 C 18.851562 72.765625 18.757812 72.875 18.757812 73.09375 L 18.757812 74.53125 C 18.757812 74.75 18.851562 74.859375 19.007812 74.859375 C 19.179688 74.859375 19.273438 74.75 19.273438 74.53125 L 19.273438 74.328125 Z M 23.945312 72 "/>
<path style=" stroke:none;fill-rule:nonzero;fill:rgb(100%,100%,70.19608%);fill-opacity:1;" d="M 18.585938 64.765625 C 18.585938 66.34375 19.835938 67.609375 21.351562 67.609375 C 22.914062 67.609375 24.148438 66.34375 24.148438 64.765625 C 24.148438 63.203125 22.914062 61.9375 21.398438 61.9375 C 19.820312 61.9375 18.585938 63.171875 18.585938 64.765625 Z M 19.101562 64.765625 C 19.101562 63.46875 20.085938 62.4375 21.398438 62.4375 C 22.632812 62.4375 23.632812 63.484375 23.632812 64.765625 C 23.632812 66.0625 22.632812 67.09375 21.351562 67.09375 C 20.101562 67.09375 19.101562 66.0625 19.101562 64.765625 Z M 19.101562 64.765625 "/>
<path style=" stroke:none;fill-rule:nonzero;fill:rgb(100%,100%,70.19608%);fill-opacity:1;" d="M 23.945312 56.046875 L 23.945312 55.109375 C 23.945312 54.890625 23.851562 54.765625 23.679688 54.765625 C 23.523438 54.765625 23.429688 54.890625 23.429688 55.109375 L 23.429688 55.53125 L 18.757812 55.53125 L 18.757812 56.953125 C 18.757812 57.203125 18.851562 57.3125 19.007812 57.3125 C 19.179688 57.3125 19.273438 57.203125 19.273438 56.953125 L 19.273438 56.046875 L 22.507812 56.046875 C 23.257812 56.71875 23.632812 57.484375 23.632812 58.3125 C 23.632812 58.953125 23.132812 59.453125 22.507812 59.453125 L 18.757812 59.453125 L 18.757812 60.625 C 18.757812 60.859375 18.851562 60.96875 19.007812 60.96875 C 19.179688 60.96875 19.273438 60.859375 19.273438 60.625 L 19.273438 59.953125 L 22.507812 59.953125 C 23.492188 59.953125 24.148438 59.296875 24.148438 58.296875 C 24.148438 57.484375 23.789062 56.71875 23.117188 56.046875 Z M 23.945312 56.046875 "/>
<path style=" stroke:none;fill-rule:nonzero;fill:rgb(100%,100%,70.19608%);fill-opacity:1;" d="M 19.664062 48.03125 C 19.664062 47.890625 19.554688 47.765625 19.398438 47.765625 C 19.242188 47.765625 18.632812 48.265625 18.632812 49.015625 C 18.632812 49.65625 18.976562 50.265625 20.023438 51.421875 L 18.757812 51.421875 L 18.757812 52.859375 C 18.757812 53.0625 18.851562 53.1875 19.007812 53.1875 C 19.164062 53.1875 19.273438 53.0625 19.273438 52.859375 L 19.273438 51.921875 L 23.429688 51.921875 L 23.429688 53.125 C 23.429688 53.328125 23.539062 53.453125 23.679688 53.453125 C 23.851562 53.453125 23.945312 53.328125 23.945312 53.125 L 23.945312 49.1875 C 23.945312 48.984375 23.851562 48.859375 23.695312 48.859375 C 23.539062 48.859375 23.429688 48.984375 23.429688 49.1875 L 23.429688 51.421875 L 20.679688 51.421875 C 19.429688 50.046875 19.148438 49.609375 19.148438 49.046875 C 19.148438 48.515625 19.664062 48.25 19.664062 48.03125 Z M 19.664062 48.03125 "/>
<path style=" stroke:none;fill-rule:nonzero;fill:rgb(100%,100%,70.19608%);fill-opacity:1;" d="M 56.96875 45.101562 C 57.90625 45.101562 58.453125 45.664062 58.453125 46.367188 L 58.453125 49.429688 L 58.03125 49.429688 C 57.8125 49.429688 57.703125 49.523438 57.703125 49.679688 C 57.703125 49.851562 57.8125 49.945312 58.03125 49.945312 L 59.390625 49.945312 C 59.609375 49.945312 59.734375 49.851562 59.734375 49.679688 C 59.734375 49.523438 59.609375 49.429688 59.390625 49.429688 L 58.96875 49.429688 L 58.96875 46.273438 C 58.96875 45.320312 58.125 44.585938 57.015625 44.585938 C 56.25 44.585938 55.796875 44.820312 55.078125 45.617188 L 55.078125 44.757812 L 54.140625 44.757812 C 53.921875 44.757812 53.8125 44.851562 53.8125 45.007812 C 53.8125 45.179688 53.921875 45.273438 54.140625 45.273438 L 54.5625 45.273438 L 54.5625 49.429688 L 54 49.429688 C 53.765625 49.429688 53.65625 49.523438 53.65625 49.679688 C 53.65625 49.851562 53.765625 49.945312 54 49.945312 L 55.640625 49.945312 C 55.859375 49.945312 55.96875 49.851562 55.96875 49.679688 C 55.96875 49.523438 55.859375 49.429688 55.640625 49.429688 L 55.078125 49.429688 L 55.078125 46.289062 C 55.34375 45.945312 55.859375 45.101562 56.96875 45.101562 Z M 56.96875 45.101562 "/>
<path style=" stroke:none;fill-rule:nonzero;fill:rgb(100%,100%,70.19608%);fill-opacity:1;" d="M 61.5625 45.242188 C 61.5625 45.382812 61.671875 45.492188 61.796875 45.492188 C 62.15625 45.492188 62.6875 45.101562 63.6875 45.101562 C 64.59375 45.101562 65.21875 45.507812 65.21875 46.117188 L 65.21875 46.992188 C 64.484375 46.804688 64.09375 46.742188 63.515625 46.742188 C 61.96875 46.742188 60.890625 47.476562 60.890625 48.554688 C 60.890625 49.492188 61.671875 50.148438 62.828125 50.148438 C 63.703125 50.148438 64.453125 49.820312 65.21875 49.117188 L 65.21875 49.945312 L 66.390625 49.945312 C 66.609375 49.945312 66.734375 49.851562 66.734375 49.679688 C 66.734375 49.523438 66.609375 49.429688 66.390625 49.429688 L 65.71875 49.429688 L 65.71875 46.117188 C 65.71875 45.226562 64.875 44.585938 63.71875 44.585938 C 63.3125 44.585938 61.5625 44.835938 61.5625 45.242188 Z M 65.21875 48.554688 C 64.375 49.335938 63.703125 49.632812 62.828125 49.632812 C 61.96875 49.632812 61.40625 49.210938 61.40625 48.570312 C 61.40625 47.773438 62.296875 47.242188 63.625 47.242188 C 64.171875 47.242188 64.765625 47.320312 65.21875 47.429688 Z M 65.21875 48.554688 "/>
<path style=" stroke:none;fill-rule:nonzero;fill:rgb(100%,100%,70.19608%);fill-opacity:1;" d="M 68.390625 44.757812 L 67.46875 44.757812 C 67.25 44.757812 67.140625 44.851562 67.140625 45.007812 C 67.140625 45.179688 67.25 45.273438 67.46875 45.273438 L 67.890625 45.273438 L 67.890625 49.429688 L 67.46875 49.429688 C 67.25 49.429688 67.140625 49.523438 67.140625 49.679688 C 67.140625 49.851562 67.25 49.945312 67.453125 49.945312 L 68.8125 49.945312 C 69.03125 49.945312 69.15625 49.851562 69.15625 49.679688 C 69.15625 49.523438 69.046875 49.429688 68.8125 49.429688 L 68.390625 49.429688 L 68.390625 46.117188 C 68.859375 45.398438 69.265625 45.101562 69.703125 45.101562 C 70.125 45.101562 70.5 45.523438 70.5 46.007812 L 70.5 49.945312 L 71.421875 49.945312 C 71.65625 49.945312 71.765625 49.851562 71.765625 49.679688 C 71.765625 49.523438 71.65625 49.429688 71.421875 49.429688 L 71 49.429688 L 71 46.117188 C 71.484375 45.398438 71.84375 45.101562 72.296875 45.101562 C 72.734375 45.101562 73.125 45.507812 73.125 45.976562 L 73.125 49.945312 L 74.046875 49.945312 C 74.265625 49.945312 74.375 49.851562 74.375 49.679688 C 74.375 49.523438 74.265625 49.429688 74.046875 49.429688 L 73.609375 49.429688 L 73.609375 45.929688 C 73.609375 45.195312 73.03125 44.585938 72.3125 44.585938 C 71.796875 44.585938 71.390625 44.851562 70.90625 45.460938 C 70.625 44.867188 70.234375 44.585938 69.703125 44.585938 C 69.171875 44.585938 68.8125 44.804688 68.390625 45.398438 Z M 68.390625 44.757812 "/>
<path style=" stroke:none;fill-rule:nonzero;fill:rgb(100%,100%,70.19608%);fill-opacity:1;" d="M 80.46875 47.476562 C 80.46875 45.710938 79.28125 44.585938 77.625 44.585938 C 76.03125 44.585938 74.78125 45.742188 74.78125 47.242188 C 74.78125 48.867188 76.109375 50.148438 77.796875 50.148438 C 78.921875 50.148438 80.421875 49.554688 80.421875 49.117188 C 80.421875 48.992188 80.3125 48.882812 80.1875 48.882812 C 80.125 48.882812 80.0625 48.898438 79.984375 48.960938 C 79.484375 49.367188 78.578125 49.632812 77.8125 49.632812 C 76.46875 49.632812 75.46875 48.773438 75.296875 47.476562 Z M 75.296875 46.960938 C 75.515625 45.820312 76.40625 45.101562 77.625 45.101562 C 78.828125 45.101562 79.75 45.835938 79.9375 46.960938 Z M 75.296875 46.960938 "/>
<path style=" stroke:none;fill-rule:nonzero;fill:rgb(100%,100%,70.19608%);fill-opacity:1;" d="M 82.671875 43.367188 L 82.671875 44.210938 C 82.671875 44.429688 82.75 44.554688 82.921875 44.554688 C 83.09375 44.554688 83.171875 44.429688 83.171875 44.210938 L 83.171875 43.695312 C 83.828125 43.382812 84.21875 43.273438 84.78125 43.273438 C 85.8125 43.273438 86.546875 43.867188 86.546875 44.679688 C 86.546875 45.398438 85.9375 45.929688 84.5 46.539062 L 84.5 47.382812 C 84.5 47.601562 84.578125 47.726562 84.75 47.726562 C 84.921875 47.726562 85 47.601562 85 47.382812 L 85 46.867188 C 86.5625 46.132812 87.0625 45.601562 87.0625 44.679688 C 87.0625 43.539062 86.15625 42.773438 84.84375 42.773438 C 83.734375 42.773438 83.203125 43.195312 82.671875 43.367188 Z M 84.5625 48.882812 C 84.140625 48.882812 83.859375 49.132812 83.859375 49.507812 C 83.859375 49.882812 84.140625 50.132812 84.5625 50.132812 L 84.90625 50.132812 C 85.328125 50.132812 85.609375 49.867188 85.609375 49.507812 C 85.609375 49.132812 85.328125 48.882812 84.90625 48.882812 Z M 84.5625 48.882812 "/>
<path style=" stroke:none;fill-rule:nonzero;fill:rgb(100%,100%,70.19608%);fill-opacity:1;" d="M 45.9375 94.054688 L 45.9375 96.929688 L 45.265625 96.929688 C 45.046875 96.929688 44.921875 97.023438 44.921875 97.179688 C 44.921875 97.351562 45.046875 97.445312 45.265625 97.445312 L 47.015625 97.445312 C 47.234375 97.445312 47.359375 97.351562 47.359375 97.179688 C 47.359375 97.023438 47.234375 96.929688 47.015625 96.929688 L 46.4375 96.929688 L 46.4375 90.945312 L 46.75 90.945312 C 46.984375 90.945312 47.09375 90.867188 47.09375 90.695312 C 47.09375 90.523438 46.984375 90.445312 46.75 90.445312 L 45.265625 90.445312 C 45.046875 90.445312 44.921875 90.523438 44.921875 90.695312 C 44.921875 90.867188 45.046875 90.945312 45.265625 90.945312 L 45.9375 90.945312 L 45.9375 93.554688 L 42.578125 93.554688 L 42.578125 90.945312 L 43.25 90.945312 C 43.46875 90.945312 43.578125 90.867188 43.578125 90.695312 C 43.578125 90.523438 43.46875 90.445312 43.25 90.445312 L 41.75 90.445312 C 41.53125 90.445312 41.421875 90.523438 41.421875 90.695312 C 41.421875 90.867188 41.53125 90.945312 41.75 90.945312 L 42.0625 90.945312 L 42.0625 96.929688 L 41.5 96.929688 C 41.265625 96.929688 41.15625 97.023438 41.15625 97.179688 C 41.15625 97.351562 41.28125 97.445312 41.5 97.445312 L 43.25 97.445312 C 43.46875 97.445312 43.578125 97.351562 43.578125 97.179688 C 43.578125 97.023438 43.46875 96.929688 43.25 96.929688 L 42.578125 96.929688 L 42.578125 94.054688 Z M 45.9375 94.054688 "/>
<path style=" stroke:none;fill-rule:nonzero;fill:rgb(100%,100%,70.19608%);fill-opacity:1;" d="M 51.234375 92.085938 C 49.65625 92.085938 48.390625 93.335938 48.390625 94.851562 C 48.390625 96.414062 49.65625 97.648438 51.234375 97.648438 C 52.796875 97.648438 54.0625 96.414062 54.0625 94.898438 C 54.0625 93.320312 52.828125 92.085938 51.234375 92.085938 Z M 51.234375 92.601562 C 52.53125 92.601562 53.5625 93.585938 53.5625 94.898438 C 53.5625 96.132812 52.515625 97.132812 51.234375 97.132812 C 49.9375 97.132812 48.90625 96.132812 48.90625 94.851562 C 48.90625 93.601562 49.9375 92.601562 51.234375 92.601562 Z M 51.234375 92.601562 "/>
<path style=" stroke:none;fill-rule:nonzero;fill:rgb(100%,100%,70.19608%);fill-opacity:1;" d="M 59.984375 97.445312 L 61.015625 92.773438 L 61.25 92.773438 C 61.484375 92.773438 61.59375 92.679688 61.59375 92.507812 C 61.59375 92.351562 61.484375 92.257812 61.25 92.257812 L 59.875 92.257812 C 59.65625 92.257812 59.53125 92.351562 59.53125 92.507812 C 59.53125 92.679688 59.65625 92.773438 59.875 92.773438 L 60.5 92.773438 L 59.640625 96.742188 L 58.53125 93.570312 L 57.890625 93.570312 L 56.828125 96.742188 L 55.9375 92.773438 L 56.59375 92.773438 C 56.8125 92.773438 56.921875 92.679688 56.921875 92.507812 C 56.921875 92.351562 56.8125 92.257812 56.59375 92.257812 L 55.203125 92.257812 C 54.984375 92.257812 54.875 92.351562 54.875 92.507812 C 54.875 92.679688 54.984375 92.773438 55.203125 92.773438 L 55.4375 92.773438 L 56.484375 97.445312 L 57.125 97.445312 L 58.234375 94.226562 L 59.359375 97.445312 Z M 59.984375 97.445312 "/>
<path style=" stroke:none;fill-rule:nonzero;fill:rgb(100%,100%,70.19608%);fill-opacity:1;" d="M 100.0625 71.742188 C 100.0625 71.882812 100.171875 71.992188 100.296875 71.992188 C 100.65625 71.992188 101.1875 71.601562 102.1875 71.601562 C 103.09375 71.601562 103.71875 72.007812 103.71875 72.617188 L 103.71875 73.492188 C 102.984375 73.304688 102.59375 73.242188 102.015625 73.242188 C 100.46875 73.242188 99.390625 73.976562 99.390625 75.054688 C 99.390625 75.992188 100.171875 76.648438 101.328125 76.648438 C 102.203125 76.648438 102.953125 76.320312 103.71875 75.617188 L 103.71875 76.445312 L 104.890625 76.445312 C 105.109375 76.445312 105.234375 76.351562 105.234375 76.179688 C 105.234375 76.023438 105.109375 75.929688 104.890625 75.929688 L 104.21875 75.929688 L 104.21875 72.617188 C 104.21875 71.726562 103.375 71.085938 102.21875 71.085938 C 101.8125 71.085938 100.0625 71.335938 100.0625 71.742188 Z M 103.71875 75.054688 C 102.875 75.835938 102.203125 76.132812 101.328125 76.132812 C 100.46875 76.132812 99.90625 75.710938 99.90625 75.070312 C 99.90625 74.273438 100.796875 73.742188 102.125 73.742188 C 102.671875 73.742188 103.265625 73.820312 103.71875 73.929688 Z M 103.71875 75.054688 "/>
<path style=" stroke:none;fill-rule:nonzero;fill:rgb(100%,100%,70.19608%);fill-opacity:1;" d="M 111.96875 72.164062 C 112.109375 72.164062 112.234375 72.054688 112.234375 71.898438 C 112.234375 71.742188 111.734375 71.132812 110.984375 71.132812 C 110.34375 71.132812 109.734375 71.476562 108.578125 72.523438 L 108.578125 71.257812 L 107.140625 71.257812 C 106.9375 71.257812 106.8125 71.351562 106.8125 71.507812 C 106.8125 71.664062 106.9375 71.773438 107.140625 71.773438 L 108.078125 71.773438 L 108.078125 75.929688 L 106.875 75.929688 C 106.671875 75.929688 106.546875 76.039062 106.546875 76.179688 C 106.546875 76.351562 106.671875 76.445312 106.875 76.445312 L 110.8125 76.445312 C 111.015625 76.445312 111.140625 76.351562 111.140625 76.195312 C 111.140625 76.039062 111.015625 75.929688 110.8125 75.929688 L 108.578125 75.929688 L 108.578125 73.179688 C 109.953125 71.929688 110.390625 71.648438 110.953125 71.648438 C 111.484375 71.648438 111.75 72.164062 111.96875 72.164062 Z M 111.96875 72.164062 "/>
<path style=" stroke:none;fill-rule:nonzero;fill:rgb(100%,100%,70.19608%);fill-opacity:1;" d="M 118.96875 73.976562 C 118.96875 72.210938 117.78125 71.085938 116.125 71.085938 C 114.53125 71.085938 113.28125 72.242188 113.28125 73.742188 C 113.28125 75.367188 114.609375 76.648438 116.296875 76.648438 C 117.421875 76.648438 118.921875 76.054688 118.921875 75.617188 C 118.921875 75.492188 118.8125 75.382812 118.6875 75.382812 C 118.625 75.382812 118.5625 75.398438 118.484375 75.460938 C 117.984375 75.867188 117.078125 76.132812 116.3125 76.132812 C 114.96875 76.132812 113.96875 75.273438 113.796875 73.976562 Z M 113.796875 73.460938 C 114.015625 72.320312 114.90625 71.601562 116.125 71.601562 C 117.328125 71.601562 118.25 72.335938 118.4375 73.460938 Z M 113.796875 73.460938 "/>
<path style=" stroke:none;fill-rule:nonzero;fill:rgb(100%,100%,70.19608%);fill-opacity:1;" d="M 46 31.445312 L 45.125 33.242188 L 43.546875 33.242188 C 43.328125 33.242188 43.203125 33.335938 43.203125 33.492188 C 43.203125 33.664062 43.328125 33.757812 43.546875 33.757812 L 46.4375 33.757812 C 46.671875 33.757812 46.78125 33.664062 46.78125 33.492188 C 46.78125 33.335938 46.671875 33.242188 46.4375 33.242188 L 45.640625 33.242188 L 48.8125 26.773438 L 49 26.773438 C 49.21875 26.773438 49.328125 26.679688 49.328125 26.507812 C 49.328125 26.351562 49.21875 26.257812 49 26.257812 L 47.625 26.257812 C 47.40625 26.257812 47.28125 26.351562 47.28125 26.507812 C 47.28125 26.679688 47.40625 26.773438 47.625 26.773438 L 48.296875 26.773438 L 46.296875 30.882812 L 44.25 26.773438 L 44.90625 26.773438 C 45.125 26.773438 45.234375 26.679688 45.234375 26.507812 C 45.234375 26.351562 45.125 26.257812 44.90625 26.257812 L 43.46875 26.257812 C 43.25 26.257812 43.140625 26.351562 43.140625 26.507812 C 43.140625 26.679688 43.25 26.773438 43.46875 26.773438 L 43.671875 26.773438 Z M 46 31.445312 "/>
<path style=" stroke:none;fill-rule:nonzero;fill:rgb(100%,100%,70.19608%);fill-opacity:1;" d="M 53.234375 26.085938 C 51.65625 26.085938 50.390625 27.335938 50.390625 28.851562 C 50.390625 30.414062 51.65625 31.648438 53.234375 31.648438 C 54.796875 31.648438 56.0625 30.414062 56.0625 28.898438 C 56.0625 27.320312 54.828125 26.085938 53.234375 26.085938 Z M 53.234375 26.601562 C 54.53125 26.601562 55.5625 27.585938 55.5625 28.898438 C 55.5625 30.132812 54.515625 31.132812 53.234375 31.132812 C 51.9375 31.132812 50.90625 30.132812 50.90625 28.851562 C 50.90625 27.601562 51.9375 26.601562 53.234375 26.601562 Z M 53.234375 26.601562 "/>
<path style=" stroke:none;fill-rule:nonzero;fill:rgb(100%,100%,70.19608%);fill-opacity:1;" d="M 61.953125 31.445312 L 62.890625 31.445312 C 63.109375 31.445312 63.234375 31.351562 63.234375 31.179688 C 63.234375 31.023438 63.109375 30.929688 62.890625 30.929688 L 62.46875 30.929688 L 62.46875 26.257812 L 61.046875 26.257812 C 60.796875 26.257812 60.6875 26.351562 60.6875 26.507812 C 60.6875 26.679688 60.796875 26.773438 61.046875 26.773438 L 61.953125 26.773438 L 61.953125 30.007812 C 61.28125 30.757812 60.515625 31.132812 59.6875 31.132812 C 59.046875 31.132812 58.546875 30.632812 58.546875 30.007812 L 58.546875 26.257812 L 57.375 26.257812 C 57.140625 26.257812 57.03125 26.351562 57.03125 26.507812 C 57.03125 26.679688 57.140625 26.773438 57.375 26.773438 L 58.046875 26.773438 L 58.046875 30.007812 C 58.046875 30.992188 58.703125 31.648438 59.703125 31.648438 C 60.515625 31.648438 61.28125 31.289062 61.953125 30.617188 Z M 61.953125 31.445312 "/>
<path style=" stroke:none;fill-rule:nonzero;fill:rgb(100%,100%,70.19608%);fill-opacity:1;" d="M 106.257812 66.6875 L 104.773438 66.6875 C 104.539062 66.6875 104.445312 66.765625 104.445312 66.9375 C 104.445312 67.109375 104.554688 67.203125 104.773438 67.203125 L 106.257812 67.203125 L 106.257812 68.109375 C 106.257812 68.359375 106.351562 68.46875 106.507812 68.46875 C 106.679688 68.46875 106.773438 68.359375 106.773438 68.109375 L 106.773438 67.203125 L 110.117188 67.203125 C 111.054688 67.203125 111.648438 66.4375 111.648438 65.265625 C 111.648438 64.21875 111.164062 62.796875 110.804688 62.796875 C 110.679688 62.796875 110.554688 62.90625 110.554688 63.03125 C 110.554688 63.09375 110.570312 63.125 110.632812 63.234375 C 110.929688 63.71875 111.132812 64.59375 111.132812 65.296875 C 111.132812 66.15625 110.726562 66.6875 110.085938 66.6875 L 106.773438 66.6875 L 106.773438 63.953125 C 106.773438 63.71875 106.679688 63.609375 106.507812 63.609375 C 106.351562 63.609375 106.257812 63.71875 106.257812 63.953125 Z M 106.257812 66.6875 "/>
<path style=" stroke:none;fill-rule:nonzero;fill:rgb(100%,100%,70.19608%);fill-opacity:1;" d="M 106.085938 58.265625 C 106.085938 59.84375 107.335938 61.109375 108.851562 61.109375 C 110.414062 61.109375 111.648438 59.84375 111.648438 58.265625 C 111.648438 56.703125 110.414062 55.4375 108.898438 55.4375 C 107.320312 55.4375 106.085938 56.671875 106.085938 58.265625 Z M 106.601562 58.265625 C 106.601562 56.96875 107.585938 55.9375 108.898438 55.9375 C 110.132812 55.9375 111.132812 56.984375 111.132812 58.265625 C 111.132812 59.5625 110.132812 60.59375 108.851562 60.59375 C 107.601562 60.59375 106.601562 59.5625 106.601562 58.265625 Z M 106.601562 58.265625 "/>
<path style=" stroke:none;fill-rule:nonzero;fill:rgb(100%,100%,70.19608%);fill-opacity:1;" d="M 103.929688 48.75 L 103.929688 49.9375 C 103.929688 50.15625 104.023438 50.28125 104.179688 50.28125 C 104.351562 50.28125 104.445312 50.15625 104.445312 49.9375 L 104.445312 49.265625 L 107.382812 49.265625 C 106.492188 49.875 106.085938 50.59375 106.085938 51.53125 C 106.085938 53.015625 107.335938 54.21875 108.851562 54.21875 C 110.382812 54.21875 111.648438 53.015625 111.648438 51.53125 C 111.648438 50.59375 111.210938 49.84375 110.335938 49.265625 L 111.445312 49.265625 L 111.445312 48.078125 C 111.445312 47.859375 111.351562 47.75 111.179688 47.75 C 111.023438 47.75 110.929688 47.859375 110.929688 48.078125 L 110.929688 48.75 Z M 106.601562 51.5 C 106.601562 50.234375 107.585938 49.265625 108.882812 49.265625 C 110.132812 49.265625 111.132812 50.265625 111.132812 51.484375 C 111.132812 52.71875 110.132812 53.703125 108.851562 53.703125 C 107.601562 53.703125 106.601562 52.71875 106.601562 51.5 Z M 106.601562 51.5 "/>
<path style=" stroke:none;fill-rule:nonzero;fill:rgb(100%,100%,70.19608%);fill-opacity:1;" d="M 106.742188 46.4375 C 106.882812 46.4375 106.992188 46.328125 106.992188 46.203125 C 106.992188 45.84375 106.601562 45.3125 106.601562 44.3125 C 106.601562 43.40625 107.007812 42.78125 107.617188 42.78125 L 108.492188 42.78125 C 108.304688 43.515625 108.242188 43.90625 108.242188 44.484375 C 108.242188 46.03125 108.976562 47.109375 110.054688 47.109375 C 110.992188 47.109375 111.648438 46.328125 111.648438 45.171875 C 111.648438 44.296875 111.320312 43.546875 110.617188 42.78125 L 111.445312 42.78125 L 111.445312 41.609375 C 111.445312 41.390625 111.351562 41.265625 111.179688 41.265625 C 111.023438 41.265625 110.929688 41.390625 110.929688 41.609375 L 110.929688 42.28125 L 107.617188 42.28125 C 106.726562 42.28125 106.085938 43.125 106.085938 44.28125 C 106.085938 44.6875 106.335938 46.4375 106.742188 46.4375 Z M 110.054688 42.78125 C 110.835938 43.625 111.132812 44.296875 111.132812 45.171875 C 111.132812 46.03125 110.710938 46.59375 110.070312 46.59375 C 109.273438 46.59375 108.742188 45.703125 108.742188 44.375 C 108.742188 43.828125 108.820312 43.234375 108.929688 42.78125 Z M 110.054688 42.78125 "/>
<path style=" stroke:none;fill-rule:nonzero;fill:rgb(100%,100%,70.19608%);fill-opacity:1;" d="M 111.445312 37.5 L 113.242188 38.375 L 113.242188 39.953125 C 113.242188 40.171875 113.335938 40.296875 113.492188 40.296875 C 113.664062 40.296875 113.757812 40.171875 113.757812 39.953125 L 113.757812 37.0625 C 113.757812 36.828125 113.664062 36.71875 113.492188 36.71875 C 113.335938 36.71875 113.242188 36.828125 113.242188 37.0625 L 113.242188 37.859375 L 106.773438 34.6875 L 106.773438 34.5 C 106.773438 34.28125 106.679688 34.171875 106.507812 34.171875 C 106.351562 34.171875 106.257812 34.28125 106.257812 34.5 L 106.257812 35.875 C 106.257812 36.09375 106.351562 36.21875 106.507812 36.21875 C 106.679688 36.21875 106.773438 36.09375 106.773438 35.875 L 106.773438 35.203125 L 110.882812 37.203125 L 106.773438 39.25 L 106.773438 38.59375 C 106.773438 38.375 106.679688 38.265625 106.507812 38.265625 C 106.351562 38.265625 106.257812 38.375 106.257812 38.59375 L 106.257812 40.03125 C 106.257812 40.25 106.351562 40.359375 106.507812 40.359375 C 106.679688 40.359375 106.773438 40.25 106.773438 40.03125 L 106.773438 39.828125 Z M 111.445312 37.5 "/>
<path style=" stroke:none;fill-rule:nonzero;fill:rgb(100%,100%,70.19608%);fill-opacity:1;" d="M 104.867188 32.328125 L 105.710938 32.328125 C 105.929688 32.328125 106.054688 32.25 106.054688 32.078125 C 106.054688 31.90625 105.929688 31.828125 105.710938 31.828125 L 105.195312 31.828125 C 104.882812 31.171875 104.773438 30.78125 104.773438 30.21875 C 104.773438 29.1875 105.367188 28.453125 106.179688 28.453125 C 106.898438 28.453125 107.429688 29.0625 108.039062 30.5 L 108.882812 30.5 C 109.101562 30.5 109.226562 30.421875 109.226562 30.25 C 109.226562 30.078125 109.101562 30 108.882812 30 L 108.367188 30 C 107.632812 28.4375 107.101562 27.9375 106.179688 27.9375 C 105.039062 27.9375 104.273438 28.84375 104.273438 30.15625 C 104.273438 31.265625 104.695312 31.796875 104.867188 32.328125 Z M 110.382812 30.4375 C 110.382812 30.859375 110.632812 31.140625 111.007812 31.140625 C 111.382812 31.140625 111.632812 30.859375 111.632812 30.4375 L 111.632812 30.09375 C 111.632812 29.671875 111.367188 29.390625 111.007812 29.390625 C 110.632812 29.390625 110.382812 29.671875 110.382812 30.09375 Z M 110.382812 30.4375 "/>
<path style=" stroke:none;fill-rule:nonzero;fill:rgb(100%,100%,70.19608%);fill-opacity:1;" d="M 71.945312 28.015625 L 71.945312 26.296875 C 71.945312 26.0625 71.867188 25.9375 71.695312 25.9375 C 71.523438 25.9375 71.445312 26.0625 71.445312 26.296875 L 71.445312 30.265625 C 71.445312 30.484375 71.523438 30.59375 71.695312 30.59375 C 71.867188 30.59375 71.945312 30.484375 71.945312 30.265625 L 71.945312 28.53125 L 77.929688 28.53125 L 77.929688 30.265625 C 77.929688 30.484375 78.023438 30.59375 78.179688 30.59375 C 78.351562 30.59375 78.445312 30.484375 78.445312 30.265625 L 78.445312 26.296875 C 78.445312 26.0625 78.351562 25.9375 78.179688 25.9375 C 78.023438 25.9375 77.929688 26.0625 77.929688 26.296875 L 77.929688 28.015625 Z M 71.945312 28.015625 "/>
<path style=" stroke:none;fill-rule:nonzero;fill:rgb(100%,100%,70.19608%);fill-opacity:1;" d="M 73.257812 22.6875 L 71.773438 22.6875 C 71.539062 22.6875 71.445312 22.765625 71.445312 22.9375 C 71.445312 23.109375 71.554688 23.203125 71.773438 23.203125 L 73.257812 23.203125 L 73.257812 24.109375 C 73.257812 24.359375 73.351562 24.46875 73.507812 24.46875 C 73.679688 24.46875 73.773438 24.359375 73.773438 24.109375 L 73.773438 23.203125 L 77.117188 23.203125 C 78.054688 23.203125 78.648438 22.4375 78.648438 21.265625 C 78.648438 20.21875 78.164062 18.796875 77.804688 18.796875 C 77.679688 18.796875 77.554688 18.90625 77.554688 19.03125 C 77.554688 19.09375 77.570312 19.125 77.632812 19.234375 C 77.929688 19.71875 78.132812 20.59375 78.132812 21.296875 C 78.132812 22.15625 77.726562 22.6875 77.085938 22.6875 L 73.773438 22.6875 L 73.773438 19.953125 C 73.773438 19.71875 73.679688 19.609375 73.507812 19.609375 C 73.351562 19.609375 73.257812 19.71875 73.257812 19.953125 Z M 73.257812 22.6875 "/>
<path style=" stroke:none;fill-rule:nonzero;fill:rgb(100%,100%,70.19608%);fill-opacity:1;" d="M 30.734375 82.773438 C 30.15625 81.960938 29.46875 81.585938 28.5 81.585938 C 26.96875 81.585938 25.78125 82.710938 25.78125 84.195312 C 25.78125 85.679688 26.96875 86.820312 28.5 86.820312 C 29.46875 86.820312 30.15625 86.445312 30.734375 85.632812 L 30.734375 88.742188 L 29.515625 88.742188 C 29.296875 88.742188 29.171875 88.835938 29.171875 88.992188 C 29.171875 89.164062 29.296875 89.257812 29.515625 89.257812 L 31.921875 89.257812 C 32.140625 89.257812 32.25 89.164062 32.25 88.992188 C 32.25 88.835938 32.140625 88.742188 31.921875 88.742188 L 31.25 88.742188 L 31.25 82.273438 L 31.921875 82.273438 C 32.140625 82.273438 32.25 82.179688 32.25 82.007812 C 32.25 81.851562 32.140625 81.757812 31.921875 81.757812 L 30.734375 81.757812 Z M 28.5 82.101562 C 29.765625 82.101562 30.734375 83.007812 30.734375 84.226562 C 30.734375 85.382812 29.734375 86.304688 28.5 86.304688 C 27.265625 86.304688 26.296875 85.382812 26.296875 84.195312 C 26.296875 83.007812 27.265625 82.101562 28.5 82.101562 Z M 28.5 82.101562 "/>
<path style=" stroke:none;fill-rule:nonzero;fill:rgb(100%,100%,70.19608%);fill-opacity:1;" d="M 37.453125 86.945312 L 38.390625 86.945312 C 38.609375 86.945312 38.734375 86.851562 38.734375 86.679688 C 38.734375 86.523438 38.609375 86.429688 38.390625 86.429688 L 37.96875 86.429688 L 37.96875 81.757812 L 36.546875 81.757812 C 36.296875 81.757812 36.1875 81.851562 36.1875 82.007812 C 36.1875 82.179688 36.296875 82.273438 36.546875 82.273438 L 37.453125 82.273438 L 37.453125 85.507812 C 36.78125 86.257812 36.015625 86.632812 35.1875 86.632812 C 34.546875 86.632812 34.046875 86.132812 34.046875 85.507812 L 34.046875 81.757812 L 32.875 81.757812 C 32.640625 81.757812 32.53125 81.851562 32.53125 82.007812 C 32.53125 82.179688 32.640625 82.273438 32.875 82.273438 L 33.546875 82.273438 L 33.546875 85.507812 C 33.546875 86.492188 34.203125 87.148438 35.203125 87.148438 C 36.015625 87.148438 36.78125 86.789062 37.453125 86.117188 Z M 37.453125 86.945312 "/>
<path style=" stroke:none;fill-rule:nonzero;fill:rgb(100%,100%,70.19608%);fill-opacity:1;" d="M 42.984375 81.757812 L 41 81.757812 C 40.78125 81.757812 40.671875 81.851562 40.671875 82.007812 C 40.671875 82.179688 40.78125 82.273438 41 82.273438 L 42.46875 82.273438 L 42.46875 86.429688 L 40.484375 86.429688 C 40.25 86.429688 40.140625 86.523438 40.140625 86.679688 C 40.140625 86.851562 40.25 86.945312 40.484375 86.945312 L 44.96875 86.945312 C 45.1875 86.945312 45.3125 86.851562 45.3125 86.679688 C 45.3125 86.523438 45.203125 86.429688 44.96875 86.429688 L 42.984375 86.429688 Z M 42.953125 79.179688 L 42.21875 79.179688 L 42.21875 80.476562 L 42.953125 80.476562 Z M 42.953125 79.179688 "/>
<path style=" stroke:none;fill-rule:nonzero;fill:rgb(100%,100%,70.19608%);fill-opacity:1;" d="M 48.3125 81.757812 L 48.3125 80.273438 C 48.3125 80.039062 48.234375 79.945312 48.0625 79.945312 C 47.890625 79.945312 47.796875 80.054688 47.796875 80.273438 L 47.796875 81.757812 L 46.890625 81.757812 C 46.640625 81.757812 46.53125 81.851562 46.53125 82.007812 C 46.53125 82.179688 46.640625 82.273438 46.890625 82.273438 L 47.796875 82.273438 L 47.796875 85.617188 C 47.796875 86.554688 48.5625 87.148438 49.734375 87.148438 C 50.78125 87.148438 52.203125 86.664062 52.203125 86.304688 C 52.203125 86.179688 52.09375 86.054688 51.96875 86.054688 C 51.90625 86.054688 51.875 86.070312 51.765625 86.132812 C 51.28125 86.429688 50.40625 86.632812 49.703125 86.632812 C 48.84375 86.632812 48.3125 86.226562 48.3125 85.585938 L 48.3125 82.273438 L 51.046875 82.273438 C 51.28125 82.273438 51.390625 82.179688 51.390625 82.007812 C 51.390625 81.851562 51.28125 81.757812 51.046875 81.757812 Z M 48.3125 81.757812 "/>
<path style=" stroke:none;fill-rule:nonzero;fill:rgb(100%,100%,70.19608%);fill-opacity:1;" d="M 59.46875 84.476562 C 59.46875 82.710938 58.28125 81.585938 56.625 81.585938 C 55.03125 81.585938 53.78125 82.742188 53.78125 84.242188 C 53.78125 85.867188 55.109375 87.148438 56.796875 87.148438 C 57.921875 87.148438 59.421875 86.554688 59.421875 86.117188 C 59.421875 85.992188 59.3125 85.882812 59.1875 85.882812 C 59.125 85.882812 59.0625 85.898438 58.984375 85.960938 C 58.484375 86.367188 57.578125 86.632812 56.8125 86.632812 C 55.46875 86.632812 54.46875 85.773438 54.296875 84.476562 Z M 54.296875 83.960938 C 54.515625 82.820312 55.40625 82.101562 56.625 82.101562 C 57.828125 82.101562 58.75 82.835938 58.9375 83.960938 Z M 54.296875 83.960938 "/>
<path style=" stroke:none;fill-rule:nonzero;fill:rgb(100%,100%,70.19608%);fill-opacity:1;" d="M 35.867188 38.0625 L 38.929688 38.0625 L 38.929688 38.625 C 38.929688 38.84375 39.023438 38.953125 39.179688 38.953125 C 39.351562 38.953125 39.445312 38.84375 39.445312 38.625 L 39.445312 37 C 39.445312 36.765625 39.351562 36.640625 39.179688 36.640625 C 39.023438 36.640625 38.929688 36.765625 38.929688 37 L 38.929688 37.5625 L 35.820312 37.5625 C 34.820312 37.5625 34.085938 38.375 34.085938 39.53125 C 34.085938 40.296875 34.367188 40.8125 35.132812 41.453125 L 31.929688 41.453125 L 31.929688 42.625 C 31.929688 42.859375 32.023438 42.96875 32.179688 42.96875 C 32.351562 42.96875 32.445312 42.859375 32.445312 42.625 L 32.445312 41.953125 L 38.929688 41.953125 L 38.929688 42.53125 C 38.929688 42.75 39.023438 42.859375 39.179688 42.859375 C 39.351562 42.859375 39.445312 42.734375 39.445312 42.53125 L 39.445312 40.890625 C 39.445312 40.671875 39.351562 40.546875 39.179688 40.546875 C 39.023438 40.546875 38.929688 40.65625 38.929688 40.890625 L 38.929688 41.453125 L 35.757812 41.453125 L 35.601562 41.3125 C 34.804688 40.640625 34.601562 40.296875 34.601562 39.59375 C 34.601562 38.671875 35.117188 38.0625 35.867188 38.0625 Z M 35.867188 38.0625 "/>
<path style=" stroke:none;fill-rule:nonzero;fill:rgb(100%,100%,70.19608%);fill-opacity:1;" d="M 34.085938 32.765625 C 34.085938 34.34375 35.335938 35.609375 36.851562 35.609375 C 38.414062 35.609375 39.648438 34.34375 39.648438 32.765625 C 39.648438 31.203125 38.414062 29.9375 36.898438 29.9375 C 35.320312 29.9375 34.085938 31.171875 34.085938 32.765625 Z M 34.601562 32.765625 C 34.601562 31.46875 35.585938 30.4375 36.898438 30.4375 C 38.132812 30.4375 39.132812 31.484375 39.132812 32.765625 C 39.132812 34.0625 38.132812 35.09375 36.851562 35.09375 C 35.601562 35.09375 34.601562 34.0625 34.601562 32.765625 Z M 34.601562 32.765625 "/>
<path style=" stroke:none;fill-rule:nonzero;fill:rgb(100%,100%,70.19608%);fill-opacity:1;" d="M 34.257812 27.1875 L 32.773438 27.1875 C 32.539062 27.1875 32.445312 27.265625 32.445312 27.4375 C 32.445312 27.609375 32.554688 27.703125 32.773438 27.703125 L 34.257812 27.703125 L 34.257812 28.609375 C 34.257812 28.859375 34.351562 28.96875 34.507812 28.96875 C 34.679688 28.96875 34.773438 28.859375 34.773438 28.609375 L 34.773438 27.703125 L 38.117188 27.703125 C 39.054688 27.703125 39.648438 26.9375 39.648438 25.765625 C 39.648438 24.71875 39.164062 23.296875 38.804688 23.296875 C 38.679688 23.296875 38.554688 23.40625 38.554688 23.53125 C 38.554688 23.59375 38.570312 23.625 38.632812 23.734375 C 38.929688 24.21875 39.132812 25.09375 39.132812 25.796875 C 39.132812 26.65625 38.726562 27.1875 38.085938 27.1875 L 34.773438 27.1875 L 34.773438 24.453125 C 34.773438 24.21875 34.679688 24.109375 34.507812 24.109375 C 34.351562 24.109375 34.257812 24.21875 34.257812 24.453125 Z M 34.257812 27.1875 "/>
<path style=" stroke:none;fill-rule:nonzero;fill:rgb(100%,100%,70.19608%);fill-opacity:1;" d="M 88.085938 96.265625 C 88.085938 97.84375 89.335938 99.109375 90.851562 99.109375 C 92.414062 99.109375 93.648438 97.84375 93.648438 96.265625 C 93.648438 94.703125 92.414062 93.4375 90.898438 93.4375 C 89.320312 93.4375 88.085938 94.671875 88.085938 96.265625 Z M 88.601562 96.265625 C 88.601562 94.96875 89.585938 93.9375 90.898438 93.9375 C 92.132812 93.9375 93.132812 94.984375 93.132812 96.265625 C 93.132812 97.5625 92.132812 98.59375 90.851562 98.59375 C 89.601562 98.59375 88.601562 97.5625 88.601562 96.265625 Z M 88.601562 96.265625 "/>
<path style=" stroke:none;fill-rule:nonzero;fill:rgb(100%,100%,70.19608%);fill-opacity:1;" d="M 93.445312 87.546875 L 93.445312 86.609375 C 93.445312 86.390625 93.351562 86.265625 93.179688 86.265625 C 93.023438 86.265625 92.929688 86.390625 92.929688 86.609375 L 92.929688 87.03125 L 88.257812 87.03125 L 88.257812 88.453125 C 88.257812 88.703125 88.351562 88.8125 88.507812 88.8125 C 88.679688 88.8125 88.773438 88.703125 88.773438 88.453125 L 88.773438 87.546875 L 92.007812 87.546875 C 92.757812 88.21875 93.132812 88.984375 93.132812 89.8125 C 93.132812 90.453125 92.632812 90.953125 92.007812 90.953125 L 88.257812 90.953125 L 88.257812 92.125 C 88.257812 92.359375 88.351562 92.46875 88.507812 92.46875 C 88.679688 92.46875 88.773438 92.359375 88.773438 92.125 L 88.773438 91.453125 L 92.007812 91.453125 C 92.992188 91.453125 93.648438 90.796875 93.648438 89.796875 C 93.648438 88.984375 93.289062 88.21875 92.617188 87.546875 Z M 93.445312 87.546875 "/>
<path style=" stroke:none;fill-rule:nonzero;fill:rgb(100%,100%,70.19608%);fill-opacity:1;" d="M 88.257812 83.6875 L 86.773438 83.6875 C 86.539062 83.6875 86.445312 83.765625 86.445312 83.9375 C 86.445312 84.109375 86.554688 84.203125 86.773438 84.203125 L 88.257812 84.203125 L 88.257812 85.109375 C 88.257812 85.359375 88.351562 85.46875 88.507812 85.46875 C 88.679688 85.46875 88.773438 85.359375 88.773438 85.109375 L 88.773438 84.203125 L 92.117188 84.203125 C 93.054688 84.203125 93.648438 83.4375 93.648438 82.265625 C 93.648438 81.21875 93.164062 79.796875 92.804688 79.796875 C 92.679688 79.796875 92.554688 79.90625 92.554688 80.03125 C 92.554688 80.09375 92.570312 80.125 92.632812 80.234375 C 92.929688 80.71875 93.132812 81.59375 93.132812 82.296875 C 93.132812 83.15625 92.726562 83.6875 92.085938 83.6875 L 88.773438 83.6875 L 88.773438 80.953125 C 88.773438 80.71875 88.679688 80.609375 88.507812 80.609375 C 88.351562 80.609375 88.257812 80.71875 88.257812 80.953125 Z M 88.257812 83.6875 "/>
<path style=" stroke:none;fill-rule:nonzero;fill:rgb(100%,100%,70.19608%);fill-opacity:1;" d="M 91.992188 73.375 C 92.648438 73.375 93.132812 74.203125 93.132812 75.296875 C 93.132812 76.34375 92.679688 77.203125 92.101562 77.203125 L 92.007812 77.203125 C 91.851562 77.203125 91.742188 77.3125 91.742188 77.453125 C 91.742188 77.625 91.851562 77.71875 92.070312 77.71875 L 93.117188 77.71875 C 93.335938 77.71875 93.445312 77.625 93.445312 77.453125 C 93.445312 77.296875 93.335938 77.203125 93.117188 77.203125 L 92.976562 77.203125 C 93.429688 76.6875 93.648438 76.0625 93.648438 75.25 C 93.648438 73.84375 92.945312 72.8125 92.007812 72.8125 C 89.820312 72.8125 90.914062 76.890625 89.523438 76.890625 C 88.992188 76.890625 88.601562 76.203125 88.601562 75.28125 C 88.601562 74.328125 88.960938 73.6875 89.507812 73.625 C 89.710938 73.609375 89.804688 73.515625 89.804688 73.359375 C 89.804688 73.203125 89.695312 73.109375 89.460938 73.109375 L 88.601562 73.109375 C 88.367188 73.109375 88.257812 73.203125 88.257812 73.359375 C 88.257812 73.53125 88.398438 73.625 88.601562 73.625 L 88.664062 73.625 C 88.273438 74.0625 88.085938 74.625 88.085938 75.328125 C 88.085938 76.546875 88.679688 77.453125 89.492188 77.453125 C 91.492188 77.453125 90.304688 73.375 91.992188 73.375 Z M 91.992188 73.375 "/>
<path style=" stroke:none;fill-rule:nonzero;fill:rgb(100%,100%,70.19608%);fill-opacity:1;" d="M 88.257812 68.015625 L 88.257812 70 C 88.257812 70.21875 88.351562 70.328125 88.507812 70.328125 C 88.679688 70.328125 88.773438 70.21875 88.773438 70 L 88.773438 68.53125 L 92.929688 68.53125 L 92.929688 70.515625 C 92.929688 70.75 93.023438 70.859375 93.179688 70.859375 C 93.351562 70.859375 93.445312 70.75 93.445312 70.515625 L 93.445312 66.03125 C 93.445312 65.8125 93.351562 65.6875 93.179688 65.6875 C 93.023438 65.6875 92.929688 65.796875 92.929688 66.03125 L 92.929688 68.015625 Z M 85.679688 68.046875 L 85.679688 68.78125 L 86.976562 68.78125 L 86.976562 68.046875 Z M 85.679688 68.046875 "/>
<path style=" stroke:none;fill-rule:nonzero;fill:rgb(100%,100%,70.19608%);fill-opacity:1;" d="M 85.929688 58.75 L 85.929688 59.9375 C 85.929688 60.15625 86.023438 60.28125 86.179688 60.28125 C 86.351562 60.28125 86.445312 60.15625 86.445312 59.9375 L 86.445312 59.265625 L 89.382812 59.265625 C 88.492188 59.875 88.085938 60.59375 88.085938 61.53125 C 88.085938 63.015625 89.335938 64.21875 90.851562 64.21875 C 92.382812 64.21875 93.648438 63.015625 93.648438 61.53125 C 93.648438 60.59375 93.210938 59.84375 92.335938 59.265625 L 93.445312 59.265625 L 93.445312 58.078125 C 93.445312 57.859375 93.351562 57.75 93.179688 57.75 C 93.023438 57.75 92.929688 57.859375 92.929688 58.078125 L 92.929688 58.75 Z M 88.601562 61.5 C 88.601562 60.234375 89.585938 59.265625 90.882812 59.265625 C 92.132812 59.265625 93.132812 60.265625 93.132812 61.484375 C 93.132812 62.71875 92.132812 63.703125 90.851562 63.703125 C 89.601562 63.703125 88.601562 62.71875 88.601562 61.5 Z M 88.601562 61.5 "/>
<path style=" stroke:none;fill-rule:nonzero;fill:rgb(100%,100%,70.19608%);fill-opacity:1;" d="M 90.976562 51.53125 C 89.210938 51.53125 88.085938 52.71875 88.085938 54.375 C 88.085938 55.96875 89.242188 57.21875 90.742188 57.21875 C 92.367188 57.21875 93.648438 55.890625 93.648438 54.203125 C 93.648438 53.078125 93.054688 51.578125 92.617188 51.578125 C 92.492188 51.578125 92.382812 51.6875 92.382812 51.8125 C 92.382812 51.875 92.398438 51.9375 92.460938 52.015625 C 92.867188 52.515625 93.132812 53.421875 93.132812 54.1875 C 93.132812 55.53125 92.273438 56.53125 90.976562 56.703125 Z M 90.460938 56.703125 C 89.320312 56.484375 88.601562 55.59375 88.601562 54.375 C 88.601562 53.171875 89.335938 52.25 90.460938 52.0625 Z M 90.460938 56.703125 "/>
<path style=" stroke:none;fill-rule:nonzero;fill:rgb(100%,100%,70.19608%);fill-opacity:1;" d="M 92.007812 47.328125 C 92.007812 47.8125 92.351562 48.1875 92.804688 48.1875 C 93.273438 48.1875 93.632812 47.8125 93.632812 47.328125 L 93.632812 47.203125 C 93.632812 46.71875 93.289062 46.34375 92.804688 46.34375 C 92.351562 46.34375 92.007812 46.71875 92.007812 47.203125 Z M 92.007812 47.328125 "/>
</g>
</svg>
