<?xml version="1.0" encoding="UTF-8"?>
<svg xmlns="http://www.w3.org/2000/svg" xmlns:xlink="http://www.w3.org/1999/xlink" width="149pt" height="131pt" viewBox="0 0 149 131" version="1.1">
<g id="surface306">
<path style=" stroke:none;fill-rule:nonzero;fill:rgb(0%,0%,0%);fill-opacity:1;" d="M 140 65.5 L 139.691406 66.640625 L 138.769531 68.789062 L 137.246094 71.574219 L 135.148438 74.835938 L 132.511719 78.457031 L 129.378906 82.339844 L 125.796875 86.386719 L 121.832031 90.519531 L 117.542969 94.652344 L 113.003906 98.714844 L 108.296875 102.628906 L 103.503906 106.328125 L 98.714844 109.75 L 94.019531 112.839844 L 89.523438 115.542969 L 85.324219 117.816406 L 81.542969 119.625 L 78.3125 120.9375 L 75.824219 121.734375 L 74.5 122 L 73.175781 121.734375 L 70.6875 120.9375 L 67.457031 119.625 L 63.675781 117.816406 L 59.476562 115.542969 L 54.980469 112.839844 L 50.285156 109.75 L 45.496094 106.328125 L 40.703125 102.628906 L 35.996094 98.714844 L 31.457031 94.652344 L 27.167969 90.519531 L 23.203125 86.386719 L 19.621094 82.339844 L 16.488281 78.457031 L 13.851562 74.835938 L 11.753906 71.574219 L 10.230469 68.789062 L 9.308594 66.640625 L 9 65.5 L 9.308594 64.359375 L 10.230469 62.210938 L 11.753906 59.425781 L 13.851562 56.164062 L 16.488281 52.542969 L 19.621094 48.660156 L 23.203125 44.613281 L 27.167969 40.480469 L 31.457031 36.347656 L 35.996094 32.285156 L 40.703125 28.371094 L 45.496094 24.671875 L 50.285156 21.25 L 54.980469 18.160156 L 59.476562 15.457031 L 63.675781 13.183594 L 67.457031 11.375 L 70.6875 10.0625 L 73.175781 9.265625 L 74.5 9 L 75.824219 9.265625 L 78.3125 10.0625 L 81.542969 11.375 L 85.324219 13.183594 L 89.523438 15.457031 L 94.019531 18.160156 L 98.714844 21.25 L 103.503906 24.671875 L 108.296875 28.371094 L 113.003906 32.285156 L 117.542969 36.347656 L 121.832031 40.480469 L 125.796875 44.613281 L 129.378906 48.660156 L 132.511719 52.542969 L 135.148438 56.164062 L 137.246094 59.425781 L 138.769531 62.210938 L 139.691406 64.359375 Z M 140 65.5 "/>
<path style=" stroke:none;fill-rule:nonzero;fill:rgb(89.411765%,10.196079%,10.980392%);fill-opacity:1;" d="M 97.078125 87.640625 L 97.078125 84.4375 L 116.546875 84.4375 L 116.546875 87.640625 Z M 89.484375 87.640625 L 89.484375 84.4375 L 93.546875 84.4375 L 93.546875 87.640625 Z M 89.484375 87.640625 "/>
<path style=" stroke:none;fill-rule:nonzero;fill:rgb(89.411765%,10.196079%,10.980392%);fill-opacity:1;" d="M 97.640625 65.234375 L 100.671875 65.234375 C 100.214844 66.132812 99.871094 67.070312 99.640625 68.046875 C 99.402344 69.015625 99.28125 70.027344 99.28125 71.078125 C 99.28125 72.664062 99.527344 73.855469 100.015625 74.65625 C 100.496094 75.449219 101.226562 75.84375 102.203125 75.84375 C 102.945312 75.84375 103.527344 75.558594 103.953125 74.984375 C 104.371094 74.414062 104.773438 73.273438 105.15625 71.5625 L 105.40625 70.46875 C 105.886719 68.199219 106.574219 66.585938 107.46875 65.625 C 108.355469 64.667969 109.589844 64.1875 111.171875 64.1875 C 112.984375 64.1875 114.417969 64.90625 115.46875 66.34375 C 116.523438 67.773438 117.046875 69.734375 117.046875 72.234375 C 117.046875 73.277344 116.941406 74.367188 116.734375 75.5 C 116.539062 76.625 116.234375 77.8125 115.828125 79.0625 L 112.53125 79.0625 C 113.148438 77.886719 113.609375 76.726562 113.921875 75.578125 C 114.226562 74.433594 114.375 73.296875 114.375 72.171875 C 114.375 70.664062 114.121094 69.5 113.609375 68.6875 C 113.089844 67.875 112.359375 67.46875 111.421875 67.46875 C 110.546875 67.46875 109.882812 67.765625 109.421875 68.359375 C 108.953125 68.945312 108.507812 70.226562 108.078125 72.203125 L 107.8125 73.3125 C 107.398438 75.292969 106.761719 76.726562 105.90625 77.609375 C 105.042969 78.496094 103.855469 78.9375 102.34375 78.9375 C 100.511719 78.9375 99.101562 78.289062 98.109375 76.984375 C 97.109375 75.683594 96.609375 73.839844 96.609375 71.453125 C 96.609375 70.277344 96.699219 69.167969 96.875 68.125 C 97.042969 67.074219 97.296875 66.109375 97.640625 65.234375 Z M 97.640625 65.234375 "/>
<path style=" stroke:none;fill-rule:nonzero;fill:rgb(21.568628%,49.411765%,72.156864%);fill-opacity:1;" d="M 80.671875 28.359375 L 81.84375 28.359375 L 81.84375 31.90625 L 86.09375 31.90625 L 86.09375 28.359375 L 87.265625 28.359375 L 87.265625 37.015625 L 86.09375 37.015625 L 86.09375 32.890625 L 81.84375 32.890625 L 81.84375 37.015625 L 80.671875 37.015625 Z M 80.671875 28.359375 "/>
<path style=" stroke:none;fill-rule:nonzero;fill:rgb(21.568628%,49.411765%,72.156864%);fill-opacity:1;" d="M 95.171875 33.5 L 95.171875 34.03125 L 90.265625 34.03125 C 90.316406 34.761719 90.539062 35.320312 90.9375 35.703125 C 91.332031 36.089844 91.882812 36.28125 92.59375 36.28125 C 93 36.28125 93.394531 36.234375 93.78125 36.140625 C 94.164062 36.039062 94.546875 35.882812 94.921875 35.671875 L 94.921875 36.6875 C 94.535156 36.84375 94.140625 36.964844 93.734375 37.046875 C 93.335938 37.140625 92.9375 37.1875 92.53125 37.1875 C 91.488281 37.1875 90.664062 36.886719 90.0625 36.28125 C 89.457031 35.679688 89.15625 34.859375 89.15625 33.828125 C 89.15625 32.765625 89.441406 31.921875 90.015625 31.296875 C 90.585938 30.671875 91.363281 30.359375 92.34375 30.359375 C 93.21875 30.359375 93.90625 30.640625 94.40625 31.203125 C 94.914062 31.765625 95.171875 32.53125 95.171875 33.5 Z M 94.109375 33.1875 C 94.097656 32.605469 93.929688 32.140625 93.609375 31.796875 C 93.296875 31.445312 92.875 31.265625 92.34375 31.265625 C 91.75 31.265625 91.273438 31.4375 90.921875 31.78125 C 90.566406 32.117188 90.359375 32.585938 90.296875 33.1875 Z M 94.109375 33.1875 "/>
<path style=" stroke:none;fill-rule:nonzero;fill:rgb(21.568628%,49.411765%,72.156864%);fill-opacity:1;" d="M 96.625 28 L 97.6875 28 L 97.6875 37.015625 L 96.625 37.015625 Z M 96.625 28 "/>
<path style=" stroke:none;fill-rule:nonzero;fill:rgb(21.568628%,49.411765%,72.156864%);fill-opacity:1;" d="M 99.625 28 L 100.6875 28 L 100.6875 37.015625 L 99.625 37.015625 Z M 99.625 28 "/>
<path style=" stroke:none;fill-rule:nonzero;fill:rgb(21.568628%,49.411765%,72.156864%);fill-opacity:1;" d="M 105.140625 31.265625 C 104.566406 31.265625 104.113281 31.492188 103.78125 31.9375 C 103.445312 32.386719 103.28125 33 103.28125 33.78125 C 103.28125 34.554688 103.441406 35.164062 103.765625 35.609375 C 104.097656 36.058594 104.554688 36.28125 105.140625 36.28125 C 105.703125 36.28125 106.148438 36.058594 106.484375 35.609375 C 106.816406 35.164062 106.984375 34.554688 106.984375 33.78125 C 106.984375 33.011719 106.816406 32.402344 106.484375 31.953125 C 106.148438 31.496094 105.703125 31.265625 105.140625 31.265625 Z M 105.140625 30.359375 C 106.066406 30.359375 106.789062 30.664062 107.3125 31.265625 C 107.84375 31.871094 108.109375 32.710938 108.109375 33.78125 C 108.109375 34.84375 107.84375 35.679688 107.3125 36.28125 C 106.789062 36.886719 106.066406 37.1875 105.140625 37.1875 C 104.203125 37.1875 103.46875 36.886719 102.9375 36.28125 C 102.414062 35.679688 102.15625 34.84375 102.15625 33.78125 C 102.15625 32.710938 102.414062 31.871094 102.9375 31.265625 C 103.46875 30.664062 104.203125 30.359375 105.140625 30.359375 Z M 105.140625 30.359375 "/>
<path style=" stroke:none;fill-rule:nonzero;fill:rgb(21.568628%,49.411765%,72.156864%);fill-opacity:1;" d="M 109.890625 35.546875 L 111.109375 35.546875 L 111.109375 36.546875 L 110.171875 38.390625 L 109.421875 38.390625 L 109.890625 36.546875 Z M 109.890625 35.546875 "/>
<path style=" stroke:none;fill-rule:nonzero;fill:rgb(21.568628%,49.411765%,72.156864%);fill-opacity:1;" d="M 71.765625 27.328125 C 71.289062 27.058594 70.933594 26.742188 70.703125 26.375 C 70.476562 26 70.359375 25.5625 70.359375 25.0625 C 70.359375 24.386719 70.601562 23.867188 71.078125 23.5 C 71.546875 23.125 72.21875 22.9375 73.09375 22.9375 L 77.015625 22.9375 L 77.015625 24.015625 L 73.125 24.015625 C 72.511719 24.015625 72.054688 24.125 71.75 24.34375 C 71.449219 24.5625 71.296875 24.902344 71.296875 25.359375 C 71.296875 25.914062 71.480469 26.351562 71.84375 26.671875 C 72.210938 26.984375 72.710938 27.140625 73.34375 27.140625 L 77.015625 27.140625 L 77.015625 28.21875 L 73.125 28.21875 C 72.5 28.21875 72.042969 28.328125 71.75 28.546875 C 71.449219 28.765625 71.296875 29.105469 71.296875 29.5625 C 71.296875 30.117188 71.484375 30.554688 71.859375 30.875 C 72.226562 31.1875 72.71875 31.34375 73.34375 31.34375 L 77.015625 31.34375 L 77.015625 32.421875 L 70.515625 32.421875 L 70.515625 31.34375 L 71.53125 31.34375 C 71.136719 31.105469 70.84375 30.820312 70.65625 30.484375 C 70.460938 30.140625 70.359375 29.734375 70.359375 29.265625 C 70.359375 28.789062 70.480469 28.386719 70.71875 28.0625 C 70.960938 27.730469 71.308594 27.484375 71.765625 27.328125 Z M 71.765625 27.328125 "/>
<path style=" stroke:none;fill-rule:nonzero;fill:rgb(21.568628%,49.411765%,72.156864%);fill-opacity:1;" d="M 77.625 17.671875 C 78.394531 17.976562 78.894531 18.273438 79.125 18.5625 C 79.363281 18.84375 79.484375 19.226562 79.484375 19.703125 L 79.484375 20.5625 L 78.59375 20.5625 L 78.59375 19.9375 C 78.59375 19.648438 78.519531 19.417969 78.375 19.25 C 78.238281 19.085938 77.910156 18.90625 77.390625 18.71875 L 76.90625 18.515625 L 70.515625 21.140625 L 70.515625 20.015625 L 75.59375 17.984375 L 70.515625 15.953125 L 70.515625 14.828125 Z M 77.625 17.671875 "/>
<path style=" stroke:none;fill-rule:nonzero;fill:rgb(100%,100%,20%);fill-opacity:1;" d="M 89.515625 45.09375 L 89.515625 49.015625 L 88.453125 49.015625 L 88.453125 45.125 C 88.453125 44.511719 88.332031 44.054688 88.09375 43.75 C 87.851562 43.449219 87.492188 43.296875 87.015625 43.296875 C 86.441406 43.296875 85.988281 43.480469 85.65625 43.84375 C 85.320312 44.210938 85.15625 44.710938 85.15625 45.34375 L 85.15625 49.015625 L 84.078125 49.015625 L 84.078125 42.515625 L 85.15625 42.515625 L 85.15625 43.53125 C 85.40625 43.136719 85.703125 42.84375 86.046875 42.65625 C 86.398438 42.460938 86.800781 42.359375 87.25 42.359375 C 88 42.359375 88.5625 42.59375 88.9375 43.0625 C 89.320312 43.523438 89.515625 44.199219 89.515625 45.09375 Z M 89.515625 45.09375 "/>
<path style=" stroke:none;fill-rule:nonzero;fill:rgb(100%,100%,20%);fill-opacity:1;" d="M 95.078125 45.75 C 94.210938 45.75 93.613281 45.851562 93.28125 46.046875 C 92.945312 46.246094 92.78125 46.585938 92.78125 47.0625 C 92.78125 47.4375 92.90625 47.742188 93.15625 47.96875 C 93.40625 48.1875 93.742188 48.296875 94.171875 48.296875 C 94.765625 48.296875 95.238281 48.089844 95.59375 47.671875 C 95.945312 47.246094 96.125 46.683594 96.125 45.984375 L 96.125 45.75 Z M 97.203125 45.3125 L 97.203125 49.015625 L 96.125 49.015625 L 96.125 48.03125 C 95.882812 48.429688 95.582031 48.71875 95.21875 48.90625 C 94.851562 49.09375 94.410156 49.1875 93.890625 49.1875 C 93.222656 49.1875 92.691406 49 92.296875 48.625 C 91.910156 48.25 91.71875 47.75 91.71875 47.125 C 91.71875 46.398438 91.960938 45.851562 92.453125 45.484375 C 92.941406 45.109375 93.671875 44.921875 94.640625 44.921875 L 96.125 44.921875 L 96.125 44.8125 C 96.125 44.324219 95.960938 43.945312 95.640625 43.671875 C 95.316406 43.402344 94.863281 43.265625 94.28125 43.265625 C 93.914062 43.265625 93.554688 43.3125 93.203125 43.40625 C 92.847656 43.492188 92.507812 43.621094 92.1875 43.796875 L 92.1875 42.8125 C 92.582031 42.667969 92.960938 42.558594 93.328125 42.484375 C 93.691406 42.402344 94.046875 42.359375 94.390625 42.359375 C 95.335938 42.359375 96.039062 42.605469 96.5 43.09375 C 96.96875 43.585938 97.203125 44.324219 97.203125 45.3125 Z M 97.203125 45.3125 "/>
<path style=" stroke:none;fill-rule:nonzero;fill:rgb(100%,100%,20%);fill-opacity:1;" d="M 104.171875 43.765625 C 104.441406 43.289062 104.757812 42.933594 105.125 42.703125 C 105.5 42.476562 105.9375 42.359375 106.4375 42.359375 C 107.113281 42.359375 107.632812 42.601562 108 43.078125 C 108.375 43.546875 108.5625 44.21875 108.5625 45.09375 L 108.5625 49.015625 L 107.484375 49.015625 L 107.484375 45.125 C 107.484375 44.511719 107.375 44.054688 107.15625 43.75 C 106.9375 43.449219 106.597656 43.296875 106.140625 43.296875 C 105.585938 43.296875 105.148438 43.480469 104.828125 43.84375 C 104.515625 44.210938 104.359375 44.710938 104.359375 45.34375 L 104.359375 49.015625 L 103.28125 49.015625 L 103.28125 45.125 C 103.28125 44.5 103.171875 44.042969 102.953125 43.75 C 102.734375 43.449219 102.394531 43.296875 101.9375 43.296875 C 101.382812 43.296875 100.945312 43.484375 100.625 43.859375 C 100.3125 44.226562 100.15625 44.71875 100.15625 45.34375 L 100.15625 49.015625 L 99.078125 49.015625 L 99.078125 42.515625 L 100.15625 42.515625 L 100.15625 43.53125 C 100.394531 43.136719 100.679688 42.84375 101.015625 42.65625 C 101.359375 42.460938 101.765625 42.359375 102.234375 42.359375 C 102.710938 42.359375 103.113281 42.480469 103.4375 42.71875 C 103.769531 42.960938 104.015625 43.308594 104.171875 43.765625 Z M 104.171875 43.765625 "/>
<path style=" stroke:none;fill-rule:nonzero;fill:rgb(100%,100%,20%);fill-opacity:1;" d="M 116.671875 45.5 L 116.671875 46.03125 L 111.765625 46.03125 C 111.816406 46.761719 112.039062 47.320312 112.4375 47.703125 C 112.832031 48.089844 113.382812 48.28125 114.09375 48.28125 C 114.5 48.28125 114.894531 48.234375 115.28125 48.140625 C 115.664062 48.039062 116.046875 47.882812 116.421875 47.671875 L 116.421875 48.6875 C 116.035156 48.84375 115.640625 48.964844 115.234375 49.046875 C 114.835938 49.140625 114.4375 49.1875 114.03125 49.1875 C 112.988281 49.1875 112.164062 48.886719 111.5625 48.28125 C 110.957031 47.679688 110.65625 46.859375 110.65625 45.828125 C 110.65625 44.765625 110.941406 43.921875 111.515625 43.296875 C 112.085938 42.671875 112.863281 42.359375 113.84375 42.359375 C 114.71875 42.359375 115.40625 42.640625 115.90625 43.203125 C 116.414062 43.765625 116.671875 44.53125 116.671875 45.5 Z M 115.609375 45.1875 C 115.597656 44.605469 115.429688 44.140625 115.109375 43.796875 C 114.796875 43.445312 114.375 43.265625 113.84375 43.265625 C 113.25 43.265625 112.773438 43.4375 112.421875 43.78125 C 112.066406 44.117188 111.859375 44.585938 111.796875 45.1875 Z M 115.609375 45.1875 "/>
<path style=" stroke:none;fill-rule:nonzero;fill:rgb(89.411765%,10.196079%,10.980392%);fill-opacity:1;" d="M 82.5625 92.515625 L 80.96875 96.828125 L 84.15625 96.828125 Z M 81.890625 91.359375 L 83.21875 91.359375 L 86.53125 100.015625 L 85.3125 100.015625 L 84.515625 97.796875 L 80.609375 97.796875 L 79.828125 100.015625 L 78.59375 100.015625 Z M 81.890625 91.359375 "/>
<path style=" stroke:none;fill-rule:nonzero;fill:rgb(89.411765%,10.196079%,10.980392%);fill-opacity:1;" d="M 87.625 91 L 88.6875 91 L 88.6875 100.015625 L 87.625 100.015625 Z M 87.625 91 "/>
<path style=" stroke:none;fill-rule:nonzero;fill:rgb(89.411765%,10.196079%,10.980392%);fill-opacity:1;" d="M 96.171875 96.5 L 96.171875 97.03125 L 91.265625 97.03125 C 91.316406 97.761719 91.539062 98.320312 91.9375 98.703125 C 92.332031 99.089844 92.882812 99.28125 93.59375 99.28125 C 94 99.28125 94.394531 99.234375 94.78125 99.140625 C 95.164062 99.039062 95.546875 98.882812 95.921875 98.671875 L 95.921875 99.6875 C 95.535156 99.84375 95.140625 99.964844 94.734375 100.046875 C 94.335938 100.140625 93.9375 100.1875 93.53125 100.1875 C 92.488281 100.1875 91.664062 99.886719 91.0625 99.28125 C 90.457031 98.679688 90.15625 97.859375 90.15625 96.828125 C 90.15625 95.765625 90.441406 94.921875 91.015625 94.296875 C 91.585938 93.671875 92.363281 93.359375 93.34375 93.359375 C 94.21875 93.359375 94.90625 93.640625 95.40625 94.203125 C 95.914062 94.765625 96.171875 95.53125 96.171875 96.5 Z M 95.109375 96.1875 C 95.097656 95.605469 94.929688 95.140625 94.609375 94.796875 C 94.296875 94.445312 93.875 94.265625 93.34375 94.265625 C 92.75 94.265625 92.273438 94.4375 91.921875 94.78125 C 91.566406 95.117188 91.359375 95.585938 91.296875 96.1875 Z M 95.109375 96.1875 "/>
<path style=" stroke:none;fill-rule:nonzero;fill:rgb(89.411765%,10.196079%,10.980392%);fill-opacity:1;" d="M 103.015625 93.515625 L 100.671875 96.6875 L 103.140625 100.015625 L 101.875 100.015625 L 99.984375 97.46875 L 98.09375 100.015625 L 96.84375 100.015625 L 99.359375 96.625 L 97.0625 93.515625 L 98.3125 93.515625 L 100.03125 95.828125 L 101.765625 93.515625 Z M 103.015625 93.515625 "/>
<path style=" stroke:none;fill-rule:nonzero;fill:rgb(89.411765%,10.196079%,10.980392%);fill-opacity:1;" d="M 104.890625 98.546875 L 106.109375 98.546875 L 106.109375 99.546875 L 105.171875 101.390625 L 104.421875 101.390625 L 104.890625 99.546875 Z M 104.890625 98.546875 "/>
<path style=" stroke:none;fill-rule:nonzero;fill:rgb(89.411765%,10.196079%,10.980392%);fill-opacity:1;" d="M 74.515625 74.5 L 74.515625 73.4375 L 79.59375 72.09375 L 74.515625 70.765625 L 74.515625 69.515625 L 79.59375 68.1875 L 74.515625 66.859375 L 74.515625 65.78125 L 81.015625 67.484375 L 81.015625 68.75 L 75.6875 70.140625 L 81.015625 71.546875 L 81.015625 72.796875 Z M 74.515625 74.5 "/>
<path style=" stroke:none;fill-rule:nonzero;fill:rgb(89.411765%,10.196079%,10.980392%);fill-opacity:1;" d="M 77.09375 58.484375 L 81.015625 58.484375 L 81.015625 59.546875 L 77.125 59.546875 C 76.511719 59.546875 76.054688 59.667969 75.75 59.90625 C 75.449219 60.148438 75.296875 60.507812 75.296875 60.984375 C 75.296875 61.558594 75.480469 62.011719 75.84375 62.34375 C 76.210938 62.679688 76.710938 62.84375 77.34375 62.84375 L 81.015625 62.84375 L 81.015625 63.921875 L 72 63.921875 L 72 62.84375 L 75.53125 62.84375 C 75.136719 62.59375 74.84375 62.296875 74.65625 61.953125 C 74.460938 61.601562 74.359375 61.199219 74.359375 60.75 C 74.359375 60 74.59375 59.4375 75.0625 59.0625 C 75.523438 58.679688 76.199219 58.484375 77.09375 58.484375 Z M 77.09375 58.484375 "/>
<path style=" stroke:none;fill-rule:nonzero;fill:rgb(89.411765%,10.196079%,10.980392%);fill-opacity:1;" d="M 77.75 52.921875 C 77.75 53.789062 77.851562 54.386719 78.046875 54.71875 C 78.246094 55.054688 78.585938 55.21875 79.0625 55.21875 C 79.4375 55.21875 79.742188 55.09375 79.96875 54.84375 C 80.1875 54.59375 80.296875 54.257812 80.296875 53.828125 C 80.296875 53.234375 80.089844 52.761719 79.671875 52.40625 C 79.246094 52.054688 78.683594 51.875 77.984375 51.875 L 77.75 51.875 Z M 77.3125 50.796875 L 81.015625 50.796875 L 81.015625 51.875 L 80.03125 51.875 C 80.429688 52.117188 80.71875 52.417969 80.90625 52.78125 C 81.09375 53.148438 81.1875 53.589844 81.1875 54.109375 C 81.1875 54.777344 81 55.308594 80.625 55.703125 C 80.25 56.089844 79.75 56.28125 79.125 56.28125 C 78.398438 56.28125 77.851562 56.039062 77.484375 55.546875 C 77.109375 55.058594 76.921875 54.328125 76.921875 53.359375 L 76.921875 51.875 L 76.8125 51.875 C 76.324219 51.875 75.945312 52.039062 75.671875 52.359375 C 75.402344 52.683594 75.265625 53.136719 75.265625 53.71875 C 75.265625 54.085938 75.3125 54.445312 75.40625 54.796875 C 75.492188 55.152344 75.621094 55.492188 75.796875 55.8125 L 74.8125 55.8125 C 74.667969 55.417969 74.558594 55.039062 74.484375 54.671875 C 74.402344 54.308594 74.359375 53.953125 74.359375 53.609375 C 74.359375 52.664062 74.605469 51.960938 75.09375 51.5 C 75.585938 51.03125 76.324219 50.796875 77.3125 50.796875 Z M 77.3125 50.796875 "/>
<path style=" stroke:none;fill-rule:nonzero;fill:rgb(89.411765%,10.196079%,10.980392%);fill-opacity:1;" d="M 72.671875 47.828125 L 74.515625 47.828125 L 74.515625 45.625 L 75.34375 45.625 L 75.34375 47.828125 L 78.875 47.828125 C 79.40625 47.828125 79.75 47.757812 79.90625 47.609375 C 80.054688 47.464844 80.125 47.167969 80.125 46.71875 L 80.125 45.625 L 81.015625 45.625 L 81.015625 46.71875 C 81.015625 47.542969 80.867188 48.109375 80.5625 48.421875 C 80.25 48.734375 79.6875 48.890625 78.875 48.890625 L 75.34375 48.890625 L 75.34375 49.6875 L 74.515625 49.6875 L 74.515625 48.890625 L 72.671875 48.890625 Z M 72.671875 47.828125 "/>
<path style=" stroke:none;fill-rule:nonzero;fill:rgb(100%,100%,20%);fill-opacity:1;" d="M 25.328125 79.625 C 25.023438 80.394531 24.726562 80.894531 24.4375 81.125 C 24.15625 81.363281 23.773438 81.484375 23.296875 81.484375 L 22.4375 81.484375 L 22.4375 80.59375 L 23.0625 80.59375 C 23.351562 80.59375 23.582031 80.519531 23.75 80.375 C 23.914062 80.238281 24.09375 79.910156 24.28125 79.390625 L 24.484375 78.90625 L 21.859375 72.515625 L 22.984375 72.515625 L 25.015625 77.59375 L 27.046875 72.515625 L 28.171875 72.515625 Z M 25.328125 79.625 "/>
<path style=" stroke:none;fill-rule:nonzero;fill:rgb(100%,100%,20%);fill-opacity:1;" d="M 32.140625 73.265625 C 31.566406 73.265625 31.113281 73.492188 30.78125 73.9375 C 30.445312 74.386719 30.28125 75 30.28125 75.78125 C 30.28125 76.554688 30.441406 77.164062 30.765625 77.609375 C 31.097656 78.058594 31.554688 78.28125 32.140625 78.28125 C 32.703125 78.28125 33.148438 78.058594 33.484375 77.609375 C 33.816406 77.164062 33.984375 76.554688 33.984375 75.78125 C 33.984375 75.011719 33.816406 74.402344 33.484375 73.953125 C 33.148438 73.496094 32.703125 73.265625 32.140625 73.265625 Z M 32.140625 72.359375 C 33.066406 72.359375 33.789062 72.664062 34.3125 73.265625 C 34.84375 73.871094 35.109375 74.710938 35.109375 75.78125 C 35.109375 76.84375 34.84375 77.679688 34.3125 78.28125 C 33.789062 78.886719 33.066406 79.1875 32.140625 79.1875 C 31.203125 79.1875 30.46875 78.886719 29.9375 78.28125 C 29.414062 77.679688 29.15625 76.84375 29.15625 75.78125 C 29.15625 74.710938 29.414062 73.871094 29.9375 73.265625 C 30.46875 72.664062 31.203125 72.359375 32.140625 72.359375 Z M 32.140625 72.359375 "/>
<path style=" stroke:none;fill-rule:nonzero;fill:rgb(100%,100%,20%);fill-opacity:1;" d="M 36.515625 76.453125 L 36.515625 72.515625 L 37.578125 72.515625 L 37.578125 76.40625 C 37.578125 77.023438 37.695312 77.484375 37.9375 77.796875 C 38.175781 78.101562 38.535156 78.25 39.015625 78.25 C 39.585938 78.25 40.039062 78.070312 40.375 77.703125 C 40.707031 77.339844 40.875 76.839844 40.875 76.203125 L 40.875 72.515625 L 41.953125 72.515625 L 41.953125 79.015625 L 40.875 79.015625 L 40.875 78.015625 C 40.625 78.414062 40.328125 78.710938 39.984375 78.90625 C 39.640625 79.09375 39.238281 79.1875 38.78125 79.1875 C 38.039062 79.1875 37.476562 78.960938 37.09375 78.5 C 36.707031 78.03125 36.515625 77.351562 36.515625 76.453125 Z M 39.1875 72.359375 Z M 39.1875 72.359375 "/>
<path style=" stroke:none;fill-rule:nonzero;fill:rgb(100%,100%,20%);fill-opacity:1;" d="M 48.375 73.515625 C 48.257812 73.453125 48.128906 73.40625 47.984375 73.375 C 47.847656 73.335938 47.695312 73.3125 47.53125 73.3125 C 46.925781 73.3125 46.460938 73.511719 46.140625 73.90625 C 45.816406 74.304688 45.65625 74.867188 45.65625 75.59375 L 45.65625 79.015625 L 44.578125 79.015625 L 44.578125 72.515625 L 45.65625 72.515625 L 45.65625 73.53125 C 45.875 73.136719 46.160156 72.84375 46.515625 72.65625 C 46.878906 72.460938 47.320312 72.359375 47.84375 72.359375 C 47.914062 72.359375 47.992188 72.367188 48.078125 72.375 C 48.171875 72.386719 48.269531 72.402344 48.375 72.421875 Z M 48.375 73.515625 "/>
<path style=" stroke:none;fill-rule:nonzero;fill:rgb(21.568628%,49.411765%,72.156864%);fill-opacity:1;" d="M 71.09375 108.484375 L 75.015625 108.484375 L 75.015625 109.546875 L 71.125 109.546875 C 70.511719 109.546875 70.054688 109.667969 69.75 109.90625 C 69.449219 110.148438 69.296875 110.507812 69.296875 110.984375 C 69.296875 111.558594 69.480469 112.011719 69.84375 112.34375 C 70.210938 112.679688 70.710938 112.84375 71.34375 112.84375 L 75.015625 112.84375 L 75.015625 113.921875 L 68.515625 113.921875 L 68.515625 112.84375 L 69.53125 112.84375 C 69.136719 112.59375 68.84375 112.296875 68.65625 111.953125 C 68.460938 111.601562 68.359375 111.199219 68.359375 110.75 C 68.359375 110 68.59375 109.4375 69.0625 109.0625 C 69.523438 108.679688 70.199219 108.484375 71.09375 108.484375 Z M 71.09375 108.484375 "/>
<path style=" stroke:none;fill-rule:nonzero;fill:rgb(21.568628%,49.411765%,72.156864%);fill-opacity:1;" d="M 71.75 102.921875 C 71.75 103.789062 71.851562 104.386719 72.046875 104.71875 C 72.246094 105.054688 72.585938 105.21875 73.0625 105.21875 C 73.4375 105.21875 73.742188 105.09375 73.96875 104.84375 C 74.1875 104.59375 74.296875 104.257812 74.296875 103.828125 C 74.296875 103.234375 74.089844 102.761719 73.671875 102.40625 C 73.246094 102.054688 72.683594 101.875 71.984375 101.875 L 71.75 101.875 Z M 71.3125 100.796875 L 75.015625 100.796875 L 75.015625 101.875 L 74.03125 101.875 C 74.429688 102.117188 74.71875 102.417969 74.90625 102.78125 C 75.09375 103.148438 75.1875 103.589844 75.1875 104.109375 C 75.1875 104.777344 75 105.308594 74.625 105.703125 C 74.25 106.089844 73.75 106.28125 73.125 106.28125 C 72.398438 106.28125 71.851562 106.039062 71.484375 105.546875 C 71.109375 105.058594 70.921875 104.328125 70.921875 103.359375 L 70.921875 101.875 L 70.8125 101.875 C 70.324219 101.875 69.945312 102.039062 69.671875 102.359375 C 69.402344 102.683594 69.265625 103.136719 69.265625 103.71875 C 69.265625 104.085938 69.3125 104.445312 69.40625 104.796875 C 69.492188 105.152344 69.621094 105.492188 69.796875 105.8125 L 68.8125 105.8125 C 68.667969 105.417969 68.558594 105.039062 68.484375 104.671875 C 68.402344 104.308594 68.359375 103.953125 68.359375 103.609375 C 68.359375 102.664062 68.605469 101.960938 69.09375 101.5 C 69.585938 101.03125 70.324219 100.796875 71.3125 100.796875 Z M 71.3125 100.796875 "/>
<path style=" stroke:none;fill-rule:nonzero;fill:rgb(21.568628%,49.411765%,72.156864%);fill-opacity:1;" d="M 69.765625 93.828125 C 69.289062 93.558594 68.933594 93.242188 68.703125 92.875 C 68.476562 92.5 68.359375 92.0625 68.359375 91.5625 C 68.359375 90.886719 68.601562 90.367188 69.078125 90 C 69.546875 89.625 70.21875 89.4375 71.09375 89.4375 L 75.015625 89.4375 L 75.015625 90.515625 L 71.125 90.515625 C 70.511719 90.515625 70.054688 90.625 69.75 90.84375 C 69.449219 91.0625 69.296875 91.402344 69.296875 91.859375 C 69.296875 92.414062 69.480469 92.851562 69.84375 93.171875 C 70.210938 93.484375 70.710938 93.640625 71.34375 93.640625 L 75.015625 93.640625 L 75.015625 94.71875 L 71.125 94.71875 C 70.5 94.71875 70.042969 94.828125 69.75 95.046875 C 69.449219 95.265625 69.296875 95.605469 69.296875 96.0625 C 69.296875 96.617188 69.484375 97.054688 69.859375 97.375 C 70.226562 97.6875 70.71875 97.84375 71.34375 97.84375 L 75.015625 97.84375 L 75.015625 98.921875 L 68.515625 98.921875 L 68.515625 97.84375 L 69.53125 97.84375 C 69.136719 97.605469 68.84375 97.320312 68.65625 96.984375 C 68.460938 96.640625 68.359375 96.234375 68.359375 95.765625 C 68.359375 95.289062 68.480469 94.886719 68.71875 94.5625 C 68.960938 94.230469 69.308594 93.984375 69.765625 93.828125 Z M 69.765625 93.828125 "/>
<path style=" stroke:none;fill-rule:nonzero;fill:rgb(21.568628%,49.411765%,72.156864%);fill-opacity:1;" d="M 71.5 81.328125 L 72.03125 81.328125 L 72.03125 86.234375 C 72.761719 86.183594 73.320312 85.960938 73.703125 85.5625 C 74.089844 85.167969 74.28125 84.617188 74.28125 83.90625 C 74.28125 83.5 74.234375 83.105469 74.140625 82.71875 C 74.039062 82.335938 73.882812 81.953125 73.671875 81.578125 L 74.6875 81.578125 C 74.84375 81.964844 74.964844 82.359375 75.046875 82.765625 C 75.140625 83.164062 75.1875 83.5625 75.1875 83.96875 C 75.1875 85.011719 74.886719 85.835938 74.28125 86.4375 C 73.679688 87.042969 72.859375 87.34375 71.828125 87.34375 C 70.765625 87.34375 69.921875 87.058594 69.296875 86.484375 C 68.671875 85.914062 68.359375 85.136719 68.359375 84.15625 C 68.359375 83.28125 68.640625 82.59375 69.203125 82.09375 C 69.765625 81.585938 70.53125 81.328125 71.5 81.328125 Z M 71.1875 82.390625 C 70.605469 82.402344 70.140625 82.570312 69.796875 82.890625 C 69.445312 83.203125 69.265625 83.625 69.265625 84.15625 C 69.265625 84.75 69.4375 85.226562 69.78125 85.578125 C 70.117188 85.933594 70.585938 86.140625 71.1875 86.203125 Z M 71.1875 82.390625 "/>
<path style=" stroke:none;fill-rule:nonzero;fill:rgb(21.568628%,49.411765%,72.156864%);fill-opacity:1;" d="M 73.546875 78.734375 L 73.546875 77.5625 L 75.015625 77.5625 L 75.015625 78.734375 Z M 72.6875 77.59375 L 72.6875 78.703125 L 71.796875 78.703125 C 71.414062 78.703125 71.09375 78.652344 70.84375 78.546875 C 70.585938 78.433594 70.289062 78.199219 69.953125 77.84375 L 69.4375 77.328125 C 69.242188 77.109375 69.054688 76.953125 68.875 76.859375 C 68.6875 76.757812 68.5 76.703125 68.3125 76.703125 C 67.96875 76.703125 67.695312 76.835938 67.484375 77.09375 C 67.265625 77.34375 67.15625 77.679688 67.15625 78.09375 C 67.15625 78.398438 67.226562 78.71875 67.359375 79.0625 C 67.496094 79.40625 67.695312 79.765625 67.953125 80.140625 L 66.859375 80.140625 C 66.640625 79.789062 66.480469 79.421875 66.375 79.046875 C 66.261719 78.671875 66.203125 78.289062 66.203125 77.890625 C 66.203125 77.171875 66.390625 76.601562 66.765625 76.171875 C 67.140625 75.746094 67.636719 75.53125 68.25 75.53125 C 68.542969 75.53125 68.824219 75.601562 69.09375 75.734375 C 69.355469 75.871094 69.652344 76.117188 69.984375 76.46875 L 70.484375 76.96875 C 70.664062 77.15625 70.804688 77.289062 70.90625 77.359375 C 71.011719 77.433594 71.109375 77.484375 71.203125 77.515625 C 71.289062 77.546875 71.386719 77.570312 71.5 77.578125 C 71.617188 77.589844 71.777344 77.59375 71.984375 77.59375 Z M 72.6875 77.59375 "/>
<path style=" stroke:none;fill-rule:nonzero;fill:rgb(59.607846%,30.588236%,63.921571%);fill-opacity:1;" d="M 31.171875 52.359375 L 32.34375 52.359375 L 32.34375 55.90625 L 36.59375 55.90625 L 36.59375 52.359375 L 37.765625 52.359375 L 37.765625 61.015625 L 36.59375 61.015625 L 36.59375 56.890625 L 32.34375 56.890625 L 32.34375 61.015625 L 31.171875 61.015625 Z M 31.171875 52.359375 "/>
<path style=" stroke:none;fill-rule:nonzero;fill:rgb(59.607846%,30.588236%,63.921571%);fill-opacity:1;" d="M 42.640625 55.265625 C 42.066406 55.265625 41.613281 55.492188 41.28125 55.9375 C 40.945312 56.386719 40.78125 57 40.78125 57.78125 C 40.78125 58.554688 40.941406 59.164062 41.265625 59.609375 C 41.597656 60.058594 42.054688 60.28125 42.640625 60.28125 C 43.203125 60.28125 43.648438 60.058594 43.984375 59.609375 C 44.316406 59.164062 44.484375 58.554688 44.484375 57.78125 C 44.484375 57.011719 44.316406 56.402344 43.984375 55.953125 C 43.648438 55.496094 43.203125 55.265625 42.640625 55.265625 Z M 42.640625 54.359375 C 43.566406 54.359375 44.289062 54.664062 44.8125 55.265625 C 45.34375 55.871094 45.609375 56.710938 45.609375 57.78125 C 45.609375 58.84375 45.34375 59.679688 44.8125 60.28125 C 44.289062 60.886719 43.566406 61.1875 42.640625 61.1875 C 41.703125 61.1875 40.96875 60.886719 40.4375 60.28125 C 39.914062 59.679688 39.65625 58.84375 39.65625 57.78125 C 39.65625 56.710938 39.914062 55.871094 40.4375 55.265625 C 40.96875 54.664062 41.703125 54.359375 42.640625 54.359375 Z M 42.640625 54.359375 "/>
<path style=" stroke:none;fill-rule:nonzero;fill:rgb(59.607846%,30.588236%,63.921571%);fill-opacity:1;" d="M 46.5 54.515625 L 47.5625 54.515625 L 48.90625 59.59375 L 50.234375 54.515625 L 51.484375 54.515625 L 52.8125 59.59375 L 54.140625 54.515625 L 55.21875 54.515625 L 53.515625 61.015625 L 52.25 61.015625 L 50.859375 55.6875 L 49.453125 61.015625 L 48.203125 61.015625 Z M 46.5 54.515625 "/>
<path style=" stroke:none;fill-rule:nonzero;fill:rgb(100%,100%,20%);fill-opacity:1;" d="M 23.75 66.421875 C 23.75 67.289062 23.851562 67.886719 24.046875 68.21875 C 24.246094 68.554688 24.585938 68.71875 25.0625 68.71875 C 25.4375 68.71875 25.742188 68.59375 25.96875 68.34375 C 26.1875 68.09375 26.296875 67.757812 26.296875 67.328125 C 26.296875 66.734375 26.089844 66.261719 25.671875 65.90625 C 25.246094 65.554688 24.683594 65.375 23.984375 65.375 L 23.75 65.375 Z M 23.3125 64.296875 L 27.015625 64.296875 L 27.015625 65.375 L 26.03125 65.375 C 26.429688 65.617188 26.71875 65.917969 26.90625 66.28125 C 27.09375 66.648438 27.1875 67.089844 27.1875 67.609375 C 27.1875 68.277344 27 68.808594 26.625 69.203125 C 26.25 69.589844 25.75 69.78125 25.125 69.78125 C 24.398438 69.78125 23.851562 69.539062 23.484375 69.046875 C 23.109375 68.558594 22.921875 67.828125 22.921875 66.859375 L 22.921875 65.375 L 22.8125 65.375 C 22.324219 65.375 21.945312 65.539062 21.671875 65.859375 C 21.402344 66.183594 21.265625 66.636719 21.265625 67.21875 C 21.265625 67.585938 21.3125 67.945312 21.40625 68.296875 C 21.492188 68.652344 21.621094 68.992188 21.796875 69.3125 L 20.8125 69.3125 C 20.667969 68.917969 20.558594 68.539062 20.484375 68.171875 C 20.402344 67.808594 20.359375 67.453125 20.359375 67.109375 C 20.359375 66.164062 20.605469 65.460938 21.09375 65 C 21.585938 64.53125 22.324219 64.296875 23.3125 64.296875 Z M 23.3125 64.296875 "/>
<path style=" stroke:none;fill-rule:nonzero;fill:rgb(100%,100%,20%);fill-opacity:1;" d="M 21.515625 58.625 C 21.453125 58.742188 21.40625 58.871094 21.375 59.015625 C 21.335938 59.152344 21.3125 59.304688 21.3125 59.46875 C 21.3125 60.074219 21.511719 60.539062 21.90625 60.859375 C 22.304688 61.183594 22.867188 61.34375 23.59375 61.34375 L 27.015625 61.34375 L 27.015625 62.421875 L 20.515625 62.421875 L 20.515625 61.34375 L 21.53125 61.34375 C 21.136719 61.125 20.84375 60.839844 20.65625 60.484375 C 20.460938 60.121094 20.359375 59.679688 20.359375 59.15625 C 20.359375 59.085938 20.367188 59.007812 20.375 58.921875 C 20.386719 58.828125 20.402344 58.730469 20.421875 58.625 Z M 21.515625 58.625 "/>
<path style=" stroke:none;fill-rule:nonzero;fill:rgb(100%,100%,20%);fill-opacity:1;" d="M 23.5 51.828125 L 24.03125 51.828125 L 24.03125 56.734375 C 24.761719 56.683594 25.320312 56.460938 25.703125 56.0625 C 26.089844 55.667969 26.28125 55.117188 26.28125 54.40625 C 26.28125 54 26.234375 53.605469 26.140625 53.21875 C 26.039062 52.835938 25.882812 52.453125 25.671875 52.078125 L 26.6875 52.078125 C 26.84375 52.464844 26.964844 52.859375 27.046875 53.265625 C 27.140625 53.664062 27.1875 54.0625 27.1875 54.46875 C 27.1875 55.511719 26.886719 56.335938 26.28125 56.9375 C 25.679688 57.542969 24.859375 57.84375 23.828125 57.84375 C 22.765625 57.84375 21.921875 57.558594 21.296875 56.984375 C 20.671875 56.414062 20.359375 55.636719 20.359375 54.65625 C 20.359375 53.78125 20.640625 53.09375 21.203125 52.59375 C 21.765625 52.085938 22.53125 51.828125 23.5 51.828125 Z M 23.1875 52.890625 C 22.605469 52.902344 22.140625 53.070312 21.796875 53.390625 C 21.445312 53.703125 21.265625 54.125 21.265625 54.65625 C 21.265625 55.25 21.4375 55.726562 21.78125 56.078125 C 22.117188 56.433594 22.585938 56.640625 23.1875 56.703125 Z M 23.1875 52.890625 "/>
<path style=" stroke:none;fill-rule:nonzero;fill:rgb(59.607846%,30.588236%,63.921571%);fill-opacity:1;" d="M 37.828125 45.625 C 37.523438 46.394531 37.226562 46.894531 36.9375 47.125 C 36.65625 47.363281 36.273438 47.484375 35.796875 47.484375 L 34.9375 47.484375 L 34.9375 46.59375 L 35.5625 46.59375 C 35.851562 46.59375 36.082031 46.519531 36.25 46.375 C 36.414062 46.238281 36.59375 45.910156 36.78125 45.390625 L 36.984375 44.90625 L 34.359375 38.515625 L 35.484375 38.515625 L 37.515625 43.59375 L 39.546875 38.515625 L 40.671875 38.515625 Z M 37.828125 45.625 "/>
<path style=" stroke:none;fill-rule:nonzero;fill:rgb(59.607846%,30.588236%,63.921571%);fill-opacity:1;" d="M 44.640625 39.265625 C 44.066406 39.265625 43.613281 39.492188 43.28125 39.9375 C 42.945312 40.386719 42.78125 41 42.78125 41.78125 C 42.78125 42.554688 42.941406 43.164062 43.265625 43.609375 C 43.597656 44.058594 44.054688 44.28125 44.640625 44.28125 C 45.203125 44.28125 45.648438 44.058594 45.984375 43.609375 C 46.316406 43.164062 46.484375 42.554688 46.484375 41.78125 C 46.484375 41.011719 46.316406 40.402344 45.984375 39.953125 C 45.648438 39.496094 45.203125 39.265625 44.640625 39.265625 Z M 44.640625 38.359375 C 45.566406 38.359375 46.289062 38.664062 46.8125 39.265625 C 47.34375 39.871094 47.609375 40.710938 47.609375 41.78125 C 47.609375 42.84375 47.34375 43.679688 46.8125 44.28125 C 46.289062 44.886719 45.566406 45.1875 44.640625 45.1875 C 43.703125 45.1875 42.96875 44.886719 42.4375 44.28125 C 41.914062 43.679688 41.65625 42.84375 41.65625 41.78125 C 41.65625 40.710938 41.914062 39.871094 42.4375 39.265625 C 42.96875 38.664062 43.703125 38.359375 44.640625 38.359375 Z M 44.640625 38.359375 "/>
<path style=" stroke:none;fill-rule:nonzero;fill:rgb(59.607846%,30.588236%,63.921571%);fill-opacity:1;" d="M 49.015625 42.453125 L 49.015625 38.515625 L 50.078125 38.515625 L 50.078125 42.40625 C 50.078125 43.023438 50.195312 43.484375 50.4375 43.796875 C 50.675781 44.101562 51.035156 44.25 51.515625 44.25 C 52.085938 44.25 52.539062 44.070312 52.875 43.703125 C 53.207031 43.339844 53.375 42.839844 53.375 42.203125 L 53.375 38.515625 L 54.453125 38.515625 L 54.453125 45.015625 L 53.375 45.015625 L 53.375 44.015625 C 53.125 44.414062 52.828125 44.710938 52.484375 44.90625 C 52.140625 45.09375 51.738281 45.1875 51.28125 45.1875 C 50.539062 45.1875 49.976562 44.960938 49.59375 44.5 C 49.207031 44.03125 49.015625 43.351562 49.015625 42.453125 Z M 51.6875 38.359375 Z M 51.6875 38.359375 "/>
<path style=" stroke:none;fill-rule:nonzero;fill:rgb(89.411765%,10.196079%,10.980392%);fill-opacity:1;" d="M 50.671875 100.828125 L 52.515625 100.828125 L 52.515625 98.625 L 53.34375 98.625 L 53.34375 100.828125 L 56.875 100.828125 C 57.40625 100.828125 57.75 100.757812 57.90625 100.609375 C 58.054688 100.464844 58.125 100.167969 58.125 99.71875 L 58.125 98.625 L 59.015625 98.625 L 59.015625 99.71875 C 59.015625 100.542969 58.867188 101.109375 58.5625 101.421875 C 58.25 101.734375 57.6875 101.890625 56.875 101.890625 L 53.34375 101.890625 L 53.34375 102.6875 L 52.515625 102.6875 L 52.515625 101.890625 L 50.671875 101.890625 Z M 50.671875 100.828125 "/>
<path style=" stroke:none;fill-rule:nonzero;fill:rgb(89.411765%,10.196079%,10.980392%);fill-opacity:1;" d="M 53.265625 94.359375 C 53.265625 94.933594 53.492188 95.386719 53.9375 95.71875 C 54.386719 96.054688 55 96.21875 55.78125 96.21875 C 56.554688 96.21875 57.164062 96.058594 57.609375 95.734375 C 58.058594 95.402344 58.28125 94.945312 58.28125 94.359375 C 58.28125 93.796875 58.058594 93.351562 57.609375 93.015625 C 57.164062 92.683594 56.554688 92.515625 55.78125 92.515625 C 55.011719 92.515625 54.402344 92.683594 53.953125 93.015625 C 53.496094 93.351562 53.265625 93.796875 53.265625 94.359375 Z M 52.359375 94.359375 C 52.359375 93.433594 52.664062 92.710938 53.265625 92.1875 C 53.871094 91.65625 54.710938 91.390625 55.78125 91.390625 C 56.84375 91.390625 57.679688 91.65625 58.28125 92.1875 C 58.886719 92.710938 59.1875 93.433594 59.1875 94.359375 C 59.1875 95.296875 58.886719 96.03125 58.28125 96.5625 C 57.679688 97.085938 56.84375 97.34375 55.78125 97.34375 C 54.710938 97.34375 53.871094 97.085938 53.265625 96.5625 C 52.664062 96.03125 52.359375 95.296875 52.359375 94.359375 Z M 52.359375 94.359375 "/>
<path style=" stroke:none;fill-rule:nonzero;fill:rgb(89.411765%,10.196079%,10.980392%);fill-opacity:1;" d="M 53.5 85.609375 L 50 85.609375 L 50 84.546875 L 59.015625 84.546875 L 59.015625 85.609375 L 58.046875 85.609375 C 58.433594 85.828125 58.71875 86.109375 58.90625 86.453125 C 59.09375 86.796875 59.1875 87.210938 59.1875 87.6875 C 59.1875 88.46875 58.875 89.109375 58.25 89.609375 C 57.625 90.101562 56.804688 90.34375 55.78125 90.34375 C 54.761719 90.34375 53.9375 90.101562 53.3125 89.609375 C 52.679688 89.109375 52.359375 88.46875 52.359375 87.6875 C 52.359375 87.210938 52.453125 86.796875 52.640625 86.453125 C 52.828125 86.109375 53.117188 85.828125 53.5 85.609375 Z M 55.78125 89.25 C 56.5625 89.25 57.179688 89.089844 57.625 88.765625 C 58.074219 88.445312 58.296875 87.996094 58.296875 87.421875 C 58.296875 86.859375 58.074219 86.417969 57.625 86.09375 C 57.179688 85.773438 56.5625 85.609375 55.78125 85.609375 C 54.992188 85.609375 54.375 85.773438 53.9375 86.09375 C 53.492188 86.417969 53.265625 86.859375 53.265625 87.421875 C 53.265625 87.996094 53.492188 88.445312 53.9375 88.765625 C 54.375 89.089844 54.992188 89.25 55.78125 89.25 Z M 55.78125 89.25 "/>
<path style=" stroke:none;fill-rule:nonzero;fill:rgb(89.411765%,10.196079%,10.980392%);fill-opacity:1;" d="M 55.75 78.921875 C 55.75 79.789062 55.851562 80.386719 56.046875 80.71875 C 56.246094 81.054688 56.585938 81.21875 57.0625 81.21875 C 57.4375 81.21875 57.742188 81.09375 57.96875 80.84375 C 58.1875 80.59375 58.296875 80.257812 58.296875 79.828125 C 58.296875 79.234375 58.089844 78.761719 57.671875 78.40625 C 57.246094 78.054688 56.683594 77.875 55.984375 77.875 L 55.75 77.875 Z M 55.3125 76.796875 L 59.015625 76.796875 L 59.015625 77.875 L 58.03125 77.875 C 58.429688 78.117188 58.71875 78.417969 58.90625 78.78125 C 59.09375 79.148438 59.1875 79.589844 59.1875 80.109375 C 59.1875 80.777344 59 81.308594 58.625 81.703125 C 58.25 82.089844 57.75 82.28125 57.125 82.28125 C 56.398438 82.28125 55.851562 82.039062 55.484375 81.546875 C 55.109375 81.058594 54.921875 80.328125 54.921875 79.359375 L 54.921875 77.875 L 54.8125 77.875 C 54.324219 77.875 53.945312 78.039062 53.671875 78.359375 C 53.402344 78.683594 53.265625 79.136719 53.265625 79.71875 C 53.265625 80.085938 53.3125 80.445312 53.40625 80.796875 C 53.492188 81.152344 53.621094 81.492188 53.796875 81.8125 L 52.8125 81.8125 C 52.667969 81.417969 52.558594 81.039062 52.484375 80.671875 C 52.402344 80.308594 52.359375 79.953125 52.359375 79.609375 C 52.359375 78.664062 52.605469 77.960938 53.09375 77.5 C 53.585938 77.03125 54.324219 76.796875 55.3125 76.796875 Z M 55.3125 76.796875 "/>
<path style=" stroke:none;fill-rule:nonzero;fill:rgb(89.411765%,10.196079%,10.980392%);fill-opacity:1;" d="M 59.625 72.171875 C 60.394531 72.476562 60.894531 72.773438 61.125 73.0625 C 61.363281 73.34375 61.484375 73.726562 61.484375 74.203125 L 61.484375 75.0625 L 60.59375 75.0625 L 60.59375 74.4375 C 60.59375 74.148438 60.519531 73.917969 60.375 73.75 C 60.238281 73.585938 59.910156 73.40625 59.390625 73.21875 L 58.90625 73.015625 L 52.515625 75.640625 L 52.515625 74.515625 L 57.59375 72.484375 L 52.515625 70.453125 L 52.515625 69.328125 Z M 59.625 72.171875 "/>
<path style=" stroke:none;fill-rule:nonzero;fill:rgb(89.411765%,10.196079%,10.980392%);fill-opacity:1;" d="M 57.546875 66.734375 L 57.546875 65.5625 L 59.015625 65.5625 L 59.015625 66.734375 Z M 56.6875 65.59375 L 56.6875 66.703125 L 55.796875 66.703125 C 55.414062 66.703125 55.09375 66.652344 54.84375 66.546875 C 54.585938 66.433594 54.289062 66.199219 53.953125 65.84375 L 53.4375 65.328125 C 53.242188 65.109375 53.054688 64.953125 52.875 64.859375 C 52.6875 64.757812 52.5 64.703125 52.3125 64.703125 C 51.96875 64.703125 51.695312 64.835938 51.484375 65.09375 C 51.265625 65.34375 51.15625 65.679688 51.15625 66.09375 C 51.15625 66.398438 51.226562 66.71875 51.359375 67.0625 C 51.496094 67.40625 51.695312 67.765625 51.953125 68.140625 L 50.859375 68.140625 C 50.640625 67.789062 50.480469 67.421875 50.375 67.046875 C 50.261719 66.671875 50.203125 66.289062 50.203125 65.890625 C 50.203125 65.171875 50.390625 64.601562 50.765625 64.171875 C 51.140625 63.746094 51.636719 63.53125 52.25 63.53125 C 52.542969 63.53125 52.824219 63.601562 53.09375 63.734375 C 53.355469 63.871094 53.652344 64.117188 53.984375 64.46875 L 54.484375 64.96875 C 54.664062 65.15625 54.804688 65.289062 54.90625 65.359375 C 55.011719 65.433594 55.109375 65.484375 55.203125 65.515625 C 55.289062 65.546875 55.386719 65.570312 55.5 65.578125 C 55.617188 65.589844 55.777344 65.59375 55.984375 65.59375 Z M 56.6875 65.59375 "/>
<path style=" stroke:none;fill-rule:nonzero;fill:rgb(21.568628%,49.411765%,72.156864%);fill-opacity:1;" d="M 47.171875 26.359375 L 48.34375 26.359375 L 48.34375 35.015625 L 47.171875 35.015625 Z M 47.171875 26.359375 "/>
<path style=" stroke:none;fill-rule:nonzero;fill:rgb(21.568628%,49.411765%,72.156864%);fill-opacity:1;" d="M 51.171875 26.671875 L 51.171875 28.515625 L 53.375 28.515625 L 53.375 29.34375 L 51.171875 29.34375 L 51.171875 32.875 C 51.171875 33.40625 51.242188 33.75 51.390625 33.90625 C 51.535156 34.054688 51.832031 34.125 52.28125 34.125 L 53.375 34.125 L 53.375 35.015625 L 52.28125 35.015625 C 51.457031 35.015625 50.890625 34.867188 50.578125 34.5625 C 50.265625 34.25 50.109375 33.6875 50.109375 32.875 L 50.109375 29.34375 L 49.3125 29.34375 L 49.3125 28.515625 L 50.109375 28.515625 L 50.109375 26.671875 Z M 51.171875 26.671875 "/>
<path style=" stroke:none;fill-rule:nonzero;fill:rgb(59.607846%,30.588236%,63.921571%);fill-opacity:1;" d="M 124.78125 79.75 C 125.5625 79.75 126.179688 79.589844 126.625 79.265625 C 127.074219 78.945312 127.296875 78.496094 127.296875 77.921875 C 127.296875 77.359375 127.074219 76.917969 126.625 76.59375 C 126.179688 76.273438 125.5625 76.109375 124.78125 76.109375 C 123.992188 76.109375 123.375 76.273438 122.9375 76.59375 C 122.492188 76.917969 122.265625 77.359375 122.265625 77.921875 C 122.265625 78.496094 122.492188 78.945312 122.9375 79.265625 C 123.375 79.589844 123.992188 79.75 124.78125 79.75 Z M 127.046875 76.109375 C 127.433594 76.328125 127.71875 76.609375 127.90625 76.953125 C 128.09375 77.296875 128.1875 77.710938 128.1875 78.1875 C 128.1875 78.96875 127.875 79.609375 127.25 80.109375 C 126.625 80.601562 125.804688 80.84375 124.78125 80.84375 C 123.761719 80.84375 122.9375 80.601562 122.3125 80.109375 C 121.679688 79.609375 121.359375 78.96875 121.359375 78.1875 C 121.359375 77.710938 121.453125 77.296875 121.640625 76.953125 C 121.828125 76.609375 122.117188 76.328125 122.5 76.109375 L 121.515625 76.109375 L 121.515625 75.046875 L 130.484375 75.046875 L 130.484375 76.109375 Z M 127.046875 76.109375 "/>
<path style=" stroke:none;fill-rule:nonzero;fill:rgb(59.607846%,30.588236%,63.921571%);fill-opacity:1;" d="M 125.453125 72.484375 L 121.515625 72.484375 L 121.515625 71.421875 L 125.40625 71.421875 C 126.023438 71.421875 126.484375 71.304688 126.796875 71.0625 C 127.101562 70.824219 127.25 70.464844 127.25 69.984375 C 127.25 69.414062 127.070312 68.960938 126.703125 68.625 C 126.339844 68.292969 125.839844 68.125 125.203125 68.125 L 121.515625 68.125 L 121.515625 67.046875 L 128.015625 67.046875 L 128.015625 68.125 L 127.015625 68.125 C 127.414062 68.375 127.710938 68.671875 127.90625 69.015625 C 128.09375 69.359375 128.1875 69.761719 128.1875 70.21875 C 128.1875 70.960938 127.960938 71.523438 127.5 71.90625 C 127.03125 72.292969 126.351562 72.484375 125.453125 72.484375 Z M 121.359375 69.8125 Z M 121.359375 69.8125 "/>
<path style=" stroke:none;fill-rule:nonzero;fill:rgb(59.607846%,30.588236%,63.921571%);fill-opacity:1;" d="M 121.515625 64.375 L 121.515625 63.3125 L 128.015625 63.3125 L 128.015625 64.375 Z M 119 64.375 L 119 63.3125 L 120.34375 63.3125 L 120.34375 64.375 Z M 119 64.375 "/>
<path style=" stroke:none;fill-rule:nonzero;fill:rgb(59.607846%,30.588236%,63.921571%);fill-opacity:1;" d="M 119.671875 60.328125 L 121.515625 60.328125 L 121.515625 58.125 L 122.34375 58.125 L 122.34375 60.328125 L 125.875 60.328125 C 126.40625 60.328125 126.75 60.257812 126.90625 60.109375 C 127.054688 59.964844 127.125 59.667969 127.125 59.21875 L 127.125 58.125 L 128.015625 58.125 L 128.015625 59.21875 C 128.015625 60.042969 127.867188 60.609375 127.5625 60.921875 C 127.25 61.234375 126.6875 61.390625 125.875 61.390625 L 122.34375 61.390625 L 122.34375 62.1875 L 121.515625 62.1875 L 121.515625 61.390625 L 119.671875 61.390625 Z M 119.671875 60.328125 "/>
<path style=" stroke:none;fill-rule:nonzero;fill:rgb(59.607846%,30.588236%,63.921571%);fill-opacity:1;" d="M 124.5 50.828125 L 125.03125 50.828125 L 125.03125 55.734375 C 125.761719 55.683594 126.320312 55.460938 126.703125 55.0625 C 127.089844 54.667969 127.28125 54.117188 127.28125 53.40625 C 127.28125 53 127.234375 52.605469 127.140625 52.21875 C 127.039062 51.835938 126.882812 51.453125 126.671875 51.078125 L 127.6875 51.078125 C 127.84375 51.464844 127.964844 51.859375 128.046875 52.265625 C 128.140625 52.664062 128.1875 53.0625 128.1875 53.46875 C 128.1875 54.511719 127.886719 55.335938 127.28125 55.9375 C 126.679688 56.542969 125.859375 56.84375 124.828125 56.84375 C 123.765625 56.84375 122.921875 56.558594 122.296875 55.984375 C 121.671875 55.414062 121.359375 54.636719 121.359375 53.65625 C 121.359375 52.78125 121.640625 52.09375 122.203125 51.59375 C 122.765625 51.085938 123.53125 50.828125 124.5 50.828125 Z M 124.1875 51.890625 C 123.605469 51.902344 123.140625 52.070312 122.796875 52.390625 C 122.445312 52.703125 122.265625 53.125 122.265625 53.65625 C 122.265625 54.25 122.4375 54.726562 122.78125 55.078125 C 123.117188 55.433594 123.585938 55.640625 124.1875 55.703125 Z M 124.1875 51.890625 "/>
<path style=" stroke:none;fill-rule:nonzero;fill:rgb(89.411765%,10.196079%,10.980392%);fill-opacity:1;" d="M 100.515625 57.09375 L 100.515625 61.015625 L 99.453125 61.015625 L 99.453125 57.125 C 99.453125 56.511719 99.332031 56.054688 99.09375 55.75 C 98.851562 55.449219 98.492188 55.296875 98.015625 55.296875 C 97.441406 55.296875 96.988281 55.480469 96.65625 55.84375 C 96.320312 56.210938 96.15625 56.710938 96.15625 57.34375 L 96.15625 61.015625 L 95.078125 61.015625 L 95.078125 52 L 96.15625 52 L 96.15625 55.53125 C 96.40625 55.136719 96.703125 54.84375 97.046875 54.65625 C 97.398438 54.460938 97.800781 54.359375 98.25 54.359375 C 99 54.359375 99.5625 54.59375 99.9375 55.0625 C 100.320312 55.523438 100.515625 56.199219 100.515625 57.09375 Z M 100.515625 57.09375 "/>
<path style=" stroke:none;fill-rule:nonzero;fill:rgb(89.411765%,10.196079%,10.980392%);fill-opacity:1;" d="M 105.640625 55.265625 C 105.066406 55.265625 104.613281 55.492188 104.28125 55.9375 C 103.945312 56.386719 103.78125 57 103.78125 57.78125 C 103.78125 58.554688 103.941406 59.164062 104.265625 59.609375 C 104.597656 60.058594 105.054688 60.28125 105.640625 60.28125 C 106.203125 60.28125 106.648438 60.058594 106.984375 59.609375 C 107.316406 59.164062 107.484375 58.554688 107.484375 57.78125 C 107.484375 57.011719 107.316406 56.402344 106.984375 55.953125 C 106.648438 55.496094 106.203125 55.265625 105.640625 55.265625 Z M 105.640625 54.359375 C 106.566406 54.359375 107.289062 54.664062 107.8125 55.265625 C 108.34375 55.871094 108.609375 56.710938 108.609375 57.78125 C 108.609375 58.84375 108.34375 59.679688 107.8125 60.28125 C 107.289062 60.886719 106.566406 61.1875 105.640625 61.1875 C 104.703125 61.1875 103.96875 60.886719 103.4375 60.28125 C 102.914062 59.679688 102.65625 58.84375 102.65625 57.78125 C 102.65625 56.710938 102.914062 55.871094 103.4375 55.265625 C 103.96875 54.664062 104.703125 54.359375 105.640625 54.359375 Z M 105.640625 54.359375 "/>
<path style=" stroke:none;fill-rule:nonzero;fill:rgb(89.411765%,10.196079%,10.980392%);fill-opacity:1;" d="M 111.171875 52.671875 L 111.171875 54.515625 L 113.375 54.515625 L 113.375 55.34375 L 111.171875 55.34375 L 111.171875 58.875 C 111.171875 59.40625 111.242188 59.75 111.390625 59.90625 C 111.535156 60.054688 111.832031 60.125 112.28125 60.125 L 113.375 60.125 L 113.375 61.015625 L 112.28125 61.015625 C 111.457031 61.015625 110.890625 60.867188 110.578125 60.5625 C 110.265625 60.25 110.109375 59.6875 110.109375 58.875 L 110.109375 55.34375 L 109.3125 55.34375 L 109.3125 54.515625 L 110.109375 54.515625 L 110.109375 52.671875 Z M 111.171875 52.671875 "/>
<path style=" stroke:none;fill-rule:nonzero;fill:rgb(30.19608%,68.627453%,29.019609%);fill-opacity:1;" d="M 59.765625 58.859375 C 59.765625 59.433594 59.992188 59.886719 60.4375 60.21875 C 60.886719 60.554688 61.5 60.71875 62.28125 60.71875 C 63.054688 60.71875 63.664062 60.558594 64.109375 60.234375 C 64.558594 59.902344 64.78125 59.445312 64.78125 58.859375 C 64.78125 58.296875 64.558594 57.851562 64.109375 57.515625 C 63.664062 57.183594 63.054688 57.015625 62.28125 57.015625 C 61.511719 57.015625 60.902344 57.183594 60.453125 57.515625 C 59.996094 57.851562 59.765625 58.296875 59.765625 58.859375 Z M 58.859375 58.859375 C 58.859375 57.933594 59.164062 57.210938 59.765625 56.6875 C 60.371094 56.15625 61.210938 55.890625 62.28125 55.890625 C 63.34375 55.890625 64.179688 56.15625 64.78125 56.6875 C 65.386719 57.210938 65.6875 57.933594 65.6875 58.859375 C 65.6875 59.796875 65.386719 60.53125 64.78125 61.0625 C 64.179688 61.585938 63.34375 61.84375 62.28125 61.84375 C 61.210938 61.84375 60.371094 61.585938 59.765625 61.0625 C 59.164062 60.53125 58.859375 59.796875 58.859375 58.859375 Z M 58.859375 58.859375 "/>
<path style=" stroke:none;fill-rule:nonzero;fill:rgb(30.19608%,68.627453%,29.019609%);fill-opacity:1;" d="M 62.953125 54.484375 L 59.015625 54.484375 L 59.015625 53.421875 L 62.90625 53.421875 C 63.523438 53.421875 63.984375 53.304688 64.296875 53.0625 C 64.601562 52.824219 64.75 52.464844 64.75 51.984375 C 64.75 51.414062 64.570312 50.960938 64.203125 50.625 C 63.839844 50.292969 63.339844 50.125 62.703125 50.125 L 59.015625 50.125 L 59.015625 49.046875 L 65.515625 49.046875 L 65.515625 50.125 L 64.515625 50.125 C 64.914062 50.375 65.210938 50.671875 65.40625 51.015625 C 65.59375 51.359375 65.6875 51.761719 65.6875 52.21875 C 65.6875 52.960938 65.460938 53.523438 65 53.90625 C 64.53125 54.292969 63.851562 54.484375 62.953125 54.484375 Z M 58.859375 51.8125 Z M 58.859375 51.8125 "/>
<path style=" stroke:none;fill-rule:nonzero;fill:rgb(30.19608%,68.627453%,29.019609%);fill-opacity:1;" d="M 57.171875 45.328125 L 59.015625 45.328125 L 59.015625 43.125 L 59.84375 43.125 L 59.84375 45.328125 L 63.375 45.328125 C 63.90625 45.328125 64.25 45.257812 64.40625 45.109375 C 64.554688 44.964844 64.625 44.667969 64.625 44.21875 L 64.625 43.125 L 65.515625 43.125 L 65.515625 44.21875 C 65.515625 45.042969 65.367188 45.609375 65.0625 45.921875 C 64.75 46.234375 64.1875 46.390625 63.375 46.390625 L 59.84375 46.390625 L 59.84375 47.1875 L 59.015625 47.1875 L 59.015625 46.390625 L 57.171875 46.390625 Z M 57.171875 45.328125 "/>
<path style=" stroke:none;fill-rule:nonzero;fill:rgb(30.19608%,68.627453%,29.019609%);fill-opacity:1;" d="M 59.21875 37.234375 L 60.21875 37.234375 C 60.0625 37.539062 59.949219 37.855469 59.875 38.1875 C 59.804688 38.511719 59.765625 38.84375 59.765625 39.1875 C 59.765625 39.71875 59.851562 40.121094 60.015625 40.390625 C 60.171875 40.652344 60.414062 40.78125 60.734375 40.78125 C 60.984375 40.78125 61.183594 40.6875 61.328125 40.5 C 61.464844 40.304688 61.59375 39.917969 61.71875 39.34375 L 61.796875 38.984375 C 61.964844 38.226562 62.195312 37.6875 62.484375 37.375 C 62.777344 37.054688 63.1875 36.890625 63.71875 36.890625 C 64.324219 36.890625 64.804688 37.132812 65.15625 37.609375 C 65.511719 38.089844 65.6875 38.746094 65.6875 39.578125 C 65.6875 39.921875 65.648438 40.289062 65.578125 40.671875 C 65.515625 41.046875 65.417969 41.445312 65.28125 41.859375 L 64.171875 41.859375 C 64.382812 41.464844 64.539062 41.074219 64.640625 40.6875 C 64.746094 40.304688 64.796875 39.921875 64.796875 39.546875 C 64.796875 39.046875 64.714844 38.664062 64.546875 38.390625 C 64.371094 38.121094 64.125 37.984375 63.8125 37.984375 C 63.523438 37.984375 63.296875 38.085938 63.140625 38.28125 C 62.984375 38.480469 62.835938 38.90625 62.6875 39.5625 L 62.609375 39.9375 C 62.464844 40.59375 62.25 41.074219 61.96875 41.375 C 61.679688 41.667969 61.28125 41.8125 60.78125 41.8125 C 60.167969 41.8125 59.695312 41.601562 59.359375 41.171875 C 59.027344 40.734375 58.859375 40.117188 58.859375 39.3125 C 58.859375 38.917969 58.890625 38.546875 58.953125 38.203125 C 59.007812 37.859375 59.09375 37.539062 59.21875 37.234375 Z M 59.21875 37.234375 "/>
<path style=" stroke:none;fill-rule:nonzero;fill:rgb(30.19608%,68.627453%,29.019609%);fill-opacity:1;" d="M 59.015625 35.375 L 59.015625 34.3125 L 65.515625 34.3125 L 65.515625 35.375 Z M 56.5 35.375 L 56.5 34.3125 L 57.84375 34.3125 L 57.84375 35.375 Z M 56.5 35.375 "/>
<path style=" stroke:none;fill-rule:nonzero;fill:rgb(30.19608%,68.627453%,29.019609%);fill-opacity:1;" d="M 60 28.109375 L 56.5 28.109375 L 56.5 27.046875 L 65.515625 27.046875 L 65.515625 28.109375 L 64.546875 28.109375 C 64.933594 28.328125 65.21875 28.609375 65.40625 28.953125 C 65.59375 29.296875 65.6875 29.710938 65.6875 30.1875 C 65.6875 30.96875 65.375 31.609375 64.75 32.109375 C 64.125 32.601562 63.304688 32.84375 62.28125 32.84375 C 61.261719 32.84375 60.4375 32.601562 59.8125 32.109375 C 59.179688 31.609375 58.859375 30.96875 58.859375 30.1875 C 58.859375 29.710938 58.953125 29.296875 59.140625 28.953125 C 59.328125 28.609375 59.617188 28.328125 60 28.109375 Z M 62.28125 31.75 C 63.0625 31.75 63.679688 31.589844 64.125 31.265625 C 64.574219 30.945312 64.796875 30.496094 64.796875 29.921875 C 64.796875 29.359375 64.574219 28.917969 64.125 28.59375 C 63.679688 28.273438 63.0625 28.109375 62.28125 28.109375 C 61.492188 28.109375 60.875 28.273438 60.4375 28.59375 C 59.992188 28.917969 59.765625 29.359375 59.765625 29.921875 C 59.765625 30.496094 59.992188 30.945312 60.4375 31.265625 C 60.875 31.589844 61.492188 31.75 62.28125 31.75 Z M 62.28125 31.75 "/>
<path style=" stroke:none;fill-rule:nonzero;fill:rgb(30.19608%,68.627453%,29.019609%);fill-opacity:1;" d="M 62 18.828125 L 62.53125 18.828125 L 62.53125 23.734375 C 63.261719 23.683594 63.820312 23.460938 64.203125 23.0625 C 64.589844 22.667969 64.78125 22.117188 64.78125 21.40625 C 64.78125 21 64.734375 20.605469 64.640625 20.21875 C 64.539062 19.835938 64.382812 19.453125 64.171875 19.078125 L 65.1875 19.078125 C 65.34375 19.464844 65.464844 19.859375 65.546875 20.265625 C 65.640625 20.664062 65.6875 21.0625 65.6875 21.46875 C 65.6875 22.511719 65.386719 23.335938 64.78125 23.9375 C 64.179688 24.542969 63.359375 24.84375 62.328125 24.84375 C 61.265625 24.84375 60.421875 24.558594 59.796875 23.984375 C 59.171875 23.414062 58.859375 22.636719 58.859375 21.65625 C 58.859375 20.78125 59.140625 20.09375 59.703125 19.59375 C 60.265625 19.085938 61.03125 18.828125 62 18.828125 Z M 61.6875 19.890625 C 61.105469 19.902344 60.640625 20.070312 60.296875 20.390625 C 59.945312 20.703125 59.765625 21.125 59.765625 21.65625 C 59.765625 22.25 59.9375 22.726562 60.28125 23.078125 C 60.617188 23.433594 61.085938 23.640625 61.6875 23.703125 Z M 61.6875 19.890625 "/>
<path style=" stroke:none;fill-rule:nonzero;fill:rgb(30.19608%,68.627453%,29.019609%);fill-opacity:1;" d="M 64.046875 17.234375 L 64.046875 16 L 65.515625 16 L 65.515625 17.234375 Z M 64.046875 17.234375 "/>
</g>
</svg>
